<?xml version="1.0" encoding="UTF-8"?>
<svg id="Layer_1" data-name="Layer 1" xmlns="http://www.w3.org/2000/svg" version="1.1" viewBox="0 0 115 95">
  <defs>
    <style>
      .cls-1 {
        fill: #999999;
        stroke-width: 0px;
      }
    </style>
  </defs>
  <path class="cls-1" d="M17.7,68.9l.3-45.2h-5.1v57.5c7-1.8,14-3,21.1-3,6.5,0,13.1.9,19.6,3.1-4.1-3.3-8.6-5.7-13.5-7.3-6.1-2-12.7-2.6-19.5-2.1-1.5.1-2.9-1-3-2.5,0-.2,0-.3,0-.5h0ZM92.6,21.4c0-.1,0-.3,0-.4s0-.3,0-.4v-9.1c-6.4-.6-13,0-18.8,2.3-5.4,2-10.1,5.4-13.1,10.2v52.1c4.7-3.1,9.5-5.7,14.5-7.5,5.6-2,11.4-3,17.4-2.5V21.4h0ZM98.1,18.2h7.5c1.5,0,2.8,1.2,2.8,2.8v63.9c0,1.5-1.2,2.8-2.8,2.8s-.6,0-.9-.1c-7.7-2.2-15.4-3.7-23-3.7-7.4,0-14.8,1.3-22.3,4.5-.5.3-1,.5-1.6.5-.6,0-1.1-.2-1.6-.5-7.4-3.3-14.9-4.6-22.3-4.5-7.6,0-15.3,1.5-23,3.7-.3,0-.6.1-.9.1-1.5,0-2.8-1.2-2.8-2.8V21c0-1.5,1.2-2.8,2.8-2.8h7.9v-9.3c0-1.3,1-2.4,2.3-2.7h0c7.3-1.5,16.2-1.1,23.9,1.8,5.4,2.1,10.3,5.3,13.8,10.1,3.6-4.4,8.4-7.6,13.8-9.6,7.4-2.8,15.9-3.5,23.9-2.3,1.4.2,2.4,1.4,2.4,2.7h0v9.3h0ZM63.4,80.9c6.1-1.9,12.3-2.7,18.4-2.7,7.1,0,14.1,1.2,21.1,3V23.8h-4.7v45.4c0,1.5-1.2,2.8-2.8,2.8s-.4,0-.6,0c-6.1-1-12-.2-17.7,1.9-4.6,1.7-9.2,4.1-13.6,7.1h0ZM55.1,75.5V23.8c-2.9-5.1-7.6-8.6-12.9-10.6-6-2.3-12.8-2.8-18.7-2l-.3,55c6.4-.2,12.7.6,18.6,2.5,4.7,1.5,9.2,3.8,13.3,6.7h0Z"/>
</svg>