<?xml version="1.0" encoding="UTF-8"?>
<svg id="Layer_1" data-name="Layer 1" xmlns="http://www.w3.org/2000/svg" version="1.1" viewBox="0 0 115 95">
  <defs>
    <style>
      .cls-1 {
        fill: #003078;
        stroke-width: 0px;
      }
    </style>
  </defs>
  <path class="cls-1" d="M61.4,50.2h-7.9c-.1,0-.2,0-.3.1,0,0-.1.2-.1.3v16.6c0,.1,0,.2.1.3,0,0,.2.1.3.1h7.9c.1,0,.2,0,.3-.1,0,0,.1-.2.1-.3v-16.6c0-.1,0-.2-.1-.3,0,0-.2-.1-.3-.1h0ZM10.2,14.9h27.3v-7.8c0-1.2.5-2.3,1.3-3,.8-.8,1.9-1.3,3-1.3h31.3c1.2,0,2.2.5,3,1.3.8.8,1.3,1.9,1.3,3v7.8h27.3c1.7,0,3.2.7,4.3,1.8,1.1,1.1,1.8,2.6,1.8,4.3v14.6c-6.8,4.7-13.9,8.7-21.2,12-7.3,3.3-14.9,5.8-22.7,7.6v-5.9c0-1.3-.5-2.6-1.4-3.5-.9-.9-2.1-1.4-3.5-1.4h-9.1c-1.3,0-2.6.5-3.5,1.4-.9.9-1.4,2.1-1.4,3.5v5.7c-7.6-1.7-15-4.2-22.1-7.4-7.5-3.4-14.7-7.5-21.8-12.4v-14.2c0-1.7.7-3.2,1.8-4.3,1.1-1.1,2.6-1.8,4.3-1.8h0ZM110.8,44.3v39.7c0,1.7-.7,3.2-1.8,4.3-1.1,1.1-2.6,1.8-4.3,1.8H10.2c-1.7,0-3.2-.7-4.3-1.8-1.1-1.1-1.8-2.6-1.8-4.3v-40.1c6,3.8,12.1,7.2,18.5,10,8.2,3.7,16.6,6.5,25.4,8.3v6.3c0,1.3.5,2.6,1.4,3.5.9.9,2.1,1.4,3.5,1.4h9.1c1.3,0,2.6-.5,3.5-1.4.9-.9,1.4-2.1,1.4-3.5v-6.6.4c9-1.9,17.7-4.7,26-8.4,6.1-2.7,12.1-6,17.9-9.7h0ZM69.9,8.6h-24.8c-.1,0-.3,0-.4.2,0,0-.2.2-.2.4v5.6h25.8v-5.6c0-.1,0-.3-.2-.4,0,0-.2-.2-.4-.2h0Z"/>
</svg>