<?xml version="1.0" encoding="UTF-8"?>
<svg id="Layer_1" data-name="Layer 1" xmlns="http://www.w3.org/2000/svg" version="1.1" viewBox="0 0 115 95">
  <defs>
    <style>
      .cls-1 {
        fill: #10403c;
        fill-rule: evenodd;
        stroke-width: 0px;
      }
    </style>
  </defs>
  <path class="cls-1" d="M48.3,40.6c9.7,8.3,12.7,21,8.9,33h29.6c2.8-8.4,11.3-13.1,20.8-9.1l3.4-20.2c.6-3.4-2.8-6.3-6.3-6.3h-19.1v-15.2c0-1.2-.9-2.2-2.1-2.2v-7.8h-2.9v7.8c-1.1,0-2.1,1-2.1,2.2v15.2h-14.9c2.9-13.5-.5-18.1-2.4-31.9-.8-2-2.3-2.4-3.9-2.5H22.5c-1.7,0-3,.9-3.6,2.7l-2.4,22.7-4.7,5.5c-2.1,2.4-1.5,1.8.4,4.7.3-.2.7-.5,1-.7,9.9-6.5,25.7-5.3,35,1.9h0ZM83.1,8.6c.1-.1.4-.1.5,0,.1.1.1.4,0,.5-.3.3-.2.7,0,1,.2.6.3,1.2-.4,1.6-.2,0-.4,0-.5-.1s0-.4.1-.5c.3-.2.2-.5,0-.8-.1-.5-.3-1.1.2-1.7h0ZM81,8.6c.1-.1.4-.1.5,0,.1.1.1.4,0,.5-.3.3-.2.7,0,1,.2.6.3,1.2-.4,1.6-.2,0-.4,0-.5-.1,0-.2,0-.4.1-.5.3-.2.2-.5,0-.8-.1-.5-.3-1.1.3-1.7h0ZM42.5,11.2v16.8c3.9.9,7.7,2.1,11.5,3.6,2,.8,4.3-1.8,3.9-3.9l-2.5-12.6c-.4-2.1-1.7-3.9-3.9-3.9h-8.9ZM38.7,27.2v-16h-9.6c-2.1,0-3.4,1.8-3.9,3.9l-1.7,7.2c-.5,2.1,1.7,3.8,3.9,3.9,3.8,0,7.5.4,11.3,1h0ZM101.6,66.1c6.5,0,11.8,5.3,11.8,11.8s-5.3,11.8-11.8,11.8-11.8-5.3-11.8-11.8,5.3-11.8,11.8-11.8h0ZM27.5,39.7c13.9,0,25.1,11.3,25.1,25.1s-11.3,25.1-25.1,25.1c-13.9,0-25.1-11.3-25.1-25.1s11.3-25.1,25.1-25.1h0ZM27.5,51.3c7.5,0,13.5,6.1,13.5,13.5s-6.1,13.5-13.5,13.5-13.5-6.1-13.5-13.5c0-7.5,6.1-13.5,13.5-13.5h0ZM101.6,71.9c3.3,0,6,2.7,6,6s-2.7,6-6,6-6-2.7-6-6,2.7-6,6-6h0ZM84.1,45.4h14.9l-.3,1.7h-14.8l.3-1.7h0ZM78.9,54.7h20.1l-.3,1.7h-20l.3-1.7h0ZM80.7,50h18.2l-.3,1.7h-18.2l.3-1.7h0Z"/>
</svg>