<?xml version="1.0" encoding="UTF-8"?>
<svg id="Layer_1" data-name="Layer 1" xmlns="http://www.w3.org/2000/svg" version="1.1" viewBox="0 0 115 95">
  <defs>
    <style>
      .cls-1 {
        fill: #999999;
        fill-rule: evenodd;
        stroke-width: 0px;
      }
    </style>
  </defs>
  <path class="cls-1" d="M10.9,37.1h5.9V2.6h15.2v34.6h5.6V10.8h11.7v26.3h15.2v-11.1l17.5,11.1h3.2v-11.1l17.5,11.1h.2c1.4,0,2.5,1.1,2.5,2.5v50.8c0,1.4-1.1,2.5-2.5,2.5H10.9c-1.4,0-2.5-1.1-2.5-2.5v-50.8c0-1.4,1.1-2.5,2.5-2.5h0ZM68.4,61.6h-8.8c-.4,0-.7.3-.7.7v8.8c0,.4.3.7.7.7h8.8c.4,0,.7-.3.7-.7v-8.8c0-.4-.3-.7-.7-.7h0ZM69.1,48.5h-8.8c-.4,0-.7.3-.7.7v8.8c0,.4.3.7.7.7h8.8c.4,0,.7-.3.7-.7v-8.8c0-.4-.3-.7-.7-.7h0ZM75.8,49.2h8.8c.4,0,.7.3.7.7v8.8c0,.4-.3.7-.7.7h-8.8c-.4,0-.7-.3-.7-.7v-8.8c0-.4.3-.7.7-.7h0ZM89.8,49.9h8.8c.4,0,.7.3.7.7v8.8c0,.4-.3.7-.7.7h-8.8c-.4,0-.7-.3-.7-.7v-8.8c0-.4.3-.7.7-.7h0ZM89,64.5h8.8c.4,0,.7.3.7.7v8.8c0,.4-.3.7-.7.7h-8.8c-.4,0-.7-.3-.7-.7v-8.8c0-.4.3-.7.7-.7h0ZM73.6,65.2h8.8c.4,0,.7.3.7.7v8.8c0,.4-.3.7-.7.7h-8.8c-.4,0-.7-.3-.7-.7v-8.8c0-.4.3-.7.7-.7h0Z"/>
</svg>