<?xml version="1.0" encoding="UTF-8"?>
<svg id="Layer_1" data-name="Layer 1" xmlns="http://www.w3.org/2000/svg" version="1.1" viewBox="0 0 115 95">
  <defs>
    <style>
      .cls-1 {
        fill: #999999;
        stroke-width: 0px;
      }
    </style>
  </defs>
  <path class="cls-1" d="M55.6,89.4c40.4-4.5,62.8-30.9,41.6-86.4-16.6,11.6-39.3,19.2-50.7,34.7,7.5,6.5,13.6,13.8,15.3,23.3,10.3-12.5,21.5-24,27.5-36.6-6.1,30.5-15.6,42-30.2,57.6-1,2.6-2.2,5.1-3.5,7.5h0ZM44,92.5C12.7,84.9-2.3,62.3,20.7,22.3c18.6,17.9,51.3,29.2,29.9,67-.4.8-.9,1.6-1.4,2.3-3.8-18.7-19.2-33.4-23.7-49.1,1,25.6,8.4,33.1,19.8,50.1-.4,0-.9,0-1.3-.1h0Z"/>
</svg>