<?xml version="1.0" encoding="UTF-8"?>
<svg id="Layer_1" data-name="Layer 1" xmlns="http://www.w3.org/2000/svg" version="1.1" viewBox="0 0 115 95">
  <defs>
    <style>
      .cls-1 {
        fill: #2f420a;
        stroke-width: 0px;
      }
    </style>
  </defs>
  <path class="cls-1" d="M17.5,86.9h82.5l-7.9-14.7H25.2l-7.6,14.7h0ZM89.4,67.3l-7.8-14.4h-46.3l-7.5,14.4h61.7ZM56.5,1.7c1.2-.6,2.7-.2,3.4,1,15.4,28.4,30.7,58,46.1,86.4.2.4.4-.3.4.2,0,1.4-1.1,2.5-2.5,2.5H14.2c-.4,0-.8,0-1.1-.3-1.2-.6-1.7-2.1-1.1-3.3C26.9,59.6,41.5,30.6,56.5,1.7h0ZM78.9,47.9l-7.9-14.7h-25.5l-7.7,14.7h41.1ZM68.3,28.3l-10.3-19.1-9.9,19.1h20.2Z"/>
</svg>