<?xml version="1.0" encoding="UTF-8"?>
<svg id="Layer_1" data-name="Layer 1" xmlns="http://www.w3.org/2000/svg" version="1.1" viewBox="0 0 115 95">
  <defs>
    <style>
      .cls-1 {
        fill: #999999;
        fill-rule: evenodd;
        stroke-width: 0px;
      }
    </style>
  </defs>
  <path class="cls-1" d="M25,1.4h66.5c1.7,0,3.1,1.4,3.1,3.1v85.1c0,1.7-1.4,3.1-3.1,3.1H25c-1.7,0-3.1-1.4-3.1-3.1V4.6c0-1.7,1.4-3.1,3.1-3.1h0ZM69.5,14.9h5.2v4.3h-5.2v-4.3h0ZM78.7,14.9h5.2v4.3h-5.2v-4.3h0ZM29.3,35h8.7c.7,0,1.4.6,1.4,1.4v7.4c0,.7-.6,1.4-1.4,1.4h-8.7c-.7,0-1.4-.6-1.4-1.4v-7.4c0-.8.6-1.4,1.4-1.4h0ZM79.4,76.7h8.7c.7,0,1.4.6,1.4,1.4v7.4c0,.7-.6,1.4-1.4,1.4h-8.7c-.7,0-1.4-.6-1.4-1.4v-7.4c0-.8.6-1.4,1.4-1.4h0ZM62.7,76.7h8.7c.7,0,1.4.6,1.4,1.4v7.4c0,.7-.6,1.4-1.4,1.4h-8.7c-.7,0-1.4-.6-1.4-1.4v-7.4c0-.8.6-1.4,1.4-1.4h0ZM46,76.7h8.7c.7,0,1.4.6,1.4,1.4v7.4c0,.7-.6,1.4-1.4,1.4h-8.7c-.7,0-1.4-.6-1.4-1.4v-7.4c0-.8.6-1.4,1.4-1.4h0ZM29.3,76.7h8.7c.7,0,1.4.6,1.4,1.4v7.4c0,.7-.6,1.4-1.4,1.4h-8.7c-.7,0-1.4-.6-1.4-1.4v-7.4c0-.8.6-1.4,1.4-1.4h0ZM79.4,62.8h8.7c.7,0,1.4.6,1.4,1.4v7.4c0,.8-.6,1.4-1.4,1.4h-8.7c-.7,0-1.4-.6-1.4-1.4v-7.4c0-.8.6-1.4,1.4-1.4h0ZM62.7,62.8h8.7c.7,0,1.4.6,1.4,1.4v7.4c0,.8-.6,1.4-1.4,1.4h-8.7c-.7,0-1.4-.6-1.4-1.4v-7.4c0-.8.6-1.4,1.4-1.4h0ZM46,62.8h8.7c.7,0,1.4.6,1.4,1.4v7.4c0,.8-.6,1.4-1.4,1.4h-8.7c-.7,0-1.4-.6-1.4-1.4v-7.4c0-.8.6-1.4,1.4-1.4h0ZM29.3,62.8h8.7c.7,0,1.4.6,1.4,1.4v7.4c0,.8-.6,1.4-1.4,1.4h-8.7c-.7,0-1.4-.6-1.4-1.4v-7.4c0-.8.6-1.4,1.4-1.4h0ZM79.4,48.9h8.7c.7,0,1.4.6,1.4,1.4v7.4c0,.7-.6,1.4-1.4,1.4h-8.7c-.7,0-1.4-.6-1.4-1.4v-7.4c0-.8.6-1.4,1.4-1.4h0ZM62.7,48.9h8.7c.7,0,1.4.6,1.4,1.4v7.4c0,.7-.6,1.4-1.4,1.4h-8.7c-.7,0-1.4-.6-1.4-1.4v-7.4c0-.8.6-1.4,1.4-1.4h0ZM46,48.9h8.7c.7,0,1.4.6,1.4,1.4v7.4c0,.7-.6,1.4-1.4,1.4h-8.7c-.7,0-1.4-.6-1.4-1.4v-7.4c0-.8.6-1.4,1.4-1.4h0ZM29.3,48.9h8.7c.7,0,1.4.6,1.4,1.4v7.4c0,.7-.6,1.4-1.4,1.4h-8.7c-.7,0-1.4-.6-1.4-1.4v-7.4c0-.8.6-1.4,1.4-1.4h0ZM79.4,35h8.7c.7,0,1.4.6,1.4,1.4v7.4c0,.7-.6,1.4-1.4,1.4h-8.7c-.7,0-1.4-.6-1.4-1.4v-7.4c0-.8.6-1.4,1.4-1.4h0ZM62.7,35h8.7c.7,0,1.4.6,1.4,1.4v7.4c0,.7-.6,1.4-1.4,1.4h-8.7c-.7,0-1.4-.6-1.4-1.4v-7.4c0-.8.6-1.4,1.4-1.4h0ZM46,35h8.7c.7,0,1.4.6,1.4,1.4v7.4c0,.7-.6,1.4-1.4,1.4h-8.7c-.7,0-1.4-.6-1.4-1.4v-7.4c0-.8.6-1.4,1.4-1.4h0ZM28.6,7.8h58.8c.6,0,1,.5,1,1v14.2c0,.6-.5,1-1,1H28.6c-.6,0-1-.5-1-1v-14.2c0-.6.5-1,1-1h0Z"/>
</svg>