<?xml version="1.0" encoding="UTF-8"?>
<svg id="Layer_1" data-name="Layer 1" xmlns="http://www.w3.org/2000/svg" version="1.1" viewBox="0 0 115 95">
  <defs>
    <style>
      .cls-1 {
        fill: #b58840;
        stroke-width: 0px;
      }
    </style>
  </defs>
  <path class="cls-1" d="M32.6,53.8c1.4.2,2.4,1.5,2.3,2.9-.2,1.4-1.5,2.4-2.9,2.3-1.9-.2-3.6-.7-5.2-1.3-1.6-.7-3-1.5-4.3-2.6h0c-1.2-1-2.2-2.1-3.1-3.3-2.4-3.3-3.6-7.2-3.7-11.2,0-4,1.2-8,3.9-11.2.9-1,1.9-2,3.1-2.9,1.4-1,2.9-1.8,4.7-2.5,1.2-.5,2.5-.9,3.9-1.2,1.6-6.2,4.9-10.9,9.1-14.3,4-3.1,8.8-4.9,13.7-5.4,4.9-.5,10,.4,14.5,2.5,5,2.4,9.3,6.4,12.1,11.9,1.1-.2,2.3-.3,3.4-.3,4.8,0,9.3,1.7,13,5.6.8.8,1.5,1.7,2.1,2.8,2.3,3.5,3.4,8.1,3.4,12.7,0,4.5-1.3,8.9-3.7,12.2-1.2,1.6-2.7,3-4.4,4.2-1.7,1.1-3.6,2.1-5.7,2.9-1.3.5-2.8-.2-3.3-1.6s.2-2.8,1.6-3.3c1.7-.6,3.2-1.4,4.5-2.3,1.3-.9,2.3-1.9,3.2-3,1.8-2.4,2.6-5.7,2.7-9.1,0-3.6-.8-7.2-2.5-9.8-.5-.8-1-1.4-1.6-2-2.6-2.7-5.8-4-9.2-4-2.4,0-5,.6-7.4,1.6-.5.3-1.1.5-1.6.9-1.6.9-3.2,2.1-4.8,3.4l-3.4-3.9c1.2-1.1,2.5-2.1,3.8-3,1.1-.7,2.2-1.3,3.4-1.9.5-.2.9-.5,1.4-.7-2.3-4-5.5-6.9-9.2-8.6-3.7-1.8-7.8-2.4-11.8-2.1-4,.4-7.9,1.8-11.1,4.3-3.7,2.9-6.5,7.2-7.6,12.8l-.3,1.8-1.8.3c-1.7.3-3.3.7-4.6,1.2-1.3.5-2.5,1.1-3.5,1.9-.8.6-1.5,1.3-2.1,2-1.9,2.2-2.7,5-2.7,7.9,0,2.9,1,5.8,2.7,8.2.6.9,1.4,1.7,2.2,2.4h0c.9.7,1.8,1.3,2.9,1.8,1.1.5,2.4.8,3.8,1h0ZM59.9,73.3l6-21.4h15.4l-5.4,11.2,9.1.2-22.2,29.3,4.3-19.3h-7.2ZM47.8,47.8c1,4.9,4.2,7.3,4.2,9.7s-1,4.9-4.2,4.9-4.2-2.4-4.2-4.9c0-2.4,3.1-4.9,4.2-9.7h0ZM50.6,67.5c1.2,5.6,4.8,8.4,4.8,11.2s-1.2,5.6-4.8,5.6-4.8-2.8-4.8-5.6,3.6-5.6,4.8-11.2h0ZM36.3,61.6c1.2,5.6,4.8,8.4,4.8,11.2s-1.2,5.6-4.8,5.6-4.8-2.8-4.8-5.6c0-2.8,3.6-5.6,4.8-11.2h0Z"/>
</svg>