<?xml version="1.0" encoding="UTF-8"?>
<svg id="Layer_1" data-name="Layer 1" xmlns="http://www.w3.org/2000/svg" version="1.1" viewBox="0 0 115 95">
  <defs>
    <style>
      .cls-1 {
        fill: #4c2c92;
        stroke-width: 0px;
      }
    </style>
  </defs>
  <path class="cls-1" d="M31.6,48.5c-1.2,0-2.1-1-2.1-2.3s1-2.3,2.1-2.3h18.2c1.2,0,2.1,1,2.1,2.3s-1,2.3-2.1,2.3h-18.2ZM84,16.7h7.6c1.5,0,2.9.6,3.9,1.6s1.6,2.4,1.6,3.9v64.9c0,1.5-.6,2.9-1.6,3.9-1,1-2.4,1.6-3.9,1.6h-57.4c-1.5,0-2.9-.6-3.9-1.6-1-1-1.6-2.4-1.6-3.9v-8.7h-7.6c-1.5,0-2.9-.6-3.9-1.6-1-1-1.6-2.4-1.6-3.9V8c0-1.5.6-2.9,1.6-3.9,1-1,2.4-1.6,3.9-1.6h57.4c1.5,0,2.9.6,3.9,1.6,1,1,1.6,2.4,1.6,3.9v8.7h0ZM33.5,78.3v8.7c0,.2,0,.4.2.5.1.1.3.2.5.2h57.4c.2,0,.4,0,.5-.2.1-.1.2-.3.2-.5V22.1c0-.2,0-.4-.2-.5-.1-.1-.3-.2-.5-.2h-7.6v51.5c0,1.5-.6,2.9-1.6,3.9-1,1-2.4,1.6-3.9,1.6h-45.1ZM78.6,7.2H21.1c-.2,0-.4,0-.5.2-.1.1-.2.3-.2.5v64.9c0,.2,0,.4.2.5.1.1.3.2.5.2h57.4c.2,0,.4,0,.5-.2.1-.1.2-.3.2-.5V8c0-.2,0-.4-.2-.5-.1-.1-.3-.2-.5-.2h0ZM31.6,23.5c-1.2,0-2.1-1-2.1-2.3s1-2.3,2.1-2.3h36.5c1.2,0,2.1,1,2.1,2.3s-1,2.3-2.1,2.3H31.6ZM31.6,36c-1.2,0-2.1-1-2.1-2.3s1-2.3,2.1-2.3h36.5c1.2,0,2.1,1,2.1,2.3s-1,2.3-2.1,2.3H31.6Z"/>
</svg>