<?xml version="1.0" encoding="UTF-8"?>
<svg id="Layer_1" data-name="Layer 1" xmlns="http://www.w3.org/2000/svg" version="1.1" viewBox="0 0 115 95">
  <defs>
    <style>
      .cls-1 {
        fill: #dbc021;
        fill-rule: evenodd;
        stroke-width: 0px;
      }
    </style>
  </defs>
  <path class="cls-1" d="M13.3,74.1l27-27L13.3,20c-1.6-1.6-1.6-4.2,0-5.8L24.7,2.8c1.6-1.6,4.2-1.6,5.8,0l27,27L84.6,2.8c1.6-1.6,4.2-1.6,5.8,0l11.4,11.4c1.6,1.6,1.6,4.2,0,5.8l-27,27,27,27c1.6,1.6,1.6,4.2,0,5.8l-11.4,11.4c-1.6,1.6-4.2,1.6-5.8,0l-27-27-27,27c-1.6,1.6-4.2,1.6-5.8,0l-11.4-11.4c-1.6-1.6-1.6-4.2,0-5.8h0Z"/>
</svg>