<?xml version="1.0" encoding="UTF-8"?>
<svg id="Layer_1" data-name="Layer 1" xmlns="http://www.w3.org/2000/svg" version="1.1" viewBox="0 0 115 95">
  <defs>
    <style>
      .cls-1 {
        fill: #999999;
        fill-rule: evenodd;
        stroke-width: 0px;
      }
    </style>
  </defs>
  <path class="cls-1" d="M45.2,4.3c2.4,10.1,7.4,19.1,12.7,27.3.8-1.2,1.6-2.4,2.5-3.7,4.8-6.9,10.2-14.9,12.3-24,.2-.9,1-1.4,1.9-1.2.6.1,1.1.6,1.2,1.2,2.1,9.1,7.5,17,12.3,24,4.7,6.9,8.8,12.9,8.8,18.7,0,10.6-5.9,17.4-13.4,20.4-2.6,1-5.5,1.6-8.3,1.7-3.9,35.2-60,33.9-60-3.9S39.1,30.5,45.2,4.3h0ZM59.8,34.4c7.8,11.7,15.5,21.5,15.5,30.3s0,.5,0,.7c2.4-.1,4.7-.6,6.9-1.5,6.4-2.5,11.4-8.4,11.4-17.4s-3.8-10.4-8.3-16.9c-4-5.9-8.5-12.4-11.2-19.9-2.7,7.5-7.2,14-11.2,19.9-1.1,1.6-2.2,3.2-3.2,4.8h0ZM26.9,60.3c-.1-1.7,1.1-3.2,2.8-3.3s3.2,1.1,3.3,2.8c.4,4.1,1.3,7.8,3,11,1.6,3.1,4.1,5.8,7.6,7.9,1.5.8,1.9,2.7,1.1,4.2-.9,1.5-2.7,1.9-4.2,1.1-4.6-2.7-7.8-6.2-9.9-10.3-2.1-4-3.2-8.5-3.7-13.3h0Z"/>
</svg>