<?xml version="1.0" encoding="UTF-8"?>
<svg id="Layer_1" data-name="Layer 1" xmlns="http://www.w3.org/2000/svg" version="1.1" viewBox="0 0 115 95">
  <defs>
    <style>
      .cls-1 {
        fill: #999999;
        stroke-width: 0px;
      }
    </style>
  </defs>
  <path class="cls-1" d="M16.7,48.4c2.1,1.8,4.1,3.6,6.2,5.2,2.7-4.2,5.7-8,9-11.4-.6-1.2-1-2.5-1-3.9s0-1.4.2-2c-3.4-2.2-6.9-4.6-10.5-7.4-2.7,5.5-4.2,11.7-4.2,18.3h0s0,0,0,0c0,.4,0,.9,0,1.3l.2-.2h0ZM22.7,25.3c3.6,2.7,7.1,5.2,10.5,7.4,1.5-1.6,3.6-2.6,6-2.6s3.6.6,5,1.7c1-.7,2-1.3,3-1.9,4.3-2.5,8.9-4.6,13.8-6.1,0-.3,0-.7,0-1,0-1.3.3-2.5.7-3.5-5-4.3-11-8-17.8-11.4-5.7,2.1-10.8,5.5-15.1,9.7-2.3,2.3-4.4,4.9-6.1,7.8h0ZM49.7,6.2c5.4,2.9,10.2,6.1,14.5,9.7,1.4-1.2,3.2-2.1,5.2-2.2.4-2.2.9-4.4,1.3-6.6-3.8-1.1-7.8-1.7-12-1.7h0s0,0,0,0h0c-3.1,0-6,.3-8.9.9h0ZM74.5,8.4c-.3,2-.7,3.9-1.1,5.8,2.8,1,4.9,3.4,5.7,6.2,3.7-.3,7.6-.3,11.7-.2-.8-.9-1.6-1.8-2.4-2.7-3.9-3.9-8.6-7-13.8-9.2h0ZM93.9,24.5c-5.2-.4-10.1-.4-14.7,0-.4,2-1.4,3.7-2.8,5.1,1.2,1.9,2.3,3.8,3.3,5.9,1.4,2.9,2.6,6,3.6,9.3.3,0,.6,0,.9,0,3.7,0,6.8,2.4,7.9,5.8,2.7,0,5.5.1,8.5.2,0-1.1.1-2.2.1-3.3h0s0,0,0,0c0-8.4-2.5-16.2-6.7-22.7h0ZM99.9,54.7c-2.7,0-5.2,0-7.7-.1-.7,3.2-3.2,5.7-6.4,6.4.1,3.8,0,7.9-.4,12.1,2.4-.2,4.8-.6,7.2-1,3.7-5,6.2-10.9,7.4-17.3h0ZM94.9,75.7h0s0,0,0,0c-1.1,1.5-2.4,2.8-3.7,4.2-8.4,8.4-19.9,13.5-32.7,13.5h0s0,0,0,0h0c-12.8,0-24.3-5.2-32.7-13.5-8.4-8.4-13.5-19.9-13.5-32.7h0s0,0,0,0c0-12.8,5.2-24.3,13.5-32.7C34.2,6.3,45.8,1.1,58.5,1.1h0s0,0,0,0h0c12.8,0,24.3,5.2,32.7,13.5,8.4,8.4,13.5,19.9,13.5,32.7h0s0,0,0,0c0,10.7-3.7,20.6-9.8,28.4h0ZM88.5,76.8c-1.2.2-2.4.3-3.6.4-.1,1.1-.3,2.1-.5,3.2,1.4-1.1,2.7-2.2,3.9-3.4l.2-.2h0ZM79.6,83.7c.4-2.1.8-4.1,1.1-6.1-7.5.4-14.7-.2-21.7-1.6-1.4,1.6-3.4,2.6-5.7,2.6s-.3,0-.5,0c-1.3,3.4-2.6,6.6-3.8,9.7,3.1.7,6.2,1.1,9.5,1.1h0s0,0,0,0h0c7.7,0,14.8-2,21-5.6h0ZM45.1,87.1c1.3-3.4,2.6-6.7,3.8-10-1.6-1.2-2.8-3-3-5.2-7.5-3-14.7-7.1-21.9-12.3-1.1,1.9-2.2,3.9-3.3,6,2.1,4.2,4.8,8.1,8.1,11.3,4.5,4.5,10.1,8,16.2,10.1h0ZM18.7,60.7c.7-1.2,1.3-2.4,2-3.6-1.2-1-2.4-2-3.7-3,.4,2.2.9,4.4,1.6,6.6h0ZM46.7,35c.4,1,.7,2.1.7,3.3s-.1,1.6-.3,2.3c4.5,2.2,9,3.9,13.5,5.2,1.6-4.9,3.2-10,4.7-15.3-1.2-.7-2.1-1.7-2.9-2.9-4.7,1.5-9.1,3.4-13.1,5.8-.9.5-1.7,1-2.6,1.6h0ZM45,44.2c-1.5,1.5-3.5,2.4-5.8,2.4s-3.2-.5-4.5-1.3c-3.1,3.3-5.9,6.9-8.5,10.9,6.7,5,13.5,8.9,20.4,11.7,1.2-2.4,3.7-4.1,6.6-4.1s.6,0,.8,0c1.7-4.5,3.5-9.2,5.1-14-4.8-1.4-9.5-3.3-14.3-5.6h0ZM72.8,31.6c-.8.2-1.7.4-2.6.4s-.7,0-1,0c-1.4,5.2-3,10.2-4.6,15.1,3.9,1,8,1.7,12.2,2.3.6-1.2,1.5-2.3,2.6-3.1-.9-3.1-2-6.1-3.4-8.9-1-1.9-2-3.8-3.2-5.6h0ZM81.6,60.7c-3.2-1-5.6-3.9-5.7-7.4-4.4-.6-8.6-1.4-12.7-2.4-1.7,5-3.5,9.8-5.3,14.5,1.7,1.4,2.8,3.4,2.8,5.8s0,.6,0,.9c6.6,1.3,13.4,1.8,20.5,1.3.5-4.4.6-8.6.4-12.6h0Z"/>
</svg>