<?xml version="1.0" encoding="UTF-8"?>
<svg id="Layer_1" data-name="Layer 1" xmlns="http://www.w3.org/2000/svg" version="1.1" viewBox="0 0 115 95">
  <defs>
    <style>
      .cls-1 {
        fill: #999999;
        fill-rule: evenodd;
        stroke-width: 0px;
      }
    </style>
  </defs>
  <path class="cls-1" d="M12.6,69.7c0-3,1-5.6,3.1-7.8,2-2.2,4.5-3.2,7.4-3.2s5.4,1.1,7.4,3.2c2,2.1,3.1,4.7,3.1,7.8s-1,5.6-3.1,7.8c-2,2.1-4.5,3.2-7.4,3.2s-5.4-1.1-7.4-3.2c-2.1-2.1-3.1-4.7-3.1-7.8h0ZM22.3,29.5v16.3H1.4v-16.3h20.9ZM26.1,29.5v16.3s20.9,0,20.9,0v-16.3s-20.9,0-20.9,0h0ZM50.8,29.5v16.3s20.9,0,20.9,0v-16.3s-20.9,0-20.9,0h0ZM22.3,26.6V10.3s-20.9,0-20.9,0v16.3s20.9,0,20.9,0h0ZM26.1,26.6V10.3h20.9v16.3h-20.9s0,0,0,0ZM50.8,26.6V10.3h20.9v16.3h-20.9ZM22.6,66.2c1.9,0,3.5,1.6,3.5,3.5,0,1.9-1.6,3.5-3.5,3.5s-3.5-1.6-3.5-3.5,1.6-3.5,3.5-3.5h0ZM89.1,66.2c1.9,0,3.5,1.6,3.5,3.5s-1.6,3.5-3.5,3.5-3.5-1.6-3.5-3.5,1.6-3.5,3.5-3.5h0ZM78.7,69.7c0-3,1-5.6,3.1-7.8,2-2.2,4.5-3.2,7.4-3.2s5.4,1.1,7.4,3.2c2,2.1,3.1,4.7,3.1,7.8s-1,5.6-3.1,7.8-4.5,3.2-7.4,3.2-5.4-1.1-7.4-3.2c-2-2.1-3.1-4.7-3.1-7.8h0ZM1.9,75.4v-25.8h70.3v25.8h-36.1c.7-1.8,1-3.7,1-5.7,0-4.1-1.4-7.7-4.2-10.6-2.8-3-6.1-4.4-10.1-4.4s-7.3,1.4-10.1,4.4c-2.8,2.9-4.2,6.5-4.2,10.6s.3,4,1,5.7H1.9s0,0,0,0ZM74.9,59.7V17.5h14.8c2.7,0,4.6,1.3,5.7,3.8l7.7,16h3c5.3,0,8,2.1,8,6.2,0,10.6,0,21.3,0,31.9h-11.4c.3-1.3.8-4.3.8-5.7,0-4.2-1.4-7.7-4.2-10.6-2.8-3-6.2-4.4-10.1-4.4s-7.3,1.5-10.1,4.4c-.6.6-1.1,1.3-1.6,2l-2.6-1.3h0ZM79.8,44.5h0s20.2,0,20.2,0l-7-18.4h-13.2s0,18.4,0,18.4h0Z"/>
</svg>