<?xml version="1.0" encoding="UTF-8"?>
<svg id="Layer_1" data-name="Layer 1" xmlns="http://www.w3.org/2000/svg" version="1.1" viewBox="0 0 115 95">
  <defs>
    <style>
      .cls-1 {
        fill: #1ab198;
        stroke-width: 0px;
      }
    </style>
  </defs>
  <path class="cls-1" d="M31.4,58.3c1.3,1.5,1.2,3.7-.3,5-1.5,1.3-3.7,1.2-5-.3h0c-8.5-9.6-12.8-19.7-12.6-30.1.2-10.1,4.6-20.1,13.6-29.7,1.4-1.4,3.7-1.4,5.1,0,1.3,1.3,1.4,3.4.1,4.8-7.7,8.2-11.5,16.7-11.7,24.9-.1,8.5,3.6,17,10.8,25.2ZM61.6,40.9v47.9c0,1.8-1.5,3.3-3.3,3.3s-3.3-1.5-3.3-3.3v-47.9c-4.3-1.8-6.3-6.8-4.4-11.1,1.8-4.3,6.8-6.3,11.1-4.4,4.3,1.8,6.3,6.8,4.4,11.1-.9,2-2.4,3.6-4.4,4.4ZM77.5,51.3c-1.2,1.5-3.5,1.8-5,.5-1.5-1.2-1.8-3.5-.5-5,3.6-4.4,5.4-9.1,5.5-13.7s-1.7-9.1-5.4-13.6c-1.2-1.5-1-3.8.5-5,1.5-1.2,3.8-1,5,.5,4.7,5.8,7,11.9,7,18.1,0,6.3-2.4,12.5-7.1,18.2ZM44.6,46.8c1.2,1.5,1,3.8-.5,5s-3.8,1-5-.5c-4.6-5.7-7-11.9-7.1-18.2,0-6.2,2.2-12.3,7-18.1,1.2-1.6,3.4-1.9,5-.7,1.6,1.2,1.9,3.4.7,5,0,0-.1.1-.2.2-3.7,4.4-5.4,9-5.4,13.6s1.9,9.3,5.5,13.7ZM90.6,63c-1.3,1.5-3.6,1.6-5,.3-1.5-1.3-1.6-3.6-.3-5h0c7.3-8.2,11-16.7,10.8-25.2-.1-8.3-3.9-16.7-11.7-24.9-1.4-1.4-1.4-3.7,0-5.1,1.4-1.4,3.7-1.4,5.1,0,0,0,.1.1.2.2,9,9.6,13.5,19.6,13.6,29.7.2,10.3-4.2,20.5-12.6,30.1h0Z"/>
</svg>