<?xml version="1.0" encoding="UTF-8"?>
<svg id="Layer_1" data-name="Layer 1" xmlns="http://www.w3.org/2000/svg" version="1.1" viewBox="0 0 115 95">
  <defs>
    <style>
      .cls-1 {
        fill: #999999;
        fill-rule: evenodd;
        stroke-width: 0px;
      }
    </style>
  </defs>
  <path class="cls-1" d="M70.9,21.6c2.4,1.4,4.5,3.2,6.3,5.2,1.8,2,3.2,4.3,4.3,6.9h0c.6,1.4,1,2.9,1.4,4.4.8,3.4.8,6.9.2,10.4-.4,1.8-.9,3.7-1.6,5.4v.2c-1.6,3.7-4.2,7.3-6.7,10.8-1.3,1.8-2.6,3.6-3.6,5.3-.7,1.1-1.9,1.7-3.2,1.6l-20.3,3c-1.7.3-3.4-.8-3.9-2.5-.5-1.5-1.1-2.9-1.9-4.3-.6-1.2-1.4-2.3-2.2-3.3-1-1.2-2.1-2.4-3.2-3.8-1.2-1.6-2.2-3.3-3.1-5.1h0c-.9-1.9-1.6-3.9-2.1-5.9-.5-2-.7-4.1-.7-6.2h0c0-2.2.3-4.3.9-6.5.6-2.3,1.4-4.5,2.5-6.5v-.3c1.5-2.4,3.3-4.6,5.4-6.4,2.1-1.8,4.4-3.3,7-4.3h.2c1.9-.8,3.9-1.4,5.9-1.7,2.1-.3,4.3-.4,6.5-.1,2.1.2,4.2.6,6.2,1.3,2,.6,3.9,1.5,5.8,2.6ZM68,86.1c-1.1,1.9-2.7,3.5-4.6,4.6-1.6.9-3.4,1.5-5.3,1.6-1.9.1-3.8-.2-5.5-1.1-1.2-.6-2.3-1.4-3.2-2.4l18.6-2.8ZM69.8,75.7v1.6c0,.8,0,1.6,0,2.4l-.4,1.8-22.6,3.4-.4-.9-.9-3.6v-1l24.2-3.6h0ZM56.5,4.3c0-1.6,1.3-2.8,2.9-2.8h.2c.7,0,1.3.4,1.8.9.5.5.8,1.2.8,2h0s0,0,0,.1l-.2,6.1h0c0,0,0,.1,0,.2-.1,1.5-1.4,2.6-2.9,2.6h-.2c-.7,0-1.3-.4-1.8-.9-.5-.5-.8-1.3-.8-2h0s0,0,0-.1v-6.1c.1,0,.1,0,.1,0ZM25.3,15c-.5-.5-.9-1.2-.9-2,0-1.6,1.1-2.9,2.7-3,0,0,0,0,0,0,.7,0,1.5.2,2,.7l4.5,4.2c1.1,1.1,1.2,2.9.2,4-.5.5-1.2.9-2,.9-.7,0-1.5-.2-2-.7l-4.5-4.2ZM17.9,46.2c-1.6,0-2.9-1.2-3-2.7,0,0,0,0,0,0,0-.7.2-1.5.7-2,.5-.5,1.2-.9,2-.9l6.2-.2c1.6,0,2.9,1.1,3,2.7,0,0,0,0,0,0h0c0,.8-.3,1.5-.7,2-.5.5-1.3.9-2,.9h-.1l-6.1.2h0ZM96,37.4h0c.7,0,1.4.2,2,.6.6.5,1,1.2,1,1.9h0c0,1.6-1,2.9-2.5,3l-6.2.7c-1.6.2-2.9-1-3.1-2.5-.2-1.6,1-3,2.5-3.1,2.1-.2,4.1-.5,6.2-.7h0ZM83.8,12.7c.9-1.3,2.6-1.7,3.9-.8,0,0,0,0,0,0h0c.6.4,1.1,1.1,1.2,1.8.1.7,0,1.5-.4,2.1l-3.5,5.2c-.9,1.3-2.6,1.6-3.9.8-1.3-.9-1.6-2.6-.8-3.9l3.5-5.2h0ZM60.3,42.2h4.4c.6,0,1.1.5,1.1,1.1h0c0,.2,0,.4-.2.6l-10.4,17.7c-.3.5-1,.7-1.6.4,0,0,0,0,0,0-.4-.2-.6-.7-.5-1.2l1.5-10.9h-5.2c-.6.1-1.1-.4-1.2-1,0,0,0,0,0,0,0-.2,0-.4.2-.6l10.2-17.7c.3-.5,1-.7,1.6-.4.4.2.6.7.6,1.1l-.5,10.8h0Z"/>
</svg>