<?xml version="1.0" encoding="UTF-8"?>
<svg id="Layer_1" data-name="Layer 1" xmlns="http://www.w3.org/2000/svg" version="1.1" viewBox="0 0 115 95">
  <defs>
    <style>
      .cls-1 {
        fill: #80224d;
        fill-rule: evenodd;
        stroke-width: 0px;
      }
    </style>
  </defs>
  <path class="cls-1" d="M75.9,85.6l3.7-18.7,3.7,5.6c8-3.2,12.5-8.5,13.2-16.7,6.6,11.5,2.6,21.9-5.8,27.9l3.8,5.7-18.7-3.9h0ZM16.3,66.5L69.3,13.6l27.5,27.5-52.9,52.9-27.5-27.5h0ZM48.5,45.7c4.5-4.5,11.7-4.5,16.2,0,4.5,4.5,4.5,11.7,0,16.2-4.5,4.5-11.7,4.5-16.2,0-4.5-4.5-4.5-11.7,0-16.2h0ZM29.4,61.9l35.2-35.2c2.2,2.2,5.9,2.2,8.1,0l10.9,10.9c-2.2,2.2-2.2,5.9,0,8.1l-35.2,35.2c-2.2-2.2-5.9-2.2-8.1,0l-10.9-10.9c2.2-2.2,2.2-5.9,0-8.1h0ZM52.6,4.8l-3.7,18.7-3.7-5.6c-8,3.2-12.5,8.5-13.2,16.7-6.6-11.5-2.6-21.9,5.8-27.9l-3.8-5.7,18.6,3.9h0Z"/>
</svg>