<svg xmlns="http://www.w3.org/2000/svg" width="405" height="99" viewBox="0 0 405 99"><defs><clipPath id="a"><path d="M0 0h405v99H0z"/></clipPath></defs><g clip-path="url(#a)"><path d="M0 2.5h157.4v94H0z" fill="#fff"/><path d="M366.7 73.9a5.164 5.164 0 0 1-3 1.7v.4h3.2v15.6a7.49 7.49 0 0 0 .8 4c.5.7 1.6 1.1 3.2 1.1a9.148 9.148 0 0 0 6-2.1l-.2-.3c-.7.6-2.1 1-4.2 1a2.4 2.4 0 0 1-1.9-.6 4.432 4.432 0 0 1-.5-2.5V76h6.4v-1.2h-6.4v-6h-.5l-.5 1.5a13.312 13.312 0 0 1-2.4 3.6m-21.8.9l-3.1 1h-.1c.2 0 .3 0 .4.2a2.151 2.151 0 0 1 .2 1c.1.8.1 2.3.1 4.8v8.5c0 4-.2 6-.7 6h-.1v.1h4.6v-.1c-.4 0-.7-2-.7-6V77.8a15.831 15.831 0 0 1 6.1-1.1c3 0 4.5 1.8 4.5 5.5v8.1c0 4-.2 6-.7 6v.1h4.6v-.1h-.1c-.4 0-.7-2-.7-6v-8.5c0-4.8-1.7-7.3-5.2-7.3-2.1 0-4.9 1-8.5 2.9v-2.6zM333.8 77a5.152 5.152 0 0 1 1.3 3.9 1.777 1.777 0 0 1-.4 1 1.05 1.05 0 0 1-.9.5l-9.5.5a11.113 11.113 0 0 1 2-5.3 4.881 4.881 0 0 1 3.9-2 4.469 4.469 0 0 1 3.6 1.4M332 94.8a7.167 7.167 0 0 1-6.2-3.2 12.4 12.4 0 0 1-1.7-8.2h13.8a9.221 9.221 0 0 0-2.1-6.3 6.911 6.911 0 0 0-5.5-2.4 8.45 8.45 0 0 0-6.9 3.2 13.457 13.457 0 0 0-2.6 8.5 11.772 11.772 0 0 0 2.3 7.5 7.733 7.733 0 0 0 6.2 2.8 15.071 15.071 0 0 0 4.8-.7 9.867 9.867 0 0 0 3.7-1.9l-.3-.4c-.7.7-2.6 1.1-5.5 1.1m-20.2 1.6h4.6v-.1q-.6 0-.6-6v-8.5a7.883 7.883 0 0 0-1.6-5.2 4.669 4.669 0 0 0-4-2c-1.7 0-4.8 1.2-9.3 3.5a5.7 5.7 0 0 0-1.9-2.6 4.678 4.678 0 0 0-2.8-.9c-2.3 0-5.2 1-8.8 2.9v-2.7h-.7l-3.1 1c.1 0 .3 0 .3.2a5.628 5.628 0 0 1 .2 1c0 .5.1 1.1.1 1.8v11.4c0 4-.2 6-.7 6h-.1v.1h4.6v-.1c-.4 0-.7-2-.7-6V77.8a14.506 14.506 0 0 1 6.3-1.3 4.122 4.122 0 0 1 3.4 1.6 5.941 5.941 0 0 1 1.3 4.1v8.1c0 4-.2 6-.7 6h-.1v.1h4.6v-.1h-.1c-.4 0-.7-2-.7-6v-8.5a11.27 11.27 0 0 0-.5-3.2 13.7 13.7 0 0 1 6.7-1.9 4.691 4.691 0 0 1 3.5 1.5 5.721 5.721 0 0 1 1.4 4v8.1q0 6-.6 6h-.1v.1zm-42.3-22.5a5.164 5.164 0 0 1-3 1.7v.4h3.2v15.6a7.49 7.49 0 0 0 .8 4c.5.7 1.6 1.1 3.2 1.1a9.148 9.148 0 0 0 6-2.1l-.2-.3c-.7.6-2.1 1-4.2 1a2.4 2.4 0 0 1-1.9-.6 4.432 4.432 0 0 1-.5-2.5V76h6.4v-1.2h-6.4v-6h-.5l-.5 1.5a11.349 11.349 0 0 1-2.4 3.6m-20.2 19.5l-.1-.2v1.9a13.684 13.684 0 0 0 7 1.6 7.652 7.652 0 0 0 5.2-1.8 5.974 5.974 0 0 0 2-4.6 4.851 4.851 0 0 0-1.4-3.2 11.624 11.624 0 0 0-3.7-2.6 13.656 13.656 0 0 1-4.3-2.6c-1.1-1-1.7-1.9-1.7-2.7a3.847 3.847 0 0 1 1.2-2.9 4.317 4.317 0 0 1 3.2-1.1c.9 0 2.5.7 5 2.1.4.5.6.7.6.8v-1.7a11.712 11.712 0 0 0-5.6-1.8 7.331 7.331 0 0 0-5 1.6 5.216 5.216 0 0 0-1.9 4.2 5.453 5.453 0 0 0 1.7 3.5 11.317 11.317 0 0 0 4.5 2.9 12.479 12.479 0 0 1 3.4 2.2 3.6 3.6 0 0 1 1.3 2.5 4.377 4.377 0 0 1-1.2 3.2 4.143 4.143 0 0 1-3.1 1.2 13.018 13.018 0 0 1-6.2-1.6 3.819 3.819 0 0 1-.9-.9M242 77a5.152 5.152 0 0 1 1.3 3.9 1.777 1.777 0 0 1-.4 1 1.05 1.05 0 0 1-.9.5l-9.5.5a11.114 11.114 0 0 1 2-5.3 4.881 4.881 0 0 1 3.9-2A4.232 4.232 0 0 1 242 77m-1.7 17.8a7.167 7.167 0 0 1-6.2-3.2 12.4 12.4 0 0 1-1.7-8.2h13.8a9.221 9.221 0 0 0-2.1-6.3 6.911 6.911 0 0 0-5.5-2.4 8.45 8.45 0 0 0-6.9 3.2 13.457 13.457 0 0 0-2.6 8.5 11.772 11.772 0 0 0 2.3 7.5 7.733 7.733 0 0 0 6.2 2.8 15.071 15.071 0 0 0 4.8-.7 9.866 9.866 0 0 0 3.7-1.9l-.3-.4c-.7.7-2.6 1.1-5.5 1.1m-23 2.1l6.6-16.8c1.4-3.4 2.3-5.1 2.8-5.1v-.2h-2.5v.1h.1c.4 0-.2 2-1.6 5.9l-4.4 12-4.4-12c-.7-1.9-1.2-3.3-1.5-4.3s-.3-1.6-.2-1.6h.1v-.1h-5.1v.1c.4 0 1.3 1.5 2.5 4.4l7 17.5h.6zM189 74.8l-3.1 1h-.1c.2 0 .3 0 .4.2a2.151 2.151 0 0 1 .2 1c.1.7.1 2.2.1 4.7v8.5c0 4-.2 6-.7 6h-.1v.1h4.6v-.1c-.4 0-.7-2-.7-6V77.8a15.831 15.831 0 0 1 6.1-1.1c3 0 4.5 1.8 4.5 5.5v8.1c0 4-.2 6-.7 6v.1h4.6v-.1h-.1c-.4 0-.7-2-.7-6v-8.5c0-4.8-1.7-7.3-5.2-7.3-2.1 0-4.9 1-8.5 2.9v-2.6zm-9.7 15.5V74c0-4 .2-6 .7-6h.1v-.1h-4.7v.1h.1c.4 0 .7 2 .7 6v16.3c0 4-.2 6-.7 6h-.1v.1h4.7v-.1h-.1c-.5 0-.7-2-.7-6M323.1 39.3a2.271 2.271 0 0 0 1.6-.6 2.175 2.175 0 0 0 0-3 2.111 2.111 0 0 0-1.6-.6 2.051 2.051 0 0 0-2.1 2.1 1.887 1.887 0 0 0 .6 1.5 1.755 1.755 0 0 0 1.5.6zM404 63.8c-.4 0-.7-2-.7-6v-25h-.7l-3.3 1.1c.4 0 .6.3.6 1 .1.6.1 2.3.1 4.9v18.1c0 4-.2 6-.7 6h.1v.1h4.6zM324.8 57.9V42.4h-.6l-3.3 1.1c.4 0 .5.3.6 1 .1.6.1 2.3.1 4.9v8.5q0 6-.6 6h-.1v.1h4.6v-.2h-.1c-.3 0-.6-2-.6-5.9zM312.2 62.8a2.4 2.4 0 0 1-1.9-.6 4.432 4.432 0 0 1-.5-2.5V43.6h6.4v-1.2h-6.4v-6.1h-.5l-.5 1.5a10.58 10.58 0 0 1-2.3 3.7 5.164 5.164 0 0 1-3 1.7v.4h3.2v15.6a7.49 7.49 0 0 0 .8 4c.5.7 1.6 1.1 3.2 1.1a9.148 9.148 0 0 0 6-2.1l-.3-.4c-.7.6-2.1 1-4.2 1zM299.1 62.9c-1.1 0-1.7-.9-1.7-2.7V48.5a6.7 6.7 0 0 0-1.5-4.6 4.952 4.952 0 0 0-4-1.7 12.611 12.611 0 0 0-5.7 1.2 4.865 4.865 0 0 0-2.7 3.3h3.1a4.694 4.694 0 0 1 1.6-2.7 4.271 4.271 0 0 1 2.9-1 2.514 2.514 0 0 1 2.2 1.3 7.244 7.244 0 0 1 .8 3.5v5.7c-1.1 0-2.3 0-3.5.1h-.8a7.628 7.628 0 0 0-5.1 2c-1.5 1.3-2.3 2.6-2.3 3.9a4.441 4.441 0 0 0 1.4 3.4 4.835 4.835 0 0 0 3.6 1.3 10.081 10.081 0 0 0 6.7-2.7c.2 1.9 1.2 2.9 2.8 2.9a6.771 6.771 0 0 0 4.7-1.7l-.4-.4a2.928 2.928 0 0 1-2.1.6zm-5-2.3v.2a9.333 9.333 0 0 1-5 1.3 3.174 3.174 0 0 1-2.5-1 3.552 3.552 0 0 1-1-2.5 3.482 3.482 0 0 1 1.2-2.5 6.136 6.136 0 0 1 3.1-1.6 36.78 36.78 0 0 1 4.3-.3v6.4zM372.2 57.9v-8.5c0-4.8-1.7-7.3-5.2-7.3-2.1 0-4.9 1-8.5 2.9v-2.7h-.7l-3.1 1h-.1c.2 0 .3 0 .4.2a2.151 2.151 0 0 1 .2 1c.1.7.1 2.2.1 4.7v8.5c0 4-.2 6-.7 6h-.1v.1h4.6c-.4 0-.7-2-.7-6V45.4a15.831 15.831 0 0 1 6.1-1.1c3 0 4.5 1.8 4.5 5.5v8.1c0 4-.2 6-.7 6v.1h4.6v-.2h-.1c-.4 0-.6-2-.6-5.9zM278.9 57.9v-8.5c0-4.8-1.7-7.3-5.2-7.3-2.1 0-4.9 1-8.5 2.9v-2.7h-.7l-3.1 1h-.1c.2 0 .3 0 .4.2a2.151 2.151 0 0 1 .2 1c.1.7.1 2.2.1 4.7v8.5c0 4-.2 6-.7 6h-.1v.1h4.6c-.4 0-.7-2-.7-6V45.4a15.831 15.831 0 0 1 6.1-1.1c3 0 4.5 1.8 4.5 5.5v8.1c0 4-.2 6-.7 6v.1h4.6v-.2h-.1c-.4 0-.6-2-.6-5.9zM340.3 42.1a10.247 10.247 0 0 0-7.8 3.1 11.219 11.219 0 0 0-2.9 8 11.219 11.219 0 0 0 2.9 8 10.552 10.552 0 0 0 7.8 3 10.167 10.167 0 0 0 7.7-3 11.219 11.219 0 0 0 2.9-8 11.219 11.219 0 0 0-2.9-8 10.081 10.081 0 0 0-7.7-3.1zm5.2 18.5a6.229 6.229 0 0 1-10.4 0 13.046 13.046 0 0 1-2-7.5 13.046 13.046 0 0 1 2-7.5 6.147 6.147 0 0 1 5.2-2.9 6.025 6.025 0 0 1 5.2 2.9 13.046 13.046 0 0 1 2 7.5 12.61 12.61 0 0 1-2 7.5zM254.5 42.1a6.726 6.726 0 0 0-3.1.9 10.012 10.012 0 0 0-3 2.5v-3.2h-.7l-3.1 1c.1 0 .3 0 .3.2a5.627 5.627 0 0 1 .2 1c0 .5.1 1.1.1 1.8v11.4c0 4-.2 6-.7 6h-.1v.1h4.6c-.4 0-.7-2-.7-6V46a4.852 4.852 0 0 1 3.5-1.5 6.623 6.623 0 0 1 2.3.7 8.458 8.458 0 0 0 2.3.6 1.5 1.5 0 0 0 1.1-.4 1.366 1.366 0 0 0 .4-1.1c.1-1.5-1-2.2-3.4-2.2zM216.5 62.8a2.4 2.4 0 0 1-1.9-.6 4.432 4.432 0 0 1-.5-2.5V43.6h6.4v-1.2h-6.4v-6.1h-.5l-.5 1.5a10.58 10.58 0 0 1-2.3 3.7 5.164 5.164 0 0 1-3 1.7v.4h3.2v15.6a7.49 7.49 0 0 0 .8 4c.5.7 1.6 1.1 3.2 1.1a9.148 9.148 0 0 0 6-2.1l-.2-.3a8.327 8.327 0 0 1-4.3.9zM203.3 57.9v-8.5c0-4.8-1.7-7.3-5.2-7.3-2.1 0-4.9 1-8.5 2.9v-2.7h-.7l-3.1 1h-.1c.2 0 .3 0 .4.2a2.151 2.151 0 0 1 .2 1c.1.7.1 2.2.1 4.7v8.5c0 4-.2 6-.7 6h-.1v.1h4.6c-.4 0-.7-2-.7-6V45.4a15.83 15.83 0 0 1 6.1-1.1c3 0 4.5 1.8 4.5 5.5v8.1c0 4-.2 6-.7 6v.1h4.6v-.2h-.1c-.3 0-.6-2-.6-5.9zM393.7 62.9c-1.1 0-1.7-.9-1.7-2.7V48.5a6.3 6.3 0 0 0-1.6-4.6 4.952 4.952 0 0 0-4-1.7 12.611 12.611 0 0 0-5.7 1.2 4.617 4.617 0 0 0-2.7 3.3h3.1a4.694 4.694 0 0 1 1.6-2.7 4.271 4.271 0 0 1 2.9-1 2.514 2.514 0 0 1 2.2 1.3 7.244 7.244 0 0 1 .8 3.5v5.7c-1.1 0-2.3 0-3.5.1h-.7a7.628 7.628 0 0 0-5.1 2c-1.5 1.3-2.3 2.6-2.3 3.9a4.441 4.441 0 0 0 1.4 3.4 4.835 4.835 0 0 0 3.6 1.3 10.081 10.081 0 0 0 6.7-2.7c.2 1.9 1.2 2.9 2.8 2.9a6.771 6.771 0 0 0 4.7-1.7l-.4-.4a2.769 2.769 0 0 1-2.1.6zm-5-2.3v.2a9.333 9.333 0 0 1-5 1.3 3.418 3.418 0 0 1-3.5-3.5 3.482 3.482 0 0 1 1.2-2.5 7.026 7.026 0 0 1 3.1-1.6 36.78 36.78 0 0 1 4.3-.3v6.4zM175.3 35.5c.5 0 .8 2 .8 6v16.3c0 4-.2 6-.7 6h-.1v.1h4.7v-.1h-.1c-.4 0-.7-2-.7-6V41.5c0-4 .2-6 .7-6h.1v-.1h-4.7zM240.9 50.9a9.221 9.221 0 0 0-2.1-6.3 6.911 6.911 0 0 0-5.5-2.4 8.45 8.45 0 0 0-6.9 3.2 13.457 13.457 0 0 0-2.6 8.5 11.772 11.772 0 0 0 2.3 7.5 7.733 7.733 0 0 0 6.2 2.8 15.071 15.071 0 0 0 4.8-.7 9.866 9.866 0 0 0 3.7-1.9l-.3-.4c-.8.7-2.7 1.1-5.6 1.1a7.167 7.167 0 0 1-6.2-3.2 12.4 12.4 0 0 1-1.7-8.2zm-11.7-6a4.923 4.923 0 0 1 7.5-.5 5.152 5.152 0 0 1 1.3 3.9 1.777 1.777 0 0 1-.4 1 1.05 1.05 0 0 1-.9.5l-9.5.5a10.545 10.545 0 0 1 2-5.4zM245.6 6.5a2.271 2.271 0 0 0 1.6-.6 2.035 2.035 0 0 0 .6-1.5 2.035 2.035 0 0 0-.6-1.5 2.111 2.111 0 0 0-1.6-.6 2.051 2.051 0 0 0-2.1 2.1 1.887 1.887 0 0 0 .6 1.5 2.035 2.035 0 0 0 1.5.6zM219.1 6.5a1.887 1.887 0 0 0 1.5-.6 2.035 2.035 0 0 0 .6-1.5 2.1 2.1 0 1 0-4.2 0 1.887 1.887 0 0 0 .6 1.5 1.755 1.755 0 0 0 1.5.6zM221.1 25V9.5h-.6l-3.3 1.1c.4 0 .5.3.6 1 .1.6.1 2.3.1 4.9V25q0 6-.6 6h-.1v.1h4.6V31h-.1q-.6 0-.6-6zM288.3 25v-8.5c0-4.8-1.7-7.3-5.2-7.3-2 0-4.9 1-8.5 2.9V0h-.6l-3.1 1 .2.1c.2.2.4 2.2.4 5.8V25c0 4-.2 6-.7 6v.1h4.6V31h-.1c-.4 0-.7-2-.7-6V12.5a15.831 15.831 0 0 1 6.1-1.1c3 0 4.5 1.8 4.5 5.5V25c0 4-.2 6-.7 6h-.1v.1h4.6V31h-.1q-.6 0-.6-6zM261.8 19.2a13.656 13.656 0 0 1-4.3-2.6c-1.1-1-1.7-1.9-1.7-2.7A3.847 3.847 0 0 1 257 11a4.771 4.771 0 0 1 3.2-1.1c.9 0 2.5.7 5 2.1.4.5.6.7.6.8v-1.7a11.712 11.712 0 0 0-5.6-1.8 7.331 7.331 0 0 0-5 1.6 5.216 5.216 0 0 0-1.9 4.2 5.453 5.453 0 0 0 1.7 3.5 11.317 11.317 0 0 0 4.5 2.9 12.479 12.479 0 0 1 3.4 2.2 3.6 3.6 0 0 1 1.3 2.5 4.377 4.377 0 0 1-1.2 3.2 4.143 4.143 0 0 1-3.1 1.2 13.018 13.018 0 0 1-6.2-1.6 3.018 3.018 0 0 1-.8-.8l-.1-.2v1.8a13.684 13.684 0 0 0 7 1.6 7.652 7.652 0 0 0 5.2-1.8 5.974 5.974 0 0 0 2-4.6 4.851 4.851 0 0 0-1.4-3.2 11.642 11.642 0 0 0-3.8-2.6zM209.9 9.3a6.726 6.726 0 0 0-3.1.9 10.011 10.011 0 0 0-3 2.5V9.5h-.7l-3.1 1c.1 0 .3 0 .3.2a5.627 5.627 0 0 1 .2 1c0 .5.1 1.1.1 1.8v11.4c0 4-.2 6-.7 6h-.1v.1h4.6v-.1c-.4 0-.7-2-.7-6V13.2a4.852 4.852 0 0 1 3.5-1.5 6.623 6.623 0 0 1 2.3.7 8.458 8.458 0 0 0 2.3.6 1.5 1.5 0 0 0 1.1-.4 1.366 1.366 0 0 0 .4-1.1c.1-1.5-1.1-2.2-3.4-2.2zM235 29.9a2.4 2.4 0 0 1-1.9-.6 4.432 4.432 0 0 1-.5-2.5V10.7h6.4V9.5h-6.4v-6h-.5l-.5 1.5a10.58 10.58 0 0 1-2.3 3.7 5.164 5.164 0 0 1-3 1.7v.4h3.2v15.6a7.49 7.49 0 0 0 .8 4c.5.7 1.6 1.1 3.2 1.1a9.148 9.148 0 0 0 6-2.1l-.2-.3a8.529 8.529 0 0 1-4.3.8zM247.6 25V9.5h-.6l-3.3 1.1c.4 0 .5.3.6 1 .1.6.1 2.3.1 4.9V25q0 6-.6 6h-.1v.1h4.6V31h-.1q-.6 0-.6-6zM193.9 19.2a13.229 13.229 0 0 0-6.6-2.4 8.637 8.637 0 0 0 4.9-2.6 6.5 6.5 0 0 0 1.8-4.6 6.257 6.257 0 0 0-2.4-5.1 10.059 10.059 0 0 0-6.5-1.9h-9.7v.1h.1c.4 0 .7 2 .7 6V25c0 4-.2 6-.7 6h-.1v.1h10.8a12.708 12.708 0 0 0 7.4-2 6.385 6.385 0 0 0 2.8-5.4 5.966 5.966 0 0 0-2.5-4.5zM179.3 3.5h5.8a5.728 5.728 0 0 1 4.2 1.7 6.054 6.054 0 0 1 1.6 4.5 6.864 6.864 0 0 1-1.9 5.1 6.785 6.785 0 0 1-5 1.9h-4.6V3.5zm11.7 25a7.477 7.477 0 0 1-5.2 1.8h-6.5v-13h4.1a11.762 11.762 0 0 1 6.9 1.8 5.444 5.444 0 0 1 2.7 4.6 6.624 6.624 0 0 1-2 4.8z"/><path d="M245.6 6.5a2.271 2.271 0 0 0 1.6-.6 2.035 2.035 0 0 0 .6-1.5 2.035 2.035 0 0 0-.6-1.5 2.111 2.111 0 0 0-1.6-.6 2.051 2.051 0 0 0-2.1 2.1 1.887 1.887 0 0 0 .6 1.5 2.035 2.035 0 0 0 1.5.6zM219.1 6.5a1.887 1.887 0 0 0 1.5-.6 2.035 2.035 0 0 0 .6-1.5 2.1 2.1 0 1 0-4.2 0 1.887 1.887 0 0 0 .6 1.5 1.755 1.755 0 0 0 1.5.6z"/><path d="M157.4 33.9V13.5l-34.1 20.4zM62.9 2.5H18.3l44.6 26.7zM0 65.2v20.4l34.1-20.4zM94.4 2.5v26.7L139 2.5zM0 13.5v20.4h34.1zM157.4 85.6V65.2h-34.1zM18.3 96.5h44.6V69.9zM94.4 96.5H139L94.4 69.9z" fill="#182866" fill-rule="evenodd"/><path d="M40.2 33.9L0 9.8V2.5l52.4 31.4zm77 31.3l40.2 24v7.3l-52.5-31.3zM94.4 32.8l50.7-30.3h12.3l-52.5 31.3H94.4zM0 96.5l52.4-31.3h10.5v1L12.2 96.5z" fill="#db052c"/><path d="M69.2 96.5V58.9H0V40.1h69.2V2.5h18.9v37.6h69.3v18.8H88.1v37.6z" fill="#db052c"/></g></svg>