<?xml version="1.0" encoding="utf-8"?>
<!-- Generator: Adobe Illustrator 26.2.1, SVG Export Plug-In . SVG Version: 6.00 Build 0)  -->
<svg version="1.1" id="Layer_1" xmlns="http://www.w3.org/2000/svg" xmlns:xlink="http://www.w3.org/1999/xlink" x="0px" y="0px"
	 viewBox="0 0 310 200" style="enable-background:new 0 0 310 200;" xml:space="preserve">
<style type="text/css">
	.st0{fill:none;stroke:#CDCCCC;stroke-miterlimit:10;}
	.st1{fill:#3A647F;}
	.st2{fill:#EABB7D;}
	.st3{fill:#D8DCBF;}
	.st4{fill:#B4424B;}
	.st5{fill:#E3E3E4;}
	.st6{fill:#FFFFFF;}
</style>
<circle class="st0" cx="81.32" cy="200" r="183.19"/>
<circle class="st1" cx="45.2" cy="21.19" r="32.24"/>
<circle class="st2" cx="206.06" cy="76.44" r="43.29"/>
<circle class="st3" cx="129.96" cy="24.2" r="7.63"/>
<circle class="st4" cx="257.25" cy="182.73" r="36.8"/>
<circle class="st5" cx="67.35" cy="173.21" r="87.65"/>
<g>
	<path class="st6" d="M27.96,33.3h-1.49v-9.52c-0.36,0.34-0.83,0.69-1.42,1.03c-0.58,0.34-1.11,0.6-1.57,0.77v-1.44
		c0.84-0.39,1.57-0.87,2.19-1.43s1.07-1.1,1.33-1.63h0.96V33.3z"/>
	<path class="st6" d="M31.79,27.3c0-1.44,0.15-2.6,0.44-3.47c0.3-0.88,0.74-1.55,1.32-2.03c0.58-0.48,1.32-0.71,2.2-0.71
		c0.65,0,1.23,0.13,1.72,0.39c0.49,0.26,0.9,0.64,1.22,1.14c0.32,0.5,0.57,1.1,0.76,1.81c0.18,0.71,0.27,1.67,0.27,2.88
		c0,1.43-0.15,2.58-0.44,3.46c-0.29,0.88-0.73,1.55-1.32,2.03c-0.58,0.48-1.32,0.72-2.21,0.72c-1.17,0-2.09-0.42-2.76-1.26
		C32.19,31.24,31.79,29.59,31.79,27.3z M33.32,27.3c0,2,0.23,3.33,0.7,3.99c0.47,0.66,1.04,0.99,1.73,0.99s1.26-0.33,1.73-1
		c0.47-0.66,0.7-1.99,0.7-3.98c0-2-0.23-3.33-0.7-3.99c-0.47-0.66-1.05-0.99-1.75-0.99c-0.69,0-1.23,0.29-1.64,0.87
		C33.58,23.94,33.32,25.3,33.32,27.3z"/>
	<path class="st6" d="M42.08,33.3v-1.7h1.7v1.7H42.08z"/>
	<path class="st6" d="M50.76,33.3v-2.91h-5.28v-1.37l5.55-7.89h1.22v7.89h1.64v1.37h-1.64v2.91H50.76z M50.76,29.02v-5.49
		l-3.81,5.49H50.76z"/>
	<path class="st6" d="M55.41,26.78c0-0.61,0.15-1.13,0.46-1.56s0.76-0.64,1.34-0.64c0.54,0,0.99,0.19,1.34,0.58s0.53,0.95,0.53,1.7
		c0,0.73-0.18,1.29-0.54,1.68s-0.8,0.59-1.32,0.59c-0.52,0-0.95-0.19-1.3-0.58S55.41,27.56,55.41,26.78z M57.25,25.29
		c-0.26,0-0.48,0.11-0.65,0.34s-0.26,0.64-0.26,1.25c0,0.55,0.09,0.94,0.26,1.16s0.39,0.34,0.65,0.34c0.27,0,0.49-0.11,0.66-0.34
		s0.26-0.64,0.26-1.24c0-0.55-0.09-0.94-0.26-1.17S57.51,25.29,57.25,25.29z M57.25,33.62l4.7-9.05h0.86l-4.68,9.05H57.25z
		 M60.97,31.29c0-0.62,0.15-1.14,0.46-1.57s0.76-0.64,1.35-0.64c0.54,0,0.99,0.19,1.34,0.58s0.53,0.95,0.53,1.7
		c0,0.73-0.18,1.29-0.54,1.68s-0.8,0.59-1.33,0.59c-0.52,0-0.95-0.19-1.3-0.58S60.97,32.07,60.97,31.29z M62.81,29.81
		c-0.27,0-0.49,0.11-0.66,0.34s-0.26,0.64-0.26,1.25c0,0.55,0.09,0.93,0.26,1.16s0.39,0.34,0.65,0.34c0.27,0,0.49-0.11,0.67-0.34
		s0.26-0.64,0.26-1.24c0-0.55-0.09-0.94-0.26-1.17S63.07,29.81,62.81,29.81z"/>
</g>
<g>
	<path class="st6" d="M191.15,88.81h-1.49v-9.52c-0.36,0.34-0.83,0.69-1.42,1.03s-1.11,0.6-1.57,0.77v-1.44
		c0.84-0.39,1.57-0.87,2.19-1.43c0.63-0.56,1.07-1.1,1.33-1.63h0.96V88.81z"/>
	<path class="st6" d="M199.34,88.81h-1.49v-9.52c-0.36,0.34-0.83,0.69-1.42,1.03c-0.58,0.34-1.11,0.6-1.57,0.77v-1.44
		c0.83-0.39,1.57-0.87,2.19-1.43c0.62-0.56,1.07-1.1,1.33-1.63h0.96V88.81z"/>
	<path class="st6" d="M204.01,88.81v-1.7h1.7v1.7H204.01z"/>
	<path class="st6" d="M215.65,79.62l-1.49,0.12c-0.13-0.59-0.32-1.01-0.56-1.28c-0.4-0.43-0.9-0.64-1.49-0.64
		c-0.48,0-0.89,0.13-1.25,0.4c-0.47,0.34-0.84,0.84-1.11,1.5c-0.27,0.66-0.41,1.6-0.42,2.81c0.36-0.55,0.8-0.95,1.32-1.22
		c0.52-0.27,1.07-0.4,1.63-0.4c1,0,1.84,0.37,2.54,1.1c0.7,0.73,1.05,1.68,1.05,2.84c0,0.76-0.17,1.47-0.49,2.13
		c-0.33,0.66-0.78,1.16-1.36,1.51c-0.58,0.35-1.23,0.52-1.96,0.52c-1.25,0-2.26-0.46-3.05-1.37c-0.79-0.92-1.18-2.43-1.18-4.53
		c0-2.35,0.43-4.06,1.3-5.13c0.76-0.93,1.78-1.39,3.06-1.39c0.96,0,1.74,0.27,2.35,0.81C215.16,77.93,215.52,78.67,215.65,79.62z
		 M209.54,84.86c0,0.51,0.11,1.01,0.33,1.48s0.52,0.83,0.92,1.07c0.39,0.25,0.81,0.37,1.24,0.37c0.63,0,1.17-0.25,1.63-0.76
		c0.45-0.51,0.68-1.2,0.68-2.08c0-0.84-0.22-1.5-0.67-1.99c-0.45-0.48-1.01-0.73-1.69-0.73c-0.67,0-1.25,0.24-1.72,0.73
		C209.78,83.44,209.54,84.08,209.54,84.86z"/>
	<path class="st6" d="M217.34,82.28c0-0.61,0.15-1.13,0.46-1.56s0.76-0.64,1.34-0.64c0.54,0,0.99,0.19,1.34,0.58s0.53,0.95,0.53,1.7
		c0,0.73-0.18,1.29-0.54,1.68s-0.8,0.59-1.32,0.59c-0.52,0-0.95-0.19-1.3-0.58S217.34,83.06,217.34,82.28z M219.17,80.8
		c-0.26,0-0.48,0.11-0.65,0.34s-0.26,0.64-0.26,1.25c0,0.55,0.09,0.94,0.26,1.16s0.39,0.34,0.65,0.34c0.27,0,0.49-0.11,0.66-0.34
		s0.26-0.64,0.26-1.24c0-0.55-0.09-0.94-0.26-1.17S219.43,80.8,219.17,80.8z M219.18,89.12l4.7-9.05h0.86l-4.68,9.05H219.18z
		 M222.89,86.79c0-0.62,0.15-1.14,0.46-1.57s0.76-0.64,1.35-0.64c0.54,0,0.99,0.19,1.34,0.58s0.53,0.95,0.53,1.7
		c0,0.73-0.18,1.29-0.54,1.68s-0.8,0.59-1.33,0.59c-0.52,0-0.95-0.19-1.3-0.58S222.89,87.57,222.89,86.79z M224.73,85.31
		c-0.27,0-0.49,0.11-0.66,0.34s-0.26,0.64-0.26,1.25c0,0.55,0.09,0.93,0.26,1.16s0.39,0.34,0.65,0.34c0.27,0,0.49-0.11,0.67-0.34
		s0.26-0.64,0.26-1.24c0-0.55-0.09-0.94-0.26-1.17S225,85.31,224.73,85.31z"/>
</g>
<g>
	<path class="st6" d="M180.33,69.91v-8.59h6.21v1.01h-5.07v2.63h4.75v1.01h-4.75v2.92h5.27v1.01H180.33z"/>
	<path class="st6" d="M192.21,69.91v-0.79c-0.39,0.62-0.97,0.93-1.74,0.93c-0.5,0-0.95-0.14-1.37-0.41s-0.74-0.66-0.97-1.15
		s-0.34-1.05-0.34-1.69c0-0.62,0.1-1.18,0.31-1.69s0.52-0.89,0.93-1.16s0.88-0.4,1.39-0.4c0.38,0,0.71,0.08,1,0.24
		s0.53,0.36,0.71,0.62v-3.08h1.05v8.59H192.21z M188.88,66.81c0,0.8,0.17,1.39,0.5,1.79s0.73,0.59,1.19,0.59
		c0.46,0,0.85-0.19,1.17-0.57s0.48-0.95,0.48-1.73c0-0.85-0.16-1.48-0.49-1.88s-0.73-0.6-1.21-0.6c-0.47,0-0.86,0.19-1.17,0.57
		S188.88,65.98,188.88,66.81z"/>
	<path class="st6" d="M198.92,69.91V69c-0.48,0.7-1.14,1.05-1.97,1.05c-0.37,0-0.71-0.07-1.03-0.21s-0.55-0.32-0.71-0.53
		s-0.26-0.47-0.33-0.78c-0.04-0.21-0.06-0.54-0.06-0.98v-3.86h1.05v3.45c0,0.55,0.02,0.92,0.06,1.11c0.07,0.28,0.21,0.5,0.42,0.65
		s0.48,0.24,0.8,0.24s0.61-0.08,0.89-0.24s0.47-0.38,0.59-0.66s0.17-0.68,0.17-1.22v-3.33h1.05v6.22H198.92z"/>
	<path class="st6" d="M205.58,67.63l1.04,0.13c-0.11,0.71-0.4,1.27-0.87,1.68s-1.04,0.61-1.72,0.61c-0.85,0-1.54-0.28-2.05-0.83
		s-0.78-1.35-0.78-2.39c0-0.67,0.11-1.26,0.33-1.76s0.56-0.88,1.02-1.13s0.95-0.38,1.49-0.38c0.68,0,1.23,0.17,1.66,0.51
		s0.71,0.83,0.83,1.46l-1.03,0.16c-0.1-0.42-0.27-0.73-0.52-0.94s-0.55-0.32-0.9-0.32c-0.53,0-0.96,0.19-1.29,0.57
		s-0.5,0.98-0.5,1.81c0,0.84,0.16,1.44,0.48,1.82s0.74,0.57,1.25,0.57c0.41,0,0.76-0.13,1.04-0.38S205.51,68.16,205.58,67.63z"/>
	<path class="st6" d="M211.58,69.14c-0.39,0.33-0.77,0.57-1.13,0.7s-0.75,0.21-1.16,0.21c-0.68,0-1.21-0.17-1.58-0.5
		s-0.55-0.76-0.55-1.28c0-0.3,0.07-0.58,0.21-0.83s0.32-0.45,0.54-0.61s0.48-0.27,0.76-0.35c0.21-0.05,0.52-0.11,0.94-0.16
		c0.85-0.1,1.48-0.22,1.88-0.36c0-0.14,0.01-0.24,0.01-0.28c0-0.43-0.1-0.73-0.3-0.91c-0.27-0.24-0.67-0.36-1.2-0.36
		c-0.5,0-0.86,0.09-1.1,0.26s-0.41,0.48-0.52,0.92l-1.03-0.14c0.09-0.44,0.25-0.8,0.46-1.07s0.53-0.48,0.93-0.63
		s0.88-0.22,1.41-0.22c0.53,0,0.96,0.06,1.29,0.19s0.58,0.28,0.73,0.47s0.27,0.43,0.33,0.72c0.04,0.18,0.05,0.5,0.05,0.97v1.41
		c0,0.98,0.02,1.6,0.07,1.86s0.13,0.51,0.27,0.75h-1.1C211.68,69.69,211.61,69.44,211.58,69.14z M211.49,66.79
		c-0.38,0.16-0.96,0.29-1.72,0.4c-0.43,0.06-0.74,0.13-0.92,0.21s-0.32,0.19-0.42,0.34s-0.15,0.32-0.15,0.5
		c0,0.28,0.11,0.52,0.32,0.7s0.52,0.28,0.93,0.28c0.41,0,0.77-0.09,1.08-0.27s0.55-0.42,0.7-0.73c0.11-0.24,0.17-0.59,0.17-1.05
		V66.79z"/>
	<path class="st6" d="M216.5,68.97l0.15,0.93c-0.3,0.06-0.56,0.09-0.8,0.09c-0.38,0-0.68-0.06-0.89-0.18s-0.36-0.28-0.45-0.48
		s-0.13-0.61-0.13-1.25v-3.58h-0.77v-0.82h0.77v-1.54l1.05-0.63v2.17h1.06v0.82h-1.06v3.64c0,0.3,0.02,0.49,0.06,0.58
		s0.1,0.15,0.18,0.21s0.2,0.08,0.36,0.08C216.15,69.01,216.31,69,216.5,68.97z"/>
	<path class="st6" d="M217.53,62.53v-1.21h1.05v1.21H217.53z M217.53,69.91v-6.22h1.05v6.22H217.53z"/>
	<path class="st6" d="M219.8,66.8c0-1.15,0.32-2.01,0.96-2.56c0.54-0.46,1.19-0.69,1.96-0.69c0.86,0,1.55,0.28,2.1,0.84
		s0.81,1.33,0.81,2.32c0,0.8-0.12,1.43-0.36,1.89s-0.59,0.82-1.05,1.07s-0.96,0.38-1.5,0.38c-0.87,0-1.58-0.28-2.11-0.84
		S219.8,67.85,219.8,66.8z M220.89,66.8c0,0.8,0.17,1.39,0.52,1.79s0.79,0.59,1.31,0.59c0.52,0,0.96-0.2,1.31-0.6
		s0.52-1.01,0.52-1.82c0-0.77-0.17-1.35-0.52-1.75s-0.78-0.59-1.3-0.59c-0.53,0-0.96,0.2-1.31,0.59S220.89,66,220.89,66.8z"/>
	<path class="st6" d="M226.87,69.91v-6.22h0.95v0.88c0.46-0.68,1.12-1.03,1.98-1.03c0.38,0,0.72,0.07,1.03,0.2s0.55,0.31,0.71,0.53
		s0.27,0.48,0.33,0.78c0.04,0.2,0.06,0.54,0.06,1.03v3.83h-1.05v-3.79c0-0.43-0.04-0.75-0.12-0.96s-0.23-0.38-0.44-0.51
		s-0.45-0.19-0.74-0.19c-0.45,0-0.84,0.14-1.16,0.43s-0.49,0.83-0.49,1.62v3.4H226.87z"/>
</g>
<g>
	<path class="st6" d="M242.4,194.63h-1.49v-9.52c-0.36,0.34-0.83,0.69-1.42,1.03c-0.58,0.34-1.11,0.6-1.57,0.77v-1.44
		c0.84-0.39,1.57-0.87,2.19-1.43c0.63-0.56,1.07-1.1,1.33-1.63h0.96V194.63z"/>
	<path class="st6" d="M254.08,193.19v1.44h-8.04c-0.01-0.36,0.05-0.71,0.17-1.04c0.2-0.55,0.53-1.09,0.98-1.62s1.1-1.15,1.96-1.84
		c1.32-1.08,2.22-1.94,2.68-2.58c0.46-0.63,0.7-1.23,0.7-1.8c0-0.59-0.21-1.09-0.63-1.5c-0.42-0.41-0.98-0.61-1.66-0.61
		c-0.72,0-1.29,0.22-1.73,0.65s-0.65,1.03-0.66,1.79l-1.54-0.16c0.11-1.15,0.5-2.02,1.19-2.62c0.69-0.6,1.61-0.9,2.76-0.9
		c1.17,0,2.09,0.32,2.77,0.97s1.02,1.45,1.02,2.41c0,0.49-0.1,0.97-0.3,1.44c-0.2,0.47-0.53,0.97-0.99,1.49
		c-0.46,0.52-1.23,1.23-2.3,2.14c-0.9,0.75-1.47,1.26-1.73,1.53c-0.25,0.27-0.46,0.54-0.63,0.81H254.08z"/>
	<path class="st6" d="M256.52,194.63v-1.7h1.7v1.7H256.52z"/>
	<path class="st6" d="M266.03,194.63h-1.49v-9.52c-0.36,0.34-0.83,0.69-1.42,1.03c-0.58,0.34-1.11,0.6-1.57,0.77v-1.44
		c0.83-0.39,1.57-0.87,2.19-1.43c0.62-0.56,1.07-1.1,1.33-1.63h0.96V194.63z"/>
	<path class="st6" d="M269.85,188.1c0-0.61,0.15-1.13,0.46-1.56s0.76-0.64,1.34-0.64c0.54,0,0.99,0.19,1.34,0.58s0.53,0.95,0.53,1.7
		c0,0.73-0.18,1.29-0.54,1.68s-0.8,0.59-1.32,0.59c-0.52,0-0.95-0.19-1.3-0.58S269.85,188.88,269.85,188.1z M271.69,186.62
		c-0.26,0-0.48,0.11-0.65,0.34s-0.26,0.64-0.26,1.25c0,0.55,0.09,0.94,0.26,1.16s0.39,0.34,0.65,0.34c0.27,0,0.49-0.11,0.66-0.34
		s0.26-0.64,0.26-1.24c0-0.55-0.09-0.94-0.26-1.17S271.95,186.62,271.69,186.62z M271.69,194.95l4.7-9.05h0.86l-4.68,9.05H271.69z
		 M275.41,192.62c0-0.62,0.15-1.14,0.46-1.57s0.76-0.64,1.35-0.64c0.54,0,0.99,0.19,1.34,0.58s0.53,0.95,0.53,1.7
		c0,0.73-0.18,1.29-0.54,1.68s-0.8,0.59-1.33,0.59c-0.52,0-0.95-0.19-1.3-0.58S275.41,193.39,275.41,192.62z M277.25,191.13
		c-0.27,0-0.49,0.11-0.66,0.34s-0.26,0.64-0.26,1.25c0,0.55,0.09,0.93,0.26,1.16s0.39,0.34,0.65,0.34c0.27,0,0.49-0.11,0.67-0.34
		s0.26-0.64,0.26-1.24c0-0.55-0.09-0.94-0.26-1.17S277.51,191.13,277.25,191.13z"/>
</g>
<g>
	<path class="st6" d="M241.56,175.74v-8.59h1.14v3.53h4.46v-3.53h1.14v8.59h-1.14v-4.05h-4.46v4.05H241.56z"/>
	<path class="st6" d="M254.32,173.73l1.09,0.13c-0.17,0.64-0.49,1.13-0.96,1.48s-1.06,0.53-1.78,0.53c-0.91,0-1.63-0.28-2.17-0.84
		s-0.8-1.35-0.8-2.36c0-1.05,0.27-1.86,0.81-2.44s1.24-0.87,2.1-0.87c0.83,0,1.51,0.28,2.04,0.85s0.79,1.36,0.79,2.39
		c0,0.06,0,0.16-0.01,0.28h-4.64c0.04,0.68,0.23,1.21,0.58,1.57s0.78,0.54,1.3,0.54c0.39,0,0.72-0.1,0.99-0.3
		S254.16,174.18,254.32,173.73z M250.86,172.03h3.47c-0.05-0.52-0.18-0.92-0.4-1.18c-0.34-0.41-0.77-0.61-1.31-0.61
		c-0.48,0-0.89,0.16-1.22,0.49S250.89,171.48,250.86,172.03z"/>
	<path class="st6" d="M260.79,174.97c-0.39,0.33-0.77,0.57-1.13,0.7s-0.75,0.21-1.16,0.21c-0.68,0-1.21-0.17-1.58-0.5
		s-0.55-0.76-0.55-1.28c0-0.3,0.07-0.58,0.21-0.83s0.32-0.45,0.54-0.61s0.48-0.27,0.76-0.35c0.21-0.05,0.52-0.11,0.94-0.16
		c0.85-0.1,1.48-0.22,1.88-0.36c0-0.14,0.01-0.24,0.01-0.28c0-0.43-0.1-0.73-0.3-0.91c-0.27-0.24-0.67-0.36-1.2-0.36
		c-0.5,0-0.86,0.09-1.1,0.26s-0.41,0.48-0.52,0.92l-1.03-0.14c0.09-0.44,0.25-0.8,0.46-1.07s0.53-0.48,0.93-0.63
		s0.88-0.22,1.41-0.22c0.53,0,0.96,0.06,1.29,0.19s0.58,0.28,0.73,0.47s0.27,0.43,0.33,0.72c0.04,0.18,0.05,0.5,0.05,0.97v1.41
		c0,0.98,0.02,1.6,0.07,1.86s0.13,0.51,0.27,0.75h-1.1C260.9,175.52,260.83,175.26,260.79,174.97z M260.71,172.61
		c-0.38,0.16-0.96,0.29-1.72,0.4c-0.43,0.06-0.74,0.13-0.92,0.21s-0.32,0.19-0.42,0.34s-0.15,0.32-0.15,0.5
		c0,0.28,0.11,0.52,0.32,0.7s0.52,0.28,0.93,0.28c0.41,0,0.77-0.09,1.08-0.27s0.55-0.42,0.7-0.73c0.11-0.24,0.17-0.59,0.17-1.05
		V172.61z"/>
	<path class="st6" d="M263.38,175.74v-8.59h1.05v8.59H263.38z"/>
	<path class="st6" d="M268.38,174.79l0.15,0.93c-0.3,0.06-0.56,0.09-0.8,0.09c-0.38,0-0.68-0.06-0.89-0.18s-0.36-0.28-0.45-0.48
		s-0.13-0.61-0.13-1.25v-3.58h-0.77v-0.82h0.77v-1.54l1.05-0.63v2.17h1.06v0.82h-1.06v3.64c0,0.3,0.02,0.49,0.06,0.58
		s0.1,0.15,0.18,0.21s0.2,0.08,0.36,0.08C268.03,174.83,268.19,174.82,268.38,174.79z"/>
	<path class="st6" d="M269.41,175.74v-8.59h1.05v3.08c0.49-0.57,1.11-0.86,1.86-0.86c0.46,0,0.86,0.09,1.2,0.27s0.58,0.43,0.73,0.75
		s0.22,0.79,0.22,1.39v3.94h-1.05v-3.94c0-0.53-0.11-0.91-0.34-1.15s-0.55-0.36-0.97-0.36c-0.31,0-0.61,0.08-0.88,0.24
		s-0.47,0.38-0.59,0.66s-0.18,0.66-0.18,1.15v3.4H269.41z"/>
</g>
<g>
	<path class="st6" d="M30.07,16.08l-2.28-8.59h1.17l1.31,5.63c0.14,0.59,0.26,1.18,0.36,1.76c0.22-0.92,0.35-1.45,0.39-1.59
		l1.63-5.8h1.37l1.23,4.35c0.31,1.08,0.53,2.09,0.67,3.04c0.11-0.54,0.25-1.17,0.43-1.87l1.35-5.52h1.14l-2.36,8.59h-1.1l-1.81-6.54
		c-0.15-0.55-0.24-0.88-0.27-1.01c-0.09,0.39-0.17,0.73-0.25,1.01l-1.82,6.54H30.07z"/>
	<path class="st6" d="M43.38,15.31c-0.39,0.33-0.77,0.57-1.13,0.7s-0.75,0.21-1.16,0.21c-0.68,0-1.21-0.17-1.58-0.5
		s-0.55-0.76-0.55-1.28c0-0.3,0.07-0.58,0.21-0.83s0.32-0.45,0.54-0.61s0.48-0.27,0.76-0.35c0.21-0.05,0.52-0.11,0.94-0.16
		c0.85-0.1,1.48-0.22,1.88-0.36c0-0.14,0.01-0.24,0.01-0.28c0-0.43-0.1-0.73-0.3-0.91c-0.27-0.24-0.67-0.36-1.2-0.36
		c-0.5,0-0.86,0.09-1.1,0.26s-0.41,0.48-0.52,0.92l-1.03-0.14c0.09-0.44,0.25-0.8,0.46-1.07s0.53-0.48,0.93-0.63
		s0.88-0.22,1.41-0.22c0.53,0,0.96,0.06,1.29,0.19s0.58,0.28,0.73,0.47s0.27,0.43,0.33,0.72c0.04,0.18,0.05,0.5,0.05,0.97v1.41
		c0,0.98,0.02,1.6,0.07,1.86s0.13,0.51,0.27,0.75h-1.1C43.48,15.86,43.41,15.61,43.38,15.31z M43.29,12.96
		c-0.38,0.16-0.96,0.29-1.72,0.4c-0.43,0.06-0.74,0.13-0.92,0.21s-0.32,0.19-0.42,0.34s-0.15,0.32-0.15,0.5
		c0,0.28,0.11,0.52,0.32,0.7s0.52,0.28,0.93,0.28c0.41,0,0.77-0.09,1.08-0.27s0.55-0.42,0.7-0.73c0.11-0.24,0.17-0.59,0.17-1.05
		V12.96z"/>
	<path class="st6" d="M48.29,15.14l0.15,0.93c-0.3,0.06-0.56,0.09-0.8,0.09c-0.38,0-0.68-0.06-0.89-0.18s-0.36-0.28-0.45-0.48
		s-0.13-0.61-0.13-1.25v-3.58h-0.77V9.86h0.77V8.32l1.05-0.63v2.17h1.06v0.82h-1.06v3.64c0,0.3,0.02,0.49,0.06,0.58
		s0.1,0.15,0.18,0.21s0.2,0.08,0.36,0.08C47.95,15.18,48.1,15.17,48.29,15.14z"/>
	<path class="st6" d="M53.58,14.08l1.09,0.13c-0.17,0.64-0.49,1.13-0.96,1.48s-1.06,0.53-1.78,0.53c-0.91,0-1.63-0.28-2.17-0.84
		s-0.8-1.35-0.8-2.36c0-1.05,0.27-1.86,0.81-2.44s1.24-0.87,2.1-0.87c0.83,0,1.51,0.28,2.04,0.85s0.79,1.36,0.79,2.39
		c0,0.06,0,0.16-0.01,0.28h-4.64c0.04,0.68,0.23,1.21,0.58,1.57s0.78,0.54,1.3,0.54c0.39,0,0.72-0.1,0.99-0.3
		S53.42,14.52,53.58,14.08z M50.12,12.37h3.47c-0.05-0.52-0.18-0.92-0.4-1.18c-0.34-0.41-0.77-0.61-1.31-0.61
		c-0.48,0-0.89,0.16-1.22,0.49S50.15,11.83,50.12,12.37z"/>
	<path class="st6" d="M55.98,16.08V9.86h0.95v0.94c0.24-0.44,0.47-0.73,0.67-0.87s0.43-0.21,0.68-0.21c0.36,0,0.72,0.11,1.08,0.34
		L59,11.04c-0.26-0.15-0.52-0.23-0.77-0.23c-0.23,0-0.44,0.07-0.62,0.21s-0.31,0.33-0.39,0.58c-0.12,0.38-0.18,0.79-0.18,1.23v3.26
		H55.98z"/>
</g>
<g>
</g>
<g>
</g>
<g>
</g>
<g>
</g>
<g>
</g>
<g>
</g>
</svg>
