<?xml version="1.0" encoding="utf-8"?>
<!-- Generator: Adobe Illustrator 28.2.0, SVG Export Plug-In . SVG Version: 6.00 Build 0)  -->
<svg version="1.1" id="Layer_1" xmlns="http://www.w3.org/2000/svg" xmlns:xlink="http://www.w3.org/1999/xlink" x="0px" y="0px"
	 viewBox="0 0 148 30" width="140" height="28" style="enable-background:new 0 0 148 30;" xml:space="preserve">
<style type="text/css">
	.st0{fill:#FFFFFF;}
</style>
<path class="st0" d="M22.6,10.4c-1,0.4-2-0.1-2.4-1s0.1-2,1-2.4s2,0.1,2.4,1S23.5,10,22.6,10.4 M16.7,17.1c-0.9,0.4-2-0.1-2.4-1
	s0.1-2,1-2.4s2,0.1,2.4,1S17.6,16.7,16.7,17.1 M27.5,13.4c-1,0.4-2-0.1-2.4-1s0.1-2,1-2.4c0.9-0.4,2,0.1,2.4,1S28.5,13,27.5,13.4
	 M30.8,18.2c-1,0.4-2-0.1-2.4-1s0.1-2,1-2.4s2,0.1,2.4,1C32.2,16.7,31.7,17.8,30.8,18.2 M17,4.7l2.3,1.2V2.5L17,3.2L16.8,3l0.9-3
	h-3.4l0.9,3L15,3.2c-0.1,0.1-2.3-0.7-2.3-0.7v3.4L15,4.7c0.1,0.1,0.1,0.2,0.2,0.2l-1.3,4c-0.1,0.2-0.1,0.4-0.1,0.6
	c0,1.1,0.8,2,1.9,2.2h0.7c1-0.2,1.9-1.1,1.9-2.1c0-0.2,0-0.4-0.1-0.6l-1.3-4C16.8,4.8,16.9,4.8,17,4.7 M9.4,10.4
	c0.9,0.4,2-0.1,2.4-1s-0.1-2-1-2.4s-2,0.1-2.4,1S8.4,10,9.4,10.4 M4.4,13.4c0.9,0.4,2-0.1,2.4-1s-0.1-2-1-2.4s-2,0.1-2.4,1
	S3.5,13,4.4,13.4 M1.2,18.2c0.9,0.4,2-0.1,2.4-1s-0.1-2-1-2.4s-2,0.1-2.4,1S0.2,17.8,1.2,18.2 M16,29.2c4.4,0,8.6,0.3,12.3,0.8
	c1.1-4.5,2.4-7,3.7-8.8l-2.5-0.9c0.2,1.3,0.3,1.9,0,2.7c-0.4-0.4-0.8-1.1-1.1-2.3l-1.2,4c0.7-0.5,1.3-0.8,2-0.9
	c-1.1,2.5-2.6,3.1-3.5,3c-1.1-0.2-1.7-1.2-1.5-2.1c0.3-1.2,1.5-1.5,2.1-0.1c1.1-2.3-0.8-3-2-2.3c1.9-1.9,2.1-3.5,0.6-5.6
	c-2.1,1.6-2.1,3.2-1.2,5.5c-1.2-1.4-3.2-0.6-2.5,1.6c0.9-1.4,2.1-0.5,1.9,0.8c-0.2,1.1-1.7,2.1-3.5,1.9c-2.7-0.2-2.9-2.1-2.9-3.6
	c0.7-0.1,1.9,0.5,2.9,1.9l0.4-4.3c-1.1,1.1-2.1,1.4-3.2,1.4c0.4-1.2,2.1-3,2.1-3h-5.4c0,0,1.7,1.9,2.1,3c-1.1,0-2.1-0.2-3.2-1.4
	l0.4,4.3c1-1.4,2.2-2,2.9-1.9c-0.1,1.5-0.2,3.4-2.9,3.6c-1.9,0.2-3.4-0.8-3.5-1.9c-0.2-1.3,1-2.2,1.9-0.8c0.7-2.3-1.2-3-2.5-1.6
	c0.9-2.2,0.9-3.9-1.2-5.5c-1.5,2-1.3,3.7,0.6,5.6c-1.2-0.7-3.1,0-2,2.3c0.6-1.4,1.8-1.1,2.1,0.1c0.2,0.9-0.3,1.9-1.5,2.1
	c-0.9,0.2-2.4-0.5-3.5-3c0.6,0,1.2,0.3,2,0.9l-1.2-4c-0.3,1.1-0.7,1.9-1.1,2.3c-0.3-0.8-0.2-1.4,0-2.7L0,21.2
	C1.3,23,2.6,25.5,3.7,30C7.4,29.5,11.6,29.2,16,29.2 M44.3,17.6c0,0.9,0.1,1.7,0.3,2.5s0.6,1.5,1,2.2c0.5,0.6,1,1.1,1.7,1.5
	s1.5,0.6,2.5,0.6c0.9,0,1.7-0.1,2.3-0.4s1.1-0.7,1.5-1.1s0.6-0.9,0.8-1.5c0.1-0.5,0.2-1,0.2-1.5v-0.2h-5.3v-3.2h9.4V28H55v-2.5
	c-0.3,0.4-0.6,0.8-1,1.1c-0.4,0.3-0.8,0.6-1.3,0.9c-0.5,0.2-1,0.4-1.6,0.6s-1.2,0.2-1.8,0.2c-1.5,0-2.9-0.3-4-0.8
	c-1.2-0.6-2.2-1.3-3-2.3s-1.4-2.1-1.8-3.4C40.2,20.4,40,19,40,17.5s0.2-2.9,0.7-4.2s1.1-2.4,2-3.4s1.9-1.7,3.1-2.3
	C47,7,48.4,6.8,49.9,6.8c1,0,1.9,0.1,2.8,0.3c0.9,0.2,1.7,0.6,2.4,1C55.8,8.5,56.5,9,57,9.6c0.6,0.6,1,1.3,1.4,2l-3.7,2.1
	c-0.2-0.4-0.5-0.9-0.8-1.2c-0.3-0.4-0.6-0.7-1-1s-0.8-0.5-1.3-0.7s-1.1-0.2-1.7-0.2c-1,0-1.8,0.2-2.5,0.6c-0.7,0.4-1.3,0.9-1.7,1.5
	c-0.5,0.6-0.8,1.4-1,2.2C44.4,15.7,44.3,16.8,44.3,17.6z M71.5,6.8c1.5,0,2.9,0.3,4.2,0.8c1.2,0.6,2.3,1.3,3.1,2.3
	c0.9,1,1.5,2.1,2,3.4s0.7,2.7,0.7,4.2s-0.2,2.9-0.7,4.2c-0.4,1.3-1.1,2.4-2,3.4s-1.9,1.7-3.1,2.3c-1.2,0.6-2.6,0.8-4.2,0.8
	s-2.9-0.3-4.2-0.8c-1.2-0.6-2.3-1.3-3.1-2.3c-0.9-1-1.5-2.1-2-3.4c-0.4-1.3-0.7-2.7-0.7-4.2s0.2-2.9,0.7-4.2c0.4-1.3,1.1-2.4,2-3.4
	s1.9-1.7,3.1-2.3C68.5,7.1,69.9,6.8,71.5,6.8z M71.5,24.4c0.9,0,1.7-0.2,2.4-0.5s1.3-0.8,1.7-1.4c0.5-0.6,0.8-1.3,1.1-2.2
	c0.2-0.8,0.4-1.7,0.4-2.7v-0.1c0-1-0.1-1.9-0.4-2.7c-0.2-0.8-0.6-1.6-1.1-2.2c-0.5-0.6-1.1-1.1-1.7-1.4c-0.7-0.3-1.5-0.5-2.4-0.5
	s-1.7,0.2-2.4,0.5s-1.3,0.8-1.7,1.4c-0.5,0.6-0.8,1.3-1.1,2.2c-0.2,0.8-0.4,1.7-0.4,2.7v0.1c0,1,0.1,1.9,0.4,2.7
	c0.2,0.8,0.6,1.6,1.1,2.2s1.1,1.1,1.7,1.4S70.5,24.4,71.5,24.4z M88.9,28L83,7h4.7l4,15.7h0.1l4-15.7h4.7l-5.9,21
	C94.6,28,88.9,28,88.9,28z M117.7,24.4c0.6,0,1.2-0.1,1.7-0.3c0.5-0.2,1-0.4,1.4-0.8s0.7-0.8,0.9-1.4c0.2-0.6,0.3-1.2,0.3-2v-13h4.1
	v13.6c0,1.2-0.2,2.2-0.6,3.1s-1,1.7-1.8,2.4c-0.7,0.7-1.6,1.2-2.7,1.5c-1,0.4-2.2,0.5-3.4,0.5c-1.2,0-2.4-0.2-3.4-0.5
	c-1-0.4-1.9-0.9-2.7-1.5c-0.8-0.7-1.3-1.5-1.8-2.4c-0.4-0.9-0.6-2-0.6-3.1V6.9h4.2v13c0,0.8,0.1,1.4,0.3,2c0.2,0.6,0.5,1,0.9,1.4
	s0.8,0.6,1.4,0.8C116.5,24.3,117,24.4,117.7,24.4z M130.7,7h4.2v9.1l7.4-9.1h5.2l-7.2,8.4L148,28h-4.9l-5.5-9.4l-2.7,3V28h-4.2
	L130.7,7L130.7,7z M103.1,23.1c-1.5,0-2.7,1.2-2.7,2.7s1.2,2.7,2.7,2.7s2.7-1.2,2.7-2.7S104.6,23.1,103.1,23.1z"/>
<g>
</g>
<g>
</g>
<g>
</g>
<g>
</g>
<g>
</g>
<g>
</g>
<g>
</g>
<g>
</g>
<g>
</g>
<g>
</g>
<g>
</g>
<g>
</g>
<g>
</g>
<g>
</g>
<g>
</g>
</svg>
