<?xml version="1.0" encoding="utf-8"?>
<!-- Generator: Adobe Illustrator 26.2.1, SVG Export Plug-In . SVG Version: 6.00 Build 0)  -->
<svg version="1.1" id="Layer_1" xmlns="http://www.w3.org/2000/svg" xmlns:xlink="http://www.w3.org/1999/xlink" x="0px" y="0px"
	 viewBox="0 0 175.9 144.8" style="enable-background:new 0 0 175.9 144.8;" xml:space="preserve">
<style type="text/css">
	.st0{fill:#FFFFFF;}
</style>
<g>
	<path class="st0" d="M75.5,23c-2.1,2.9-1.7,4.6,0.4,7.1C78,27.1,77.2,25.5,75.5,23"/>
	<path class="st0" d="M96.8,23c2.1,2.9,1.7,4.6-0.4,7.1C93.9,27.1,94.7,25.5,96.8,23"/>
	<path class="st0" d="M63.4,22.1c1.7,0,1.7-2.9,0-2.9C61.4,19.2,61.4,22.1,63.4,22.1"/>
	<path class="st0" d="M64.3,24.2c0-1.7-2.9-1.7-2.9,0C61.4,26.3,64.3,25.9,64.3,24.2"/>
	<path class="st0" d="M65.1,27.5c0-1.7-2.9-1.7-2.9,0C62.2,29.6,65.1,29.6,65.1,27.5"/>
	<path class="st0" d="M71.4,15.4c1.7,0,1.7-2.9,0-2.9C69.3,12.5,69.3,15.4,71.4,15.4"/>
	<path class="st0" d="M67.6,16.3c1.7,0,1.7-2.9,0-2.9C65.9,13.8,65.9,16.7,67.6,16.3"/>
	<path class="st0" d="M65.1,18.8c1.7,0,1.7-2.9,0-2.9C63,15.9,63,18.8,65.1,18.8"/>
	<path class="st0" d="M75.1,15.9c1.7,0,1.7-2.9,0-2.9C73,12.9,73,15.9,75.1,15.9"/>
	<path class="st0" d="M78.5,16.7c1.7,0,1.7-2.9,0-2.9C76.8,13.8,76.8,16.7,78.5,16.7"/>
	<path class="st0" d="M81.8,18.4c1.7,0,1.7-2.9,0-2.9C80.1,15.4,80.1,18.4,81.8,18.4"/>
	<path class="st0" d="M107.3,20.9c0,1.7,2.9,1.7,2.9,0C110.2,18.8,107.3,18.8,107.3,20.9"/>
	<path class="st0" d="M109.3,23c-1.7,0-1.7,2.9,0,2.9S111,23,109.3,23"/>
	<path class="st0" d="M108.5,26.3c-1.7,0-1.7,2.9,0,2.9S110.2,26.3,108.5,26.3"/>
	<path class="st0" d="M101,15.4c1.7,0,1.7-2.9,0-2.9C98.9,12.5,98.9,15.4,101,15.4"/>
	<path class="st0" d="M104.3,16.3c1.7,0,1.7-2.9,0-2.9C102.7,13.8,102.7,16.7,104.3,16.3"/>
	<path class="st0" d="M107.3,18.8c1.7,0,1.7-2.9,0-2.9C105.2,15.9,105.2,18.8,107.3,18.8"/>
	<path class="st0" d="M97.2,15.9c1.7,0,1.7-2.9,0-2.9C95.2,12.9,95.2,15.9,97.2,15.9"/>
	<path class="st0" d="M93.5,16.7c1.7,0,1.7-2.9,0-2.9S91.8,16.7,93.5,16.7"/>
	<path class="st0" d="M88.9,16.7c0,1.7,2.9,1.7,2.9,0C91.8,15,88.9,15,88.9,16.7"/>
	<path class="st0" d="M83.5,24.6h1.7v-6.3c-0.4,0-1.3-0.4-1.7-0.4V24.6z"/>
	<path class="st0" d="M88.5,17.9c-0.4,0.4-0.8,0.4-1.7,0.4v6.3h1.7V17.9z"/>
	<path class="st0" d="M85.1,11.3V7.5c-1.7,0.4-3.3,1.7-3.3,3.8H85.1z"/>
	<path class="st0" d="M86.8,11.3h3.3c0-1.7-1.3-3.3-3.3-3.8V11.3z"/>
	<path class="st0" d="M81.8,12.9c0.8,4.6,7.9,4.6,8.8,0H81.8z"/>
	<path class="st0" d="M88.5,7.1c-0.8-0.8-1.7-2.1-2.1-3.3c1.3,0.4,2.5,1.3,3.3,2.1V1.3c-0.8,0.8-2.1,1.7-3.3,2.1
		c0-1.3,0.8-2.1,1.7-3.3h-4.6c0.8,1.3,1.7,2.5,1.7,3.3c-1.3,0-2.5-1.3-3.3-2.1v5c0.8-0.8,2.1-1.7,3.3-2.1c0,1.3-0.8,2.5-2.1,3.3
		L88.5,7.1L88.5,7.1z"/>
	<path class="st0" d="M88.5,109.3c-2.1,0-2.1-3.8,0-3.3C91,106,91,109.3,88.5,109.3 M80.1,106.8c-2.5,0-2.5-3.8,0-3.8
		S82.6,106.8,80.1,106.8 M77.2,98.5c-1.7-1.7-3.3,0-4.2,1.3c2.5,1.7,0.8,3.8-1.7,2.1c-2.1,2.1-1.3,3.8,1.3,5
		c-4.2,1.7-5.4-3.8-2.9-6.7c-0.4-0.4-0.4-0.8-0.8-1.3c0.4,0,1.3,0,1.7,0.4c1.3-2.1,6.7-4.2,7.5,0C78,98.9,77.6,98.5,77.2,98.5
		 M93.9,105.2c-4.6-1.3-10-2.9-15-5.4c0.4-2.5-2.5-5.4-5-4.2c-4.2-3.8-7.1-9.2-7.9-15c-0.4,1.3-2.1,3.3-4.6,3.3c0-0.4,0-0.8-0.4-1.3
		c-0.8,0.8-1.7,1.7-4.6,0.8c1.3,7.5,5.4,14.6,10.8,19.6c-0.4,2.5,3.3,5.8,6.3,3.8c8.8,4.6,20.4,7.5,28.4-0.8
		C99.7,106.4,96.4,105.6,93.9,105.2"/>
	<path class="st0" d="M92.6,123.1c-2.5-4.6-2.9,8.3-5.8,2.5c0-0.8,1.3-2.1-0.4-2.1c-1.7,0-0.4,1.3-0.4,2.1c-2.9,5.8-3.3-7.1-5.8-2.5
		c-0.8-1.7-0.8-3.8,1.7-4.2c2.5,0,2.1,3.3,2.9,3.3c2.9-1.3-4.2-4.2,1.7-7.5c5.8,3.3-1.3,6.3,1.7,7.5c1.3,0,0.4-3.3,2.9-3.3
		C93.5,119.3,93.5,121.4,92.6,123.1 M86,130.2c-1.7,0-1.7-2.5,0-2.5S87.6,130.2,86,130.2 M91,118.5c-0.4,0-0.4,0-0.8,0v-5.4
		c-2.5,0-5-0.4-7.9-1.3v6.7c-4.2-1.3-5,4.2-2.5,6.3c2.1-4.6,0.8,2.9,4.6,3.3c-1.3,3.8,5,3.8,4.2,0c3.3-0.4,2.1-7.9,4.6-3.3
		C94.7,123.1,94.7,118.5,91,118.5"/>
	<path class="st0" d="M154,124.8c-14.2,4.2-37.1-30-48.8-11.3c-5.8,9.6-5,10,3.8,15.4c-13.4,5-32.1,5-45.5,0
		c7.9-6.7,10.4-4.6,3.8-15.4c-11.3-19.2-33.8,15.4-48.4,10.8c12.1,19.2,27.1-3.8,41.7-6.3c-7.1,4.2-2.5,10-0.8,16.3
		c2.1,10.4,12.9,9.6,26.3,10.4c12.9-0.8,24.2,0,26.3-10.4c2.1-5.8,6.7-11.7-0.8-16.3C126.4,121,139.8,142.7,154,124.8"/>
	<path class="st0" d="M86.8,75.9V52.2c11.7,0.4,19.6,12.5,19.6,23.8H86.8z M86,42.6c-6.7,0-11.3,2.1-14.2,3.8
		c-13.4-9.6,41.3-9.6,28,0C97.2,44.6,92.6,42.6,86,42.6 M85.6,75.9h-20c0-11.3,7.9-23.4,20-23.8V75.9z M116.4,74.3
		c-2.5-1.7-5.4-9.2-6.7-11.3c-1.7-2.1,0.4-3.8,1.7-5.4c-2.5-4.2-5.8-7.9-10-10.4c2.1-0.8,3.3-4.6,1.3-6.3c1.3-4.2,3.3-8.8,5.4-10.8
		l-4.2-1.7c1.3,1.7,1.3,3.3,0.8,4.6c-1.3-0.8-2.1-1.7-2.1-2.9c0,1.3-0.8,3.3-1.7,4.6c1.3-0.4,2.1-0.8,3.3-0.4
		c-0.4,2.1-7.5,2.9-7.9-0.4c0-2.1,2.9-1.3,2.1,0.8c3.8-3.3-1.3-7.1-2.5-1.7c-0.4-5.8-5.4-2.9-2.9,0.8c0-2.9,2.1-3.3,2.1-0.8
		c-1.3,2.9-7.9,2.5-8.3-2.1c1.3,0.4,2.9,1.3,3.8,2.1c-0.4-2.1-0.4-3.3,0-5.4c-1.3,1.3-2.5,2.1-3.8,2.1c0.4-1.3,1.7-2.9,2.9-3.8h-7.5
		c1.3,0.8,2.5,2.5,2.9,3.8c-1.3,0-2.5-0.8-3.3-2.1c0.4,2.1,0.4,3.3,0,5.4c0.8-1.3,2.5-2.1,3.3-2.1c-0.4,4.6-7.5,5-8.3,2.1
		c0-2.1,2.1-1.7,2.5,0.4c2.5-3.8-2.5-6.7-2.9-0.8c-1.7-5.4-6.7-2.1-2.5,1.7C73,32.1,76,31.3,76,33.4c-0.4,3.3-7.1,2.5-7.9,0.4
		c0.8-0.8,2.1-0.4,2.9,0c-0.4-1.3-1.3-3.3-1.7-4.6c-0.4,1.3-1.3,2.5-2.5,2.9c-0.4-1.3,0-2.9,0.8-4.6l-4.2,1.7
		c2.1,2.1,4.2,7.1,5.4,10.8c-2.1,1.7-0.8,5.4,1.3,6.3c-5.8,3.8-10,9.6-12.5,15.9c4.6,3.8,5.8,8.8,7.5,13.8h20v21.7
		c-0.8,0-1.7,0.4-2.5,1.3c2.5,0.8,4.6,1.7,6.7,2.5c0-1.3,0.4-2.5,1.3-3.3c0,0-2.9-0.4-4.6-0.4V75.9h19.6c0,8.8-4.6,17.5-12.5,21.3
		c-1.3,0.8-2.1,2.5-2.1,4.6C110.6,110.6,116,88,116.4,74.3"/>
	<path class="st0" d="M98.1,61.8c-0.4,0.4-0.4,0.8,0.4,0.8c-0.4,0-0.4,0.4-0.4,0.8c0.4,0,0.8,0,0.8-0.4c0,0.4,0.4,0.8,0.8,0.8
		c1.7,2.5,2.5,5,2.9,7.9c0,0-0.4,0-0.8,0c0,0.4,0,0.8,0.4,0.8h-5c0-0.8-0.4-0.8-0.8-0.4c0-0.4,0-0.4-0.4-0.8
		c-0.4,0.4-0.4,0.4-0.4,0.8c-0.4-0.4-0.8-0.4-0.8,0.4h-4.2c0,0,0.4-0.4,0.4-0.8c-0.4,0-0.8,0-0.8,0.4v-6.7c0.8,0,0.8-0.4,0.4-0.8
		c0.4,0,0.4,0,0.8-0.4c-0.4-0.4-0.4-0.4-0.8-0.4c0.4-0.4,0.4-1.3-0.4-0.8v-5.8c0,0,0.4,0.4,0.8,0.4c0-0.4,0-0.4,0-0.8
		C93.1,57.6,96,59.3,98.1,61.8 M103.5,72.2c0.4,0.4,0.4,0.8-0.4,0.8c-0.4-3.8-1.7-7.1-3.8-10l0,0c0.4,0,0.8-0.4,0.8-0.8
		c-0.4,0-0.8,0.4-1.3,0.4c-2.5-3.3-5.8-5.8-9.6-6.7c0-0.4,0.4-0.4,0.8,0c0-0.8-0.8-1.3-1.3-0.4c0-0.4-0.4-0.4-0.8-0.4
		c0,0.4,0,0.8,0.4,0.8c-0.8,0-0.8,1.3,0,1.3c-0.4-0.4,0-0.8,0.4-0.8v7.5c-0.4,0-0.8,0-1.3,0.4c0.4,0.4,0.8,0.4,1.3,0.4V73
		c-0.4,0-0.4-0.4,0-0.8c-0.8,0-1.3,1.3,0,1.3c0,0-0.4,0.4-0.4,0.8c0.4,0,0.8,0,0.8-0.4c0,0.8,1.3,0.8,1.3,0c-0.4,0.4-0.8,0.4-0.8,0
		h5.8c0,0.4,0,0.8,0.4,1.3c0.4-0.4,0.4-0.8,0.4-1.3h6.3c0,0.4-0.4,0.4-0.8,0c0,0.8,1.3,0.8,1.3,0c0.4,0,0.4,0.4,0.8,0.4
		c0-0.4,0-0.8-0.4-0.8C104.7,73.4,104.3,72.2,103.5,72.2"/>
	<path class="st0" d="M100.2,70.1C100.6,70.1,100.6,69.7,100.2,70.1C100.2,69.7,100.2,69.7,100.2,70.1c1.3-1.7-2.1,0-2.1-2.1
		c0.4,0.4,0.8,0.8,1.3,0.8l0,0c2.1-0.8-2.5-2.9-2.1-5c-1.3,1.7,2.1,3.3,2.5,4.6c-0.8,1.3-2.5-1.7-2.9-2.1c-1.3-1.7,0.8-3.3-0.8-4.6
		c0,0,0-0.4,0-0.8h-0.4c0-0.4-0.8-0.4-0.8-0.8c-0.4,0.4-2.1,0.4-1.3,1.3l0.4,0.4c0-0.4,0.4-0.4,0.8,0c0,0.4-0.8,0-0.8,0.4
		c2.1,0.4,1.3,0,0.4,1.7c-0.4-0.8-1.7-1.3-2.1-2.1c0-0.4,0.4-1.3-0.4-1.3c0,0,0,0,0,0.4c-0.4,0,0,0.4,0,0.4s0-0.4-0.4-0.4
		c0,0,0-0.4-0.4,0l0,0c-0.4,0.4,0.4,0.4,0.4,0.4c-0.4,0-0.4,0-0.4,0.4v0.4c0,0,0,0,0-0.4c0.8,0,0,0.4,0.4,0.4c0,0.4-0.4,0-0.4,0
		c-0.4,0.4,0,0.8,0.4,0.4V63c0-0.4,0,0.4,0.4,0.4l0,0c0.4,0.4,0.4,1.3,1.7,1.7c-0.8,0.8-1.3,1.7-2.5,0.8h-0.4c0,0,0,0,0.4,0l0,0
		c0,0,0,0.4,0.4,0c0,0.4-0.4-0.4-0.8,0c0,0-0.4,0.4,0,0.4c0,0,0,0,0-0.4c0.4,0.4,0.4,0.4,0.8,0c0,0.4-0.4,0.4,0,0.4
		c0,0.4,0.4,0.4,0.4,0.4s-0.4,0-0.4-0.4c0.4,0,0-0.4,0-0.4s0.4,0.4,0.8,0c0.4,0,0.4-0.4,0.8,0c0-0.4,0.8-0.8,0.8-0.4
		c0,0,0-0.4,0.4-0.4c0,1.3,1.7,1.3,2.1,2.1c-1.7-0.8-3.8,0.8-1.7,2.1c-0.4,0-0.8,0-1.3,0s-0.4-0.8-0.8-0.4c0,0-0.4,0-0.4,0.4
		c0,0,0,0,0.4,0c0,0.4,0.4,0,0.4,0.4c0,0-0.4,0-0.4,0.4l0,0c0,0,0,0.4,0.4,0l0,0c0.4,0,0,0,0.4,0.4c0,0,0.4,0.4,0.4,0h-0.4
		c0.4-0.4,0.4,0,0.8,0l0,0c0,0,0-0.4,0.4,0l0.4-0.4c1.7,0.4-0.8-2.1,1.7-2.1c0,0.8,1.7,2.5,2.5,1.3c0.4,0.8,0,0.8-0.8,0.8
		c0,0-0.4,0-0.4,0.4c0,0,0,0,0.4,0c0,0.4,0.4,0.4,0.4,0.4c-0.4,0-0.4,0.4,0,0.4c0,0,0,0.4,0.4,0.4c0,0,0,0,0-0.4
		c0.4,0,0-0.4,0.4-0.4c0,0,0,0.4,0.4,0.4c0,0,0.4,0.4,0.4,0l0,0c0.4-0.4,0-0.4,0-0.8c0,0,0.4,0,0.4-0.4l0.4-0.4
		C100.2,70.1,100.2,70.1,100.2,70.1L100.2,70.1z"/>
	<path class="st0" d="M81.8,81c-1.3-0.4-1.3,1.3,0,1.3c0,0.8-0.4,1.7-0.4,2.9L78.5,81C80.1,80.5,81.8,78.4,81.8,81 M80.5,88.5
		L76,81.8c0.4,0,0.8-0.4,1.7-0.4l3.8,5C81,86.8,80.5,87.6,80.5,88.5 M80.1,91.4l-6.7-9.6c0.4,0,1.3,0,1.7,0l5.4,7.5
		C80.1,90.1,80.1,91,80.1,91.4 M72.6,81.8l7.5,10.4C76,91,72.2,87.2,72.6,81.8 M83.5,81L83.5,81c-0.4-5.8-8.8,1.7-12.5-2.1l-0.4,0.8
		c-0.8-2.9-2.5,1.7,0,0.4L70.1,81h0.4c-0.4,4.6,2.9,10.4,9.2,12.5c2.5-1.3,2.1,2.9,0.4,1.3c0-0.4,0.8,0,0.8-0.4
		c0-0.8-1.7-0.4-1.7,0.4c0,2.1,3.3,1.7,3.3-0.8c0.8,0,0.8-0.8,0.8-1.3h-0.4l0.4-10.4C84.3,82.6,84.7,81,83.5,81"/>
	<path class="st0" d="M78,58.8c0-0.4,0.4,0,0-0.4c0.4,0-0.4,0,0-0.4c0.8,0.4,0,0.4,0.4,0.4C78,58,78.9,59.3,78,58.8L78,58.8
		 M78.5,57.6C78.5,58,78,57.6,78.5,57.6L78.5,57.6 M78.9,58h0.4C78.9,58,78.9,58.4,78.9,58 M77.6,58L77.6,58L77.6,58 M82.2,59.7
		c1.3,0,2.1-0.4,2.1-0.8c0-1.7-5-0.4-3.8-2.1c2.1,0,2.1-1.7,3.3-1.7c-1.7-0.4-2.1,1.3-2.5,1.3c0.4,0,0.4-0.8,0.4-0.8
		c-0.4,0.4-1.7,0.4-1.7,1.3c-2.1,2.1,3.8,1.3,3.8,2.1c-0.8,1.3-2.9,0-4.6,0.4c0-0.4,0.4-0.8,0.4-0.8s0.4,0,0.4-0.4c0,0,0,0-0.4,0
		c0-0.4-0.8-0.8-1.3-0.8c0,0,0,0-0.4,0v0.4L77.6,58l0,0c0,0.4,0,0.4-0.4,0.4l0,0c0,0.4,0,0.8-0.4,0.8l0,0c-1.3-0.4,0-1.3-0.8-1.7
		l0,0l0,0c0,0.8,0,0-0.4,0c0,0,0-0.4-0.4,0l0,0c-0.4,0.4,0,0.4,0.4,0.4c-0.4,0-0.4,0-0.4,0.4c0,0,0,0,0,0.4l0,0h0.4
		c-0.4,0.4,0,0.4,0,0.4c0,0.4-0.4,0.4-0.4,0c-0.4,0.4,0.4,0.4,0.4,0.4c0-0.4,0,0,0.4,0c0-0.4,0,0,0.4,0.4c-0.8,0.4-1.7,0.4-2.5,0.4
		c0,0,0-0.4-0.4-0.4H73c0,0,0,0,0.4,0c-0.4,0.4,0,0.4,0.4,0.4c-0.4,0-0.4-0.4-0.4,0l0,0c0,0-0.4,0-0.4,0.4l0,0c0,0.4,0,0.4,0.4,0
		c0,0-0.4,0.4,0,0.4l0,0c0,0,0,0.4,0.4,0.4c0,0,0,0,0-0.4c0.4,0,0-0.4,0.4-0.4c0,0.8,0.8-0.4,0.8,0l0,0v0.4c0,0,0.4,0,0.4-0.4l0,0
		H76c0-0.4,0,0,0.4,0.4c0-0.4,0.8-0.8,0.4-0.4c0.4,0,0.4-0.4,0.8-0.4H78v0.4c1.7-0.4,0.4-0.8,2.5-1.3c-0.4,0.8,0.4,0.8,0.4,0.8
		c-0.8,0.4-0.8-0.4-1.3-0.4c0,0-0.4,0-0.4,0.4c0,0,0,0,0.4,0l0,0c0.4,0-0.4,0,0,0.4c0,0,0,0.4,0.4,0l0,0c0.4,0,0,0,0.4,0
		c0,0,0,0.4,0.4,0c0,0,0,0-0.4,0c0,0,0-0.4,0.4-0.4c0.4,0.4,0.4-0.4,0.8-0.4c0.8,0,0.4-0.4,0.4-1.3c0.8,0.4,1.3-0.4,1.7,0
		c0.4,0.4,0,0.4-0.4,0.8c0,0-0.4,0-0.4,0.4c0,0,0,0,0.4,0c0,0.4,0.4,0,0.4,0.4c0,0-0.4,0.4,0,0.4v0.4c0,0,0,0,0-0.4
		c0.4,0,0-0.4,0.4-0.4v0.4c0,0,0,0,0.4,0l0,0c0.4-0.4,0-0.4,0-0.4s0.4-0.4,0-0.4l0,0c-0.4,0,0-0.4,0-0.8
		C83.5,60.1,83.1,59.7,82.2,59.7"/>
	<path class="st0" d="M75.5,67.2L75.5,67.2L75.5,67.2 M74.7,64.7C74.7,64.3,75.1,64.3,74.7,64.7c0.4-0.4-0.4-0.8,0.4-0.4
		c0,0,0,0,0,0.4c0,0-0.4-0.4,0,0C74.7,64.3,75.1,64.7,74.7,64.7C74.7,65.5,74.3,65.1,74.7,64.7 M75.1,63.8c-0.4,0.4-0.4,0-0.4-0.4
		L75.1,63.8 M75.5,63.8c0,0,0.4,0,0.4,0.4C75.5,64.3,75.5,64.3,75.5,63.8 M73,65.9L73,65.9L73,65.9 M84.3,65.1c0-1.3-10,0-5-1.3
		c1.7,0.8,4.2-0.4,5.4,0c-1.3-0.8-2.5,0-3.8-0.4c0.8,0,1.3-0.4,1.3-0.4c-0.8,0.4-2.1-0.4-2.5,0.4c-5,0.8,1.3,2.1,3.3,1.3
		c4.6,1.3-4.6,0.4-6.3,0.4c0-0.4,0.4-0.8,0.4-0.8l0.4-0.4h-0.4c0-0.4-1.3-1.3-1.7-0.8c0,0,0,0-0.4,0v0.4l-0.4,0.4l0,0
		c0,0.4,0,0.4-0.4,0.4c0,0,0,0,0.4,0v0.4h-0.4l0,0c-1.7-0.4-0.4-2.1-1.3-2.5c0,0,0,0,0,0.4c-0.4,0,0,0.4,0,0.4s0-0.4-0.4-0.4
		c0,0,0-0.4-0.4,0l0,0C71.8,63,72.6,63,72.6,63c-0.4,0-0.4,0-0.4,0.4v0.4c0,0,0,0,0-0.4c1.3,0-0.4,0.4,0.4,0.4c0,0.4-0.4,0.4-0.4,0
		c-0.4,0.8,0.4,0.4,0.8,0.8c0-0.4,0,0.4,0.4,0c0-0.4,0.8,0.8,1.3,0.4c0.4,0.8,0,0.4-0.8,0.4c-0.8,0.4-0.8,0-1.7-0.4h-0.4
		c0,0,0,0,0.4,0l0,0l0.4,0.4c-0.4,0-0.4-0.4-0.4-0.4l0,0c0,0-0.4,0-0.4,0.4c0,0,0,0,0.4,0c0,0.4,0,0.4,0.8,0.4c0,0-0.4,0.4,0,0.4
		l0,0l0,0c0,0.4,0.4,0.4,0.4,0.4s0,0,0-0.4l0,0c0.4-0.8,0-0.4,0.4,0c0.4,0,0.4-0.8,0.4,0l0,0v0.4c0,0,0.4,0,0.4-0.4l0,0l0,0
		c0,0,0.4,0,0.4,0.4c0-0.4,0,0,0.4,0.4c0-0.4,1.3-0.8,0.8-0.4c0.4,0,1.3-0.4,1.3-0.8c1.7,0,0.8-0.8,3.3-0.8
		c-0.4,0.8,0.4,0.8,0.4,1.3c-0.8,0.4-0.8-0.4-1.3-0.4c0,0-0.4,0-0.4,0.4c0,0,0,0,0.4,0c0,0.4,0,0.4,0.4,0c0.4,0-0.8,0-0.4,0.4
		c0,0,0,0.4,0.4,0l0,0c0.4,0,0,0,0.4,0c0,0,0.4,0.4,0.4,0H81l0,0c0.4-0.4,0.8,0.4,0.8-0.4c1.3,0.4,0.8-0.4,0.4-1.3
		c0.8,0.8,2.5-0.8,2.9,0c0,0.8-0.4,0.4-0.8,0.4c0,0-0.4,0-0.4,0.4c0,0,0,0,0.4,0c0,0.4,0.4,0.4,0.4,0.4c-0.4,0-0.4,0.4,0,0.4
		c0,0,0,0.4,0.4,0.4c0,0,0,0,0-0.4c0.4,0,0-0.4,0.4-0.4v0.4c0,0,0,0.4,0.4,0l0,0c0.4-0.4,0-0.4,0-0.8c0,0,0.4-0.4,0-0.8l0,0
		c0,0,0,0,0.4,0c-0.4,0,0-0.4,0-0.8c-0.4,0-0.8-0.4-2.1-0.4C82.6,65.9,84.3,65.5,84.3,65.1"/>
	<path class="st0" d="M73,70.9C73,70.5,73.5,70.5,73,70.9C73.5,70.5,73,70.5,73,70.9c0-0.8,0.8-0.4,0.8-0.4c0,0.4-0.4-0.4,0,0
		C73,70.5,73.5,70.9,73,70.9C73,71.4,72.6,71.4,73,70.9 M73.5,70.1C73,70.5,73,70.1,73.5,70.1C73,69.7,73.5,70.1,73.5,70.1
		 M73.9,70.1c0,0,0.4,0,0.4,0.4C73.9,70.5,73.9,70.5,73.9,70.1 M83.5,71.4c-0.4-1.7-7.1,0.4-7.1-0.8c0-0.4,1.3-0.4,2.5-0.4
		c1.7,0.8,3.8-0.4,5,0c-0.8-0.8-2.1,0-3.3,0c0.8,0,1.7,0,1.7-0.4c-0.8,0.4-2.5-0.4-2.9,0.4c-1.3,0-2.9,0-2.9,0.4
		C76.8,72.2,82.6,70.5,83.5,71.4c-1.7,1.3-6.3-0.4-8.8,0.4c0-0.4,0.4-0.8,0.4-0.8s0.4,0,0.4-0.4h-0.4c0-0.4-0.8-1.3-1.3-0.8
		c0,0,0,0-0.4,0v0.4L73,70.5l0,0c0,0.4,0,0.4-0.4,0.4l0,0v0.4c-0.8,0-2.1-0.8-1.7-2.1l-0.4-0.4c0,0,0,0,0,0.4l0,0c0,0.8,0,0-0.4,0
		c0,0,0-0.4-0.4,0l0,0c0,0.4,0.4,0.4,0.4,0.4c-0.4,0-0.4,0-0.4,0.4v0.4l0,0l0,0c0.8-0.4,0,0.4,0.4,0.4c0,0.4-0.4,0.4-0.4,0
		c-0.4,0.8,0.4,0.4,0.8,0.8l0,0c0,0,0,0.4,0.4,0.4c0-0.4,0.4,0.4,0.8,0.8h0.4l0,0c0.4,0.8-0.4,0.4-0.8,0.4c-0.8,0.4-0.8,0-1.3-0.4
		l0,0h-0.4c0,0,0,0,0.4,0l0,0c0,0,0,0.4,0.4,0.4c-0.4,0-1.3-0.4-1.3,0.4c0,0,0,0,0.4,0c0,0.4,0,0.4,0.4,0.4c0,0.4-0.4,0.4,0,0.4
		c0,0.4,0,0.4,0.4,0.4c0,0,0,0,0-0.4l0,0c0.4-0.4,0-0.4,0.4,0c0.4,0,0.4-0.8,0.4,0l0,0v0.4c0,0,0.4,0,0.4-0.4l0,0l0,0
		c0,0,0.4,0,0.4,0.4c0-0.4,0,0,0.4,0.4c0-0.4,1.7-0.8,0.8-0.4h0.4l0,0l0.4-0.4l0,0c0,0,0,0,0.4,0l0,0c2.1-0.4,1.7-0.8,4.2-1.3
		c-0.4,0.8,0.4,0.8,0.4,0.8c-0.8,0.4-0.8-0.4-1.3-0.4c0,0-0.4,0-0.4,0.4c0,0,0,0,0.4,0v0.4c0.8,0-0.4,0,0,0.4c0,0,0,0.4,0.4,0l0,0
		l0,0c0,0,0,0,0,0.4c0,0,0.4,0.4,0.4,0h-0.4l0,0c0.4-0.4,0.4,0.4,0.8-0.4c1.3,0.4,0.8-0.4,0.4-1.3c0.8,0.8,2.1-0.4,2.9,0
		c0,0.8-0.4,0.4-0.8,0.4c0,0-0.4,0-0.4,0.4c0,0,0,0,0.4,0c0,0.4,0.4,0,0.4,0.4c0,0-0.4,0.4,0,0.4v0.4c0,0,0,0,0-0.4
		c0.4,0,0-0.4,0.4-0.4v0.4c0,0,0,0,0.4,0l0,0c0.4-0.4,0-0.4,0-0.4s0.4-0.4,0-0.4l0,0c0,0,0,0,0.4,0c-0.4,0,0-0.4,0-0.8
		c-0.4,0-0.8-0.4-2.1-0.4C82.2,71.8,83.5,71.8,83.5,71.4"/>
	<path class="st0" d="M93.9,81.8L93.9,81.8L93.9,81.8 M91.8,78.9L91.8,78.9L91.8,78.9 M91.8,79.3L91.8,79.3L91.8,79.3z M92.2,80.1
		C92.2,79.7,92.6,79.7,92.2,80.1c0.4-0.4-0.4-0.8,0.4-0.4c0,0,0,0,0,0.4c0,0-0.4-0.4,0,0C92.2,79.7,92.6,79.7,92.2,80.1
		C92.2,80.5,91.8,80.1,92.2,80.1 M92.6,78.9c-0.4,0.4-0.4,0-0.4-0.4C92.2,78.9,92.6,78.9,92.6,78.9 M93.1,78.9
		C93.1,78.9,93.5,78.9,93.1,78.9C93.1,79.3,93.1,79.3,93.1,78.9 M102.7,81.4L102.7,81.4c-0.4-0.4-1.3-0.4-2.1-0.8
		c0.8,0,2.1,0,2.1-0.8c-0.4-1.7-7.1,0.4-7.1-0.8c0-0.4,1.3-0.4,2.5-0.4c1.7,0.8,4.2-0.8,5-0.4c-1.3-0.4-2.1,0.4-3.3,0
		c0.8,0,1.7,0,1.7-0.4c-0.8,0.4-2.5-0.4-2.9,0.4c-1.3,0-2.9,0-2.9,0.4c0.4,1.7,6.3,0,7.1,0.8c-1.7,1.3-6.3-0.4-8.8,0.4
		c0-0.4,0.4-0.8,0.4-0.8s0.4,0,0.4-0.4h-0.4c0-0.4-0.8-0.8-1.3-0.8c0,0,0,0-0.4,0c0,0,0,0-0.4,0V78l-0.4,0.4l0,0
		c0,0.4,0,0.4-0.4,0.4c0,0,0,0,0.4,0v0.4c-0.4,0-1.7-0.4-1.7-1.3c0-0.4,0.4-1.3-0.4-1.3c0,0,0,0,0,0.4l0,0c0,0.8,0,0-0.4,0
		c0,0,0-0.4-0.4,0l0,0c-0.4,0.4,0.4,0.4,0.4,0.4c-0.4,0-0.4,0-0.4,0.4v0.4c0,0,0-0.4,0,0c0,0,0,0,0.4,0s-0.4,0.4,0.4,0.4
		c0,0.4-0.4,0.4-0.4,0c-0.4,0.4,0.4,0.8,0.8,0.4l0,0c0-0.4,0,0.4,0.4,0c0-0.4,0.4,0.4,0.8,0.8c0,0,0,0,0.4-0.4v0.4l0,0
		c0.4,0.8,0,0.4-0.4,0.4c-0.8,0.4-0.8,0-1.7-0.4h-0.4c0,0,0,0,0.4,0l0,0l0.4,0.4c-0.4,0-0.4-0.4-0.8,0c0,0-0.4,0-0.4,0.4
		c0,0,0,0,0.4,0c0,0.4,0,0.4,0.4,0.4c0,0.4-0.4,0.4,0,0.4c0,0.4,0,0.4,0.4,0.4c0,0,0,0,0-0.4c0.4,0,0-0.4,0.4-0.4
		c0,0.4,0.8,0.4,0.4,0c0,0,0,0,0,0.4l0,0v0.4c0,0,0.4,0,0.4-0.4l0,0l0,0c0,0,0.4,0,0.4,0.4c0-0.4,0,0,0.4,0.4c0-0.4,1.3-0.8,0.4-0.4
		c0,0,1.3-0.8,1.7-0.8c2.1,0,1.7-0.8,3.8-0.8c-0.4,0.8,0.4,0.8,0.4,0.8c-0.8,0.4-0.8-0.4-1.3-0.4c0,0-0.4,0-0.4,0.4c0,0,0,0,0.4,0
		v0.4c0.8,0-0.4,0,0,0.4c0,0,0,0.4,0.4,0l0,0c0.4,0,0,0,0.4,0c0,0,0.4,0.4,0.4,0h-0.4c0.4-0.8,0.4,0.4,0.8-0.4
		c1.3,0.4,0.8-0.4,0.4-1.3c0.8,0.8,2.5-0.4,2.9,0c0,0.8-0.4,0.4-0.8,0.4c0,0-0.4,0-0.4,0.4c0,0,0,0,0.4,0c0,0.4,0.4,0,0.4,0.4
		c0,0-0.4,0.4,0,0.4v0.4c0,0,0,0,0-0.4c0.4,0,0-0.4,0.4-0.4c0,0.4,0,0.4,0,0.4s0,0,0.4,0l0,0c0.4-0.4,0-0.4,0-0.4s0.8-0.4,0.4-0.4
		l0,0C102.7,81.8,102.7,81.8,102.7,81.4C102.7,81.8,102.7,81.8,102.7,81.4"/>
	<path class="st0" d="M93.1,85.1C92.6,85.1,92.6,85.1,93.1,85.1C92.6,85.1,93.1,85.1,93.1,85.1L93.1,85.1 M92.6,85.5
		C92.6,85.5,92.6,85.1,92.6,85.5c-0.8-0.4,0,0.8-0.8,0.4c-0.4-0.4,0.4-0.4,0-0.8c0.4,0-0.4,0,0-0.4C92.2,85.1,93.1,85.1,92.6,85.5
		 M92.2,84.7c-0.4,0.4-0.4,0-0.4-0.4C92.2,84.7,92.2,84.7,92.2,84.7 M96.4,84.7c1.3,0.8,3.8-0.8,5-0.4c-1.3-0.4-2.1,0.4-3.3,0
		c0.8,0,1.7,0,1.7-0.4C98.9,84.7,97.2,83.9,96.4,84.7c-0.8-0.4-1.7-0.4-1.7,0.4c0,1.7,5,0,5.4,0.8c-1.7,0.8-4.6-0.4-7.1,0.4
		c0-0.4,0.4-0.8,0.4-0.8s0.4,0,0.4-0.4h-0.4c0-0.4-0.8-1.3-1.3-0.8c0,0,0,0-0.4,0v0.4l-0.4,0.4l0,0c0,0.4,0,0.4-0.4,0.4l0,0V86
		c-2.1,0-0.4-1.3-1.3-1.7c0,0,0,0,0,0.4c-0.4,0,0,0.4,0,0.4s0-0.4-0.4-0.4c0,0,0-0.4-0.4,0l0,0c-0.4,0.4,0.4,0.4,0.4,0.4
		c-0.4,0-0.4,0-0.4,0.4V86l0,0l0,0c0.8-0.4,0,0.4,0.4,0.4c0,0.4-0.4,0.4-0.4,0c-0.4,0.4,0.4,0.8,0.4,0.4l0,0c0-0.4,0,0,0.4,0
		c0-0.4,0-0.4,0.4,0l0,0h0.4c0,0.8,0,0.4-0.8,0.8s-0.8,0-1.3-0.4h-0.4c0,0,0,0,0.4,0c-0.4,0.4,0,0.4,0.4,0.4c-0.4,0-0.4-0.4-0.8,0
		c0,0-0.4,0-0.4,0.4l0,0c0,0.4,0,0.4,0.4,0.4c0,0.4-0.4,0.4,0,0.4c0,0,0,0.4,0.4,0.4c0,0,0,0,0-0.4c0.4,0,0-0.4,0.4-0.4
		c0,0.8,0.8-0.4,0.8,0l0,0v0.4c0,0,0.4,0,0.4-0.4l0,0l0,0c0,0,0.4,0,0.4,0.4c0-0.4,0,0,0.4,0.4c0-0.4,1.3-0.8,0.8-0.4
		c0.4,0.4,0.8-0.4,0.8-0.4l0,0l0,0c1.7-0.4,0.8-0.8,2.9-1.3C95.2,88,96,88,96,88c-0.8,0.4-0.8-0.4-1.3-0.4c0,0-0.4,0-0.4,0.4
		c0,0,0,0,0.4,0c0,0.4,0.4,0,0.4,0.4c0,0-0.4,0-0.4,0.4l0,0c0,0,0,0.4,0.4,0l0,0c0.4,0,0,0,0.4,0c0,0,0,0.4,0.4,0h-0.4
		c0.4-0.8,0.4,0.4,0.8-0.4c1.3,0,0.8-0.4,0.4-1.3c0.8,0.8,2.5-0.4,2.9,0c0,0.8-0.4,0.4-0.8,0.4c0,0-0.4,0-0.4,0.4c0,0,0,0,0.4,0
		c0,0.4,0.4,0,0.4,0.4c0,0-0.4,0.4,0,0.4v0.4c0,0,0,0,0-0.4c0.4,0,0.4-0.4,0.4-0.4v0.4c0,0,0,0,0.4,0l0,0c0.4-0.4,0-0.4,0-0.4
		c0.8-0.4,0-0.4,0.4-0.8c-0.4,0,0-0.4,0-0.8c-0.4,0-1.7,0-2.1-0.4c0.8,0,2.1,0,2.1-0.8C101.4,84.7,91.8,86,96.4,84.7"/>
	<path class="st0" d="M91.4,91.8C91.4,91.8,91.8,91.4,91.4,91.8c0.4-0.4-0.4-0.8,0.4-0.4c0.4,0.4-0.4,0,0,0.4
		C91.4,91.4,92.2,92.2,91.4,91.8L91.4,91.8 M91.8,90.5c-0.4,0.4-0.4,0-0.4-0.4C91.4,90.5,91.8,90.5,91.8,90.5 M92.2,91h0.4
		C92.2,91.4,92.2,91.4,92.2,91 M95.2,91c1.3,0.8,3.8-0.8,5-0.4c-1.3-0.4-2.1,0.4-3.3,0c0.8,0,1.7,0,1.7-0.4
		C97.7,90.5,96,89.7,95.2,91c-3.3,1.3,3.3,0.8,3.3,1.3c-1.3,1.3-3.8-0.4-5.8,0.4c0-0.4,0.4-0.8,0.4-0.8s0.4,0,0.4-0.4c0,0,0,0-0.4,0
		c0-0.4-0.8-0.8-1.3-0.8c0,0,0,0-0.4,0V91L91,91.4l0,0c0,0.4,0,0.4-0.4,0.4l0,0c0,0.4,0,0.8,0,0.8c-0.4-0.4-1.3-0.8-1.3-1.7
		c0-0.4,0.4-0.8-0.4-0.8c0,0,0,0,0,0.4c-0.4,0,0,0.4,0,0.4s0-0.4-0.4-0.4c0,0,0-0.4-0.4,0l0,0C87.6,91,88.5,91,88.5,91
		c-0.4,0-0.4,0-0.4,0.4v0.4l0,0l0,0c0.4-0.4,0,0.4,0.4,0.4c0,0.4-0.4,0.4-0.4,0c-0.4,0.8,0.4,0.4,0.8,0.8c0-0.4,0,0,0.4,0
		c0-0.4,0,0.4,0.4,0.8c0,0.4,0.4,0.4,0.4,0.4c0.4,0.8-0.8,0.4-1.3,0.4l0,0l0,0c-0.4,0-0.4-0.4-0.8-0.4h-0.4c0,0,0,0,0.4,0
		c0,0.4,0,0.4,0.4,0.4c-0.4,0-0.4-0.4-0.4,0c0,0-0.4,0-0.4,0.4l0,0c0,0.4,0,0.4,0.4,0.4c0,0-0.4,0.4,0,0.4c0,0.4,0,0.4,0.4,0.4
		c0,0,0,0,0-0.4c0.4,0,0-0.4,0.4-0.4c0,0.8,0.8-0.4,0.8,0l0,0V96c0,0,0.4,0,0.4-0.4l0,0l0,0c0,0,0.4,0,0.4,0.4c0-0.4,0,0,0.4,0.4
		c0-0.4,0.8-0.8,0.4-0.4c0.4,0,0.4-0.4,0.8-1.3c0.4,0,0.8-0.4,1.3-0.4c-0.4,0.4,0.8,1.3,0,1.3c-0.4,0.4-0.4-0.8-0.8-0.4
		c0,0-0.4,0-0.4,0.4c0,0,0,0,0.4,0l0,0c0.8,0-0.4,0,0,0.4c0,0,0,0.4,0.4,0l0,0c0.4,0,0,0,0.4,0c0,0,0,0.4,0.4,0c0,0,0,0-0.4,0
		c0,0,0-0.4,0.4,0s0.4-0.4,0.8-0.4c0.8,0.4,0.4-1.3-0.4-1.7c0.4,0,1.3,0,1.3,0c0.8,0,0.8,0.4,0.4,0.8l-0.4-0.4h-0.4c0,0,0,0,0.4,0
		l0,0l0,0l0,0c0,0-0.4,0-0.4,0.4v0.4l0,0l0,0c0.8,0,0,0,0.4,0.4V96l0,0c0.4,0,0.4-0.4,0.4-0.4s0.4,0,0.4-0.4l0,0c0,0,0,0,0.4,0
		c-0.4-0.4,0.4-0.4,0.4-0.4s-0.4,0-0.4-0.4c0.8-0.4-0.4-0.8-0.4-0.8c1.3,0,2.9-0.4,2.5-0.8C98.9,91,92.6,92.2,95.2,91"/>
	<path class="st0" d="M26.7,17.1c0-1.3-2.1-1.3-2.1,0S26.7,18.4,26.7,17.1"/>
	<path class="st0" d="M26.3,14.2c0-1.3-2.1-1.3-2.1,0S26.3,15.4,26.3,14.2"/>
	<path class="st0" d="M26.7,12.9c1.3,0,1.3-2.1,0-2.1C25.5,10.8,25.5,12.9,26.7,12.9"/>
	<path class="st0" d="M29.6,12.9c1.3,0,1.3-2.1,0-2.1C28.4,10.8,28.4,12.9,29.6,12.9"/>
	<path class="st0" d="M41.3,10.8c0.8,0.8,2.5-0.4,1.3-1.3C41.7,8.8,40.5,10,41.3,10.8"/>
	<path class="st0" d="M40.9,8.8c0.8-0.8-0.4-2.5-1.3-1.3C38.8,8.3,40.1,9.6,40.9,8.8"/>
	<path class="st0" d="M38.4,8.3c0.8-0.8-0.4-2.5-1.3-1.3C35.9,7.9,37.6,9.2,38.4,8.3"/>
	<path class="st0" d="M35.9,10c0.8-0.8-0.4-2.5-1.3-1.3C33.4,9.6,35.1,10.8,35.9,10"/>
	<path class="st0" d="M29.6,8.8l0.8,1.7l0.8-1.3l0,0c-0.8,5.8,5.8,2.9,0.4-0.4l0,0h1.7l-0.8-1.7l-1.3,1.3l0,0V6.3l-1.7,0.8l1.3,1.3
		l0,0L29.6,8.8z"/>
	<path class="st0" d="M41.3,11.7c0.4,0.4,0.4,0.8,0.4,1.3c-0.4,0-0.8-0.4-1.3-0.8l0.4,2.5c0.4-0.4,0.4-0.8,0.8-0.8
		c-0.4,5-4.6,0-1.3,0.8c0-1.3-1.3-1.3-1.7-0.8c0.4-1.3,0.4-2.5-0.8-2.9c-0.8,1.3-0.4,2.1,0.4,3.3c-0.8-0.4-1.7,0.4-0.8,1.3
		c0-0.8,0.8-0.8,1.3,0c0.4,2.1-3.8,2.5-3.8,0.4c0.4,0,1.3,0,2.1,0.4l-0.8-2.5c-0.4,0.8-0.8,1.3-1.3,1.3c0-0.8,0.4-2.1,0.4-2.1
		l-2.9,1.7c0,0,1.3,0.8,1.7,1.3c-0.4,0.4-1.3,0.4-2.1,0l1.3,2.1c0.4-1.3,0.8-1.7,1.3-1.7c1.3,1.7-1.7,3.8-2.9,2.5
		c-0.4-0.8,0-1.3,0.8-0.8c0-1.3-1.3-1.3-1.7-0.4c0-1.3-0.4-2.1-1.7-2.5c-0.4,1.3,0,2.1,1.7,2.9c-0.8,0-1.7,0.8-0.4,1.7
		c1.7-2.5,1.7,3.8-1.7,0.4c0.4,0,0.8,0,1.3,0l-1.7-1.7c0,0.8,0,1.3,0,1.3C28,19.2,28,18.8,28,18.4l-1.3,0.8c0.4,0,1.7,1.3,2.9,3.3
		c3.8-2.1,8.8-4.2,12.9-5.4c-0.4-2.5,0-4.2,0-5.4C42.6,11.7,41.3,11.7,41.3,11.7z"/>
	<path class="st0" d="M44.7,25.5c-1.3,1.3-3.3,0-4.2-1.3c2.1-0.8,4.2-1.7,5.8-2.5C44.7,23.4,45.9,24.6,44.7,25.5 M44.2,40.5
		c-2.9,1.3-4.6-2.9-3.8-4.2c2.1-2.1,0-3.8-2.5-2.5c1.3-4.2-1.3-1.3-1.7-0.8c-2.1-2.9,4.6-3.8,6.3-5c0.8-0.4,2.5,0.8,2.5,1.7
		c-0.8,0-4.6,0-1.3,1.3c-2.5,0.8-2.9,3.8,0,3.8C45.5,35.5,47.2,39.2,44.2,40.5 M34.2,29.6c-1.3,0-1.3-1.3-3.8-1.7
		c1.7-0.4,4.2-1.3,6.3-2.1C36.7,27.1,35.9,29.2,34.2,29.6 M63.9,77.2c-1.3-6.7-7.9-14.6-13.4-19.6c2.1-0.4,3.8,2.1,5.8,3.8
		c1.7-4.6,4.2-8.3,7.5-11.7c-1.3,0.4-2.5,0.4-3.8,1.3c0-1.7,0-3.3-1.3-4.6c0.4-2.5,0-5.4-5.4-9.2c2.9,0.8,4.6,3.3,6.7,1.3
		c-2.1,0-2.1-4.6-9.2-7.9c2.9,0,5,4.2,7.9,1.7c-2.9-0.4-4.2-5.8-9.2-7.5c1.7,0.4,3.8,1.3,5.4-1.3c-1.7,0.4-2.9-1.3-5-1.3
		c0.8-2.5,0.4-3.8-0.4-5.4c-1.3,0-2.9,0.4-3.8,1.3c0-1.3-1.7-1.3-2.5-1.3c0.4,2.5-4.2,1.7-7.1,3.3c-3.3,0.8-5.8,4.6-7.5,2.5
		c-0.4,1.3-1.3,2.1-0.8,2.9c-1.3,0-2.9,0.4-4.2,1.7c0,1.7,1.3,3.3,3.3,4.2c-3.3,3.3-0.4,6.3-3.3,9.2c4.2,0,3.3-5.4,5.4-6.3
		c-0.4,4.2-2.5,4.6-2.5,9.2c0,2.5,1.3,5,0,6.3c3.3-0.8,2.5-8.3,4.6-10.8c-0.4,3.8-0.4,11.3-2.1,13.8c3.3-0.4,3.8-5.8,6.7-7.9
		c-2.9,7.9-20,52.6-28,34.6c0-9.2,15.9-15.4,15.9-25.5c-0.4-6.7-6.7-7.5-10.4-4.2c-7.1-2.9-5.8,9.6-10.8,9.6
		c2.1,1.3,5.4-0.8,7.1-3.8C8.8,62.2-0.4,60.1,0,68c0.8-5.8,21.3-7.1,15-17.1c2.9-1.7,6.3-1.3,6.7,2.9C22.1,63,0.8,71.8,7.5,83.5
		c-1.3,0.4-2.1,0.4-3.3-0.8c0,2.5,3.8,4.2,5.8,2.9c0.4,0,1.3,0.4,1.7,0.4c-0.8,2.1-2.9,2.5-4.2,2.5c3.8,2.9,10.4-0.8,10-4.2
		c2.9-2.5,5-6.7,7.1-9.6c-4.2,5.8-3.8,21.3-11.3,23.8c-2.5-1.3-3.3-0.4-2.5,2.1c-2.1,2.1-2.9,7.5-1.7,11.7c0.8-0.4,2.5-2.1,2.9-4.6
		c1.3,5.4-2.1,5,0,9.6c0.4-1.7,1.7-2.1,2.9-1.7c1.7,0.8-3.8,5.4,1.7,5.8c-1.3-2.9,4.2-1.3,6.3-1.3c1.3-0.4,4.6-3.8,3.8-0.4
		c3.3-0.8,1.7-3.3,2.1-4.6c0.8-0.4,2.9,0,2.1,1.7c2.9-0.4,1.7-5-1.3-4.2c-3.8-5-10,8.8-12.1-9.2C22.5,94.7,38,96,35.1,78
		c5.8,3.3,4.6,10.8,0,12.5c2.5,2.9,1.7,6.3,5.8,9.6c0.4-0.8,0-2.1,0-3.8c2.9,1.3,0.4,6.7,5.8,6.7c-1.7-2.1,0.4-3.3,2.1-0.4
		c0.8,1.3,0.8,1.3,3.3,1.3c2.5-0.4,4.6-2.1,3.3,1.7c2.1-0.8,2.9-2.5,2.1-4.2c2.1-1.3,2.9,0.4,3.3,1.7c2.1-2.1,0-4.2-1.7-4.6
		c-0.8-2.9-4.6-1.3-6.3,0C26.7,87.2,65.9,86,39.7,71.4c1.7-1.7,6.3-2.1,8.8-0.8c0.4-1.7,1.3-1.3,1.7-3.8c0.8,2.1,0,4.2,0.8,5
		c0.8-1.3,2.5-0.8,2.5-3.8c0.4,1.7-0.8,4.2,0.4,5.4c0.4-2.1,2.5-2.5,2.5-0.4c0,2.1-2.5,1.3-2.5,3.3c0.4,1.3,2.9,3.8-0.8,2.9
		c0.8,2.5,4.2,2.1,5-0.4c0.4,1.7,0,3.3-0.8,3.3c1.3,0.4,3.8,0,3.8-3.3c1.7,0.4,2.5,1.3,1.3,3.3C65.5,81.4,63.9,79.3,63.9,77.2"/>
	<path class="st0" d="M165.3,102.2c0-4.2,6.7-4.2,6.7,0C171.9,106.8,165.3,106.8,165.3,102.2 M164.4,102.2c0,5.8,8.8,5.8,8.8,0
		C173.2,96.8,164,96.8,164.4,102.2"/>
	<path class="st0" d="M149.8,110.6c-2.9-0.4-2.1-4.2,0.4-3.3C153.2,107.7,152.7,111,149.8,110.6 M147.7,106.4
		c-3.3,2.5,1.3,6.7,4.2,4.6C156.1,108.9,150.6,104.3,147.7,106.4"/>
	<path class="st0" d="M123.1,47.2c0-1.3,1.3-2.5,2.5-2.1C129,45.9,123.5,50.5,123.1,47.2 M123.5,44.2c-1.3,1.3-1.7,2.9-0.8,4.2l0,0
		C127.7,53,130.6,40.5,123.5,44.2"/>
	<path class="st0" d="M144.4,105.2L144.4,105.2L144.4,105.2z M144.4,104.3c-2.1,0-2.1-4.6,0-4.6S146.5,103.9,144.4,104.3
		 M142.3,99.3c-2.1,1.7-1.3,6.3,1.7,6.3C149.4,105.2,146.9,95.6,142.3,99.3"/>
	<path class="st0" d="M121.9,67.6c-2.9-1.3-0.8-4.6,1.7-2.9C126,65.9,124.4,69.3,121.9,67.6 M121,63.4c-4.2,1.7,0,7.1,3.3,5.4
		C128.1,67.2,123.9,62.2,121,63.4"/>
	<path class="st0" d="M152.7,83.5c-1.7,2.5-4.6,0.4-2.9-2.1C151.9,78.9,154.8,81.4,152.7,83.5 M147.7,91.8c-1.7,2.5-4.6,0.4-2.9-2.1
		S149.4,89.3,147.7,91.8 M129.8,46.7c0.4-2.1,1.7-5.8,1.7-5.8l2.1,0.8c-0.4,0.4-1.3,0.8-2.1,1.3c0.4,0,1.3,0.4,1.7,0l-0.4,2.1
		c0-0.4-0.8-1.3-1.3-1.3c-0.8,4.6,7.5,2.5,2.1,1.7c-0.4-2.1,2.1-2.1,2.5-0.4c0-1.7,0.8-2.9,2.1-3.3c0.4,1.7,0,2.9-1.3,4.2
		c1.7-0.8,2.9,1.3,0.8,2.1c-4.2-3.8-0.4,5,2.5,0.8c-0.4,0-1.3,0-2.1,0.4l1.3-2.5c0,0.4,0.4,0.8,0.8,1.7c0-0.4,0.4-1.7,0-2.5l2.9,1.7
		c-0.8,0-1.7,0.8-2.1,1.3c0.8,0.4,1.3,0,1.7,0l-1.7,2.5c0-0.8-0.4-1.7-0.4-1.7c-2.5,4.6,7.1,3.8,1.7,1.7c0-2.1,2.1-2.1,2.5,0
		c0.4-1.7,1.3-2.5,2.9-2.9c0.4,1.7-0.4,2.9-2.1,3.8c1.7-0.4,2.5,1.7,0.8,2.1c-3.3-3.8-0.8,4.2,2.5,1.3c0.4-1.3-0.4-1.7-0.8-1.7
		l1.3-1.7c0,0.8,0.4,1.3,0.8,1.7c0-0.8,0.4-1.7,0.4-2.5l1.7,1.3c0,0-2.9,2.9-4.2,4.6L129.8,46.7z M151.5,71.4
		c0.4-2.9,4.2-0.8,4.2,1.3C155.2,75.5,151.1,73.4,151.5,71.4 M159.4,107.7c0.4-1.7,2.9-2.9,4.2-1.7l0,0
		C164.8,108.9,159,111,159.4,107.7 M121.9,53c0,2.5-2.9,2.5-2.9,0C118.9,50.1,121.9,50.5,121.9,53 M133.5,28.8
		c0.4-3.8,2.9-3.3,5.4-1.7C136.9,27.5,134.8,28,133.5,28.8 M167.3,58.8c1.3,3.8,4.2,5.4,6.7,4.2c-5-0.4-1.3-10.4-8.3-8.8
		c-3.8-3.8-10.8-0.8-11.3,6.3c0,11.3,13.4,12.5,13.4,22.5c-4.2,12.9-11.3-2.9-15.4-8.8c3.3,2.5,6.3-1.7,3.3-4.6
		c-2.1-2.5-6.3-0.8-5,2.5c-4.6-6.3-7.9-9.2-2.9-14.6l0.4,0.4c0.8-1.3,2.1-2.1,4.6-5l0,0l0.4-0.4l-1.3-1.3c0.4-0.8,0.8-1.7,0.8-2.9
		c0.4,1.7,1.3,2.9,2.5,2.5c-0.8-2.1,0.8-4.6-0.4-9.2c1.3,1.7,2.5,2.9,3.8,2.5c-2.9-2.5,0.8-6.3-2.9-11.7c1.3,0.4,2.1,0,2.5-0.4
		c-3.3-0.4-2.1-5-7.9-6.7c1.7-0.4,2.5-1.3,2.1-2.1c-1.7,1.3-2.9-2.1-8.3-2.1c-0.4-2.1-2.1-4.2-4.2-5c0.4,1.7,0,2.9-0.4,4.2
		C138.5,20,122.3,2.9,121,2.9c-0.4,0.8,14.6,18.8,15,19.6c-1.7,0.8-4.6,0.8-4.6,3.3c-2.9,2.9-7.5,3.3-6.7,7.5
		c0.4,0.8-0.8,2.5,1.7,1.3c1.3-0.8,4.6-2.5,5-1.7c0.4,1.3-4.6,2.1-4.6,3.3c1.3,0,0.8,0.8,2.1,1.3c2.1-1.7,1.3,0.8,0.8,2.1
		c2.9,0.4,3.8-8.8,3.8-2.5c0.8,0,1.7-1.3,1.7-3.3c1.7-1.7,2.1,0.8,4.6,0.8c4.2-0.4,5.8-3.3,4.2-5.8c5.4,5.8-5.8,8.8-9.2,12.5
		l-3.3-1.3c-0.4,1.7-1.3,4.6-2.1,6.7v0.4h0.4c-2.1,2.9-3.8,5.8-4.2,8.8c-0.8-0.8-1.7-1.7-2.5-2.5c1.3-2.5-2.1-5.8-4.2-3.3
		c-3.3-2.9-6.3-5.8-10-1.3c0.8,0.8,1.3,1.3,2.1,2.1c3.8-2.9,4.6,3.3,8.8,6.7c-2.5,1.3-9.2-0.8-7.5,4.6c0.8,1.7,3.8,6.3,4.6,8.3
		c1.3,3.3,6.7,3.8,8.3,5.8v-1.7c-4.6-2.1-2.5-2.1,1.3-0.4c-0.4-1.7-1.7-3.3-2.9-4.2c-1.3-0.4-2.5-0.4-2.9,0c0,0.8-1.7,0.8-1.3,0
		c1.3-1.3,0.4-2.9-1.3-2.5c-7.1-9.2,0.8-5,7.9-5c-0.8,8.8,11.3,8.3,14.6,14.6c-17.1,0-13.8,9.2-9.2,16.3
		c-4.2,6.3-17.5,2.5-22.1,11.3c0,0,0.8,0.4,1.7,0c2.5-3.8,4.2-4.6,1.3,0.4c7.5,0,5.4-2.1,5.4-4.6c2.1-1.3,2.1,2.5,4.6,1.3
		c0,0,12.1-5,13.8-5.8c1.3-0.4,0.8-1.3,0-2.1c-2.9-3.8-0.4-8.8,5-7.9c-1.7,6.3,8.3,13.4,10.8,13.4c1.3,0,2.5-0.8,2.5,2.5
		c0,2.5,0.4,4.2,0,7.5c-0.8,4.6-6.3,7.1-7.1,10.4c2.1,1.7,2.9-4.2,4.2-4.6c-0.8,1.7-1.3,4.2-1.7,5c4.2,0.4,7.5-2.9,4.6-5.8
		c0-1.7,2.9-0.8,2.9,0c1.7-0.4,1.7-4.6,1.7-6.7c8.3,6.7,7.5-11.7,0-1.7c0.4-19.2-2.9-2.5-6.3-14.2c0-2.5,2.5-5.8,2.5-9.2
		c0.8-3.3,2.1,2.5,3.3,3.3c-0.8,4.2,4.2,8.3,7.9,5.4c-2.1,0.4-3.3-1.3-4.2-3.3c0.4,0,1.3,0,1.7,0c0.8,3.3,5.4,3.3,6.3-0.8
		c-0.8,0.8-2.5,1.7-3.3,1.3c10-11.7-10.8-17.5-10.8-27.5c0-4.6,4.6-7.5,7.5-5.4c-6.7,9.2,11.7,11.7,12.1,15
		C177.4,64.7,167.8,66.3,167.3,58.8"/>
</g>
</svg>
