<?xml version="1.0" encoding="utf-8"?>
<!-- Generator: Adobe Illustrator 26.2.1, SVG Export Plug-In . SVG Version: 6.00 Build 0)  -->
<svg version="1.1" id="Layer_1" xmlns="http://www.w3.org/2000/svg" xmlns:xlink="http://www.w3.org/1999/xlink" x="0px" y="0px"
	 viewBox="0 0 196.2 170.6" style="enable-background:new 0 0 196.2 170.6;" xml:space="preserve">
<path d="M51.3,11.6V17c2.8,0.1,4.8,0.6,5.8,0.9C56.6,14.8,54.3,12.4,51.3,11.6"/>
<path d="M48.1,7.8c0,1.9-0.4,3-0.9,3.8c0,0,0.9-0.3,2.1-0.3c0.8,0,2,0.3,2.1,0.3c-0.5-0.8-0.9-2-0.9-3.8c4,0,5,1.9,5,3.4h0.8V2.1
	h-0.8c0,1.5-1,3.4-5,3.4c0-4,1.9-5,3.4-5v-0.8h-9.2v0.8c1.5,0,3.4,1,3.4,5c-4,0-5-1.9-5-3.4h-0.7v9.2h0.8C43,9.6,43.9,7.8,48.1,7.8
	 M47.1,11.6c-2.9,0.8-5.1,3.3-5.8,6.3c1-0.3,3-0.8,5.8-0.9V11.6z M52.1,144.5c0,1.9,1.5,3.4,3.4,3.4c1.9,0,3.4-1.5,3.4-3.4
	c0-1.9-1.5-3.4-3.4-3.4C53.6,141.3,52.1,142.6,52.1,144.5 M53.8,144.5c0-0.9,0.8-1.7,1.7-1.7c0.9,0,1.7,0.8,1.7,1.7
	c0,0.9-0.8,1.7-1.7,1.7C54.5,146.2,53.8,145.5,53.8,144.5 M45.9,100.1c0-1.7-1.3-3-3-3h-17c-1.4,0-2.6,1.1-2.6,2.6
	c0,1,0.8,1.9,1.9,1.9s1.9-0.8,1.9-2c0.4,0.4,0.8,0.6,1.3,0.9c-0.3,1-0.5,2.5-0.6,4.2c-0.3-0.4-0.6-0.5-1-0.5c-0.6,0-1.3,0.5-1.3,1.3
	c0,0.6,0.5,1.3,1.3,1.3c0.4,0,0.8-0.3,1-0.5c0,0.9,0,1.9,0.1,2.9c-0.3-0.1-0.5-0.3-0.8-0.3c-0.6,0-1.3,0.5-1.3,1.3
	c0,0.6,0.5,1.3,1.3,1.3c0.4,0,0.9-0.3,1-0.6c0,0.1,0,0.3,0.1,0.4c0.3,0.8,0.5,1.5,0.8,2.3c-0.1-0.1-0.4-0.1-0.6-0.1
	c-0.6,0-1.3,0.5-1.3,1.3c0,0.6,0.5,1.3,1.3,1.3c0.6,0,1.1-0.5,1.3-1c0.4,0.8,0.9,1.5,1.5,2.4h-0.3c-0.6,0-1.3,0.5-1.3,1.3
	c0,0.8,0.5,1.3,1.3,1.3c0.6,0,1.3-0.5,1.3-1.3v-0.1c2,2,4.4,3.6,7.4,4.9l-0.5,3.9c0,0,1.1,0.5,3,1c1.9,0.5,3.5,0.8,3.5,0.8
	L45.9,100.1z M30.5,101.7c0,0,0.1,0,0.3,0.1l9.3,18.8C28.6,115.4,29.7,106,30.5,101.7z M40.3,119.2l-8.5-17.2c0.5,0.1,1,0.1,1.5,0.1
	l7.3,14.8L40.3,119.2z M40.8,115.4l-6.5-13.3c0.5,0,0.9-0.1,1.3-0.3l5.5,11.3C41.1,113,40.8,115.4,40.8,115.4z M41.4,111.6l-5-9.9
	c0.4-0.1,0.8-0.3,1.1-0.5l4,8.2C41.7,109.2,41.4,111.6,41.4,111.6z M41.9,107.8l-3.5-7c0.4-0.3,0.8-0.5,1-0.8l2.8,5.5L41.9,107.8z
	 M42.8,101.3l-0.4,2.9l-2.2-4.5c0.3-0.1,0.5-0.1,0.8-0.1C42,99.3,42.9,100.2,42.8,101.3z M34.6,24.3c0-1,0.9-2,2-2s2,0.9,2,2
	c0,1.1-0.9,2-2,2C35.6,26.4,34.6,25.4,34.6,24.3 M8.6,38.1c0-1,0.9-2,2-2c1.1,0,2,0.9,2,2c0,1.1-0.9,2-2,2S8.6,39.2,8.6,38.1
	 M7.6,33.1c0-1.1,0.9-2,2-2s2,0.9,2,2s-0.9,2-2,2C8.5,35.1,7.6,34.2,7.6,33.1 M8,27.9c0-1,0.9-2,2-2c1.1,0,2,0.9,2,2s-0.9,2-2,2
	S8,29,8,27.9 M10.8,23.5c0-1,0.9-2,2-2c1.1,0,2,0.9,2,2s-0.9,2-2,2C11.6,25.6,10.8,24.7,10.8,23.5 M14.9,20.5c0-1,0.9-2,2-2
	s2,0.9,2,2c0,1.1-0.9,2-2,2C15.8,22.6,14.9,21.7,14.9,20.5 M20,19.5c0-1,0.9-2,2-2c1.1,0,2,0.9,2,2s-0.9,2-2,2
	C20.9,21.7,20,20.8,20,19.5 M25,20.7c0-1,0.9-2,2-2c1.1,0,2,0.9,2,2c0,1-0.9,2-2,2C25.9,22.7,25,21.8,25,20.7 M29.9,22.6
	c0-1,0.9-2,2-2c1.1,0,2,0.9,2,2c0,1.1-0.9,2-2,2C30.8,24.6,29.9,23.7,29.9,22.6 M63.8,24.3c0-1-0.9-2-2-2s-2,0.9-2,2
	c0,1.1,0.9,2,2,2C62.9,26.4,63.8,25.4,63.8,24.3 M89.8,38.1c0-1-0.9-2-2-2c-1.1,0-2,0.9-2,2c0,1.1,0.9,2,2,2
	C88.9,40.1,89.8,39.2,89.8,38.1 M90.9,33.1c0-1.1-0.9-2-2-2s-2,0.9-2,2s0.9,2,2,2C89.9,35.1,90.9,34.2,90.9,33.1 M90.3,27.9
	c0-1-0.9-2-2-2c-1.1,0-2,0.9-2,2s0.9,2,2,2C89.5,29.9,90.3,29,90.3,27.9 M87.8,23.5c0-1-0.9-2-2-2c-1,0-2,0.9-2,2s0.9,2,2,2
	C86.8,25.6,87.8,24.7,87.8,23.5 M83.5,20.5c0-1-0.9-2-2-2c-1.1,0-2,0.9-2,2c0,1.1,0.9,2,2,2C82.6,22.6,83.5,21.7,83.5,20.5
	 M78.5,19.5c0-1-0.9-2-2-2c-1.1,0-2,0.9-2,2s0.9,2,2,2C77.5,21.7,78.5,20.8,78.5,19.5 M73.3,20.7c0-1-0.9-2-2-2c-1.1,0-2,0.9-2,2
	c0,1,0.9,2,2,2C72.6,22.7,73.3,21.8,73.3,20.7 M68.4,22.6c0-1-0.9-2-2-2c-1,0-2,0.9-2,2c0,1.1,0.9,2,2,2
	C67.7,24.6,68.4,23.7,68.4,22.6 M66.5,53.2c0-1.1-1-2.3-2.3-2.3c-1.1,0-2.3,1-2.3,2.3s1,2.3,2.3,2.3C65.4,55.5,66.5,54.4,66.5,53.2
	 M52,66.6V92h22.5V66.6H52z M73.8,91.3H52.6v-24h21.1L73.8,91.3z"/>
<path d="M54.9,68.1h-1.3v22.2H73V68.1H54.9z M71.6,68.8v0.6h0.6v19.6h-0.6v0.6H54.9v-0.6h-0.6V69.4h0.6v-0.6H71.6z"/>
<path d="M70.7,74.6l-1,1c0,0-0.1,0-0.1,0.1l-2,1.9c-0.6,0.5-0.8,1.4-0.3,2.1l1.1,1.5c0.1,0.1,0.1,0.3,0.1,0.5c0,0.1-0.1,0.4-0.3,0.4
	c-0.1,0.1-0.3,0.1-0.5,0.1c-0.1,0-0.4-0.1-0.4-0.3c0,0-1.1-1.5-1.7-2.4v-2.3l2.8-2.6v-2.3l-0.9-0.9l1.1-1.1h-4.9l-1.1,1.1v1.3
	c0.1-0.1,0.4-0.1,0.5-0.1c0.5,0,1,0.5,1,1c0,0.5-0.5,1-1,1c-0.1,0-0.4,0-0.5-0.1v1.5H61l-2-2.8c0.3-0.3,0.4-0.6,0.4-1
	c0-0.8-0.6-1.3-1.3-1.3c-0.3,0-0.5,0.1-0.8,0.3v2.3h0.1l1.9,2.6l0.9,1.3h2.3l-1.1,1.1h-2.4c-0.1-0.5-0.6-0.8-1.1-0.8
	c-0.5,0-1,0.4-1.1,0.8c0,0.1-0.1,0.3-0.1,0.5c0,0.2,0.1,0.6,0.3,0.8h5.4l0.9,1.3h-3.6l1.4,2l0.8,1H60c-0.1-0.5-0.6-0.9-1.3-0.9
	c-0.5,0-1,0.4-1.3,0.9v0.4c0,0.4,0.1,0.6,0.4,0.9h6.7l-0.9-1.3l-0.8-1h2.1l0.8,1l0.9,1.3h3.1v1.4h-0.4c-0.1-0.5-0.6-0.9-1.3-0.9
	c-0.6,0-1,0.4-1.3,0.9v0.4c0,0.4,0.1,0.6,0.4,0.9h3.9v-4.2h-2.6l-1.4-1.7c0.3,0.3,0.5,0.5,0.9,0.5c0.4,0,0.8,0,1.1-0.3
	c0.4-0.3,0.5-0.6,0.6-1c0-0.4,0-0.8-0.3-1.1L68,79.2c-0.3-0.3-0.1-0.8,0.1-0.9l0.5-0.5c0.5,0.4,1.1,0.4,1.7,0
	c0.3-0.3,0.4-0.5,0.4-0.9C70.8,76.8,70.7,74.6,70.7,74.6z M46.2,53.2l3-3l3,3l-3,3L46.2,53.2z M32,53.2c0-1.1,1-2.3,2.3-2.3
	c1.1,0,2.3,1,2.3,2.3s-1,2.3-2.3,2.3C33,55.5,32,54.4,32,53.2 M72.9,110.3v-0.6c0-0.9-0.6-1.5-1.5-1.5h-5.6c0-0.6-0.6-1.3-1.3-1.3
	c-0.4,0-0.6,0.1-0.9,0.4l-1.7,1.7h9.5c0.4,0,0.6,0.3,0.6,0.6s-0.3,0.6-0.6,0.6H60.2v-1.5l2-2h-7.7l2,2v2.9l-3.1-2.5
	c0.3-0.3,0.4-0.6,0.4-1c0-0.8-0.6-1.3-1.3-1.3c-0.3,0-0.6,0.1-0.9,0.3v2.4l4.9,3.9l-2.3,0.6c-0.1-0.5-0.6-0.9-1.3-0.9
	c-0.8,0-1.3,0.6-1.3,1.3c0,0.3,0.1,0.6,0.3,0.8h2.8l12.1-3.8v1.9l-1.5,0.6c-0.1-0.6-0.6-1-1.3-1c-0.8,0-1.3,0.6-1.3,1.3
	c0,0.3,0.1,0.6,0.3,0.8h3l1.9-0.9l1.1-0.5l-0.5-1.1v-0.3h4.4c0,0.1-0.1,0.4-0.1,0.5c-0.1,0.3-0.3,0.6-0.4,0.9
	c-0.3-0.3-0.6-0.4-1-0.4c-0.8,0-1.3,0.6-1.3,1.3c0,0.3,0.1,0.6,0.3,0.8h2.8c0.4-0.8,0.6-1.7,0.8-2.3c0.4-1.1,0.6-2.3,0.6-2.6
	C74.2,110.3,72.9,110.3,72.9,110.3z M58.4,110.5l-1.3-1.3h2.6L58.4,110.5z M73.1,100.6c0.1-0.3,0.1-0.4,0.1-0.6
	c0-0.9-0.6-1.5-1.5-1.5h-5.9c0-0.6-0.6-1.3-1.3-1.3c-0.4,0-0.6,0.1-0.9,0.4l-1.7,1.7h9.9c0.4,0,0.6,0.3,0.6,0.6
	c0,0.3-0.3,0.6-0.6,0.6H60.2v-1.5l2-2h-7.7l2,2v2.9l-3.1-2.5c0.3-0.3,0.4-0.6,0.4-0.9c0-0.8-0.6-1.3-1.3-1.3c-0.3,0-0.6,0.1-0.9,0.3
	v2.4l4.8,3.8l-2.3,0.6c-0.1-0.5-0.6-0.9-1.3-0.9c-0.8,0-1.3,0.6-1.3,1.3c0,0.3,0.1,0.6,0.3,0.9h2.8l12.1-3.8v2l-1.5,0.5
	c-0.1-0.5-0.6-0.9-1.3-0.9c-0.8,0-1.3,0.6-1.3,1.3c0,0.3,0.1,0.6,0.3,0.9h3l3-0.9l1.4-0.5l-1.1-1l-0.8-0.8h5.4v1.4
	c-0.3-0.3-0.6-0.5-1-0.5c-0.8,0-1.3,0.6-1.3,1.3c0,0.3,0.1,0.6,0.3,0.9h3.4v-4.9C74.6,100.4,73.1,100.6,73.1,100.6z M58.4,100.8
	l-1.3-1.3h2.6L58.4,100.8z M68,117.6h-2.4c0-0.6-0.6-1.3-1.3-1.3c-0.4,0-0.6,0.1-0.9,0.4l-1.7,1.7h6.4c0.4,0,0.6,0.3,0.6,0.6
	c0,0.3-0.3,0.6-0.6,0.6h-7.7v-1.3l2-2h-7.6l2,2v3.3l-3.1-2.9c0.3-0.3,0.5-0.6,0.5-1c0-0.8-0.6-1.3-1.3-1.3c-0.3,0-0.6,0.1-0.9,0.3
	v2.3l5,4.5l0.3-0.3l-3.1,3.8c-0.3-0.3-0.6-0.3-0.9-0.3c-0.8,0.1-1.3,0.8-1.1,1.4c0,0.3,0.1,0.5,0.3,0.8c0.5,0,1.1-0.1,2.3-0.3
	l3.5-4.2c0.5-0.1,0.9-0.4,1.4-0.5l1.4,1.3l-0.8,0.4c-0.4-0.3-0.9-0.4-1.3-0.3c-0.6,0.3-1,1-0.8,1.7c0.1,0.3,0.3,0.4,0.4,0.5
	c0,0,0.5-0.1,1-0.4c0.5-0.3,1-0.4,1-0.4c0.6-0.3,1.1-0.5,1.7-0.8v-3.5c0.9-0.5,1.7-1,2.4-1.7l1.3,1.1c-0.3,0.3-0.5,0.4-0.9,0.6
	c-0.4-0.3-0.9-0.3-1.3,0c-0.3,0.1-0.5,0.5-0.6,0.8v0.5c0,0.1,0.1,0.4,0.1,0.5c0.1,0.3,0.4,0.4,0.6,0.5c0.6-0.4,1.1-0.8,1.9-1.1
	c0.4-0.3,0.9-0.6,1.3-1l0.4-0.4v-1.7h0.9c0.9,0,1.5-0.6,1.5-1.5C69.7,118.4,69,117.6,68,117.6L68,117.6z M58.4,120.2l-1.3-1.3h2.6
	L58.4,120.2z M45,87.9c0.1-0.3,0.1-0.4,0.1-0.6c0-0.9-0.6-1.5-1.5-1.5h-5.9c0-0.6-0.6-1.3-1.3-1.3c-0.4,0-0.6,0.1-0.9,0.4l-1.7,1.7
	h9.9c0.4,0,0.6,0.3,0.6,0.6c0,0.4-0.3,0.6-0.6,0.6H32.3v-1.5l2-2h-7.7l2,2v2.9l-3.1-2.5c0.3-0.3,0.4-0.6,0.4-0.9
	c0-0.8-0.6-1.3-1.3-1.3c-0.4,0-0.6,0.1-0.9,0.3V87l4.8,3.8L26,91.5c-0.1-0.5-0.6-0.9-1.3-0.9c-0.8,0-1.3,0.6-1.3,1.3
	c0,0.4,0.1,0.6,0.3,0.9h2.8L38.5,89v2l-1.5,0.5c-0.1-0.5-0.6-0.9-1.3-0.9c-0.8,0-1.3,0.6-1.3,1.3c0,0.4,0.1,0.6,0.3,0.9h2.8l3-0.9
	l1.4-0.4l-1.1-1l-0.8-0.8h5.4V91c-0.3-0.3-0.6-0.5-1-0.5c-0.8,0-1.3,0.6-1.3,1.3c0,0.4,0.1,0.6,0.3,0.9h3.3v-4.9L45,87.9L45,87.9z
	 M30.2,88l-1.3-1.3h2.6L30.2,88z M45,78.6c0.1-0.3,0.1-0.4,0.1-0.6c0-0.9-0.6-1.5-1.5-1.5h-5.9c0-0.6-0.6-1.3-1.3-1.3
	c-0.4,0-0.6,0.1-0.9,0.4l-1.7,1.7h9.8c0.4,0,0.6,0.3,0.6,0.6c0,0.3-0.2,0.7-0.5,0.7H32.3V77l2-2h-7.7l2,2v2.9l-3.1-2.5
	c0.3-0.3,0.4-0.6,0.4-0.9c0-0.8-0.6-1.3-1.3-1.3c-0.4,0-0.6,0.1-0.9,0.3v2.4l4.8,3.8L26,82.3c-0.1-0.5-0.6-0.9-1.3-0.9
	c-0.8,0-1.3,0.6-1.3,1.3c0,0.3,0.1,0.6,0.3,0.9h2.8l12.1-3.8v1.9l-1.5,0.5c-0.1-0.5-0.6-0.9-1.3-0.9c-0.8,0-1.3,0.6-1.3,1.3
	c0,0.3,0.1,0.6,0.3,0.9h2.9l3-0.9l1.4-0.5l-1.1-1l-0.8-0.8h5.4v1.4c-0.3-0.3-0.6-0.5-1-0.5c-0.8,0-1.3,0.6-1.3,1.3
	c0,0.3,0.1,0.6,0.3,0.9h3.2v-5H45V78.6L45,78.6z M30.2,78.7l-1.3-1.3h2.6L30.2,78.7z M45,69.2c0.1-0.3,0.1-0.4,0.1-0.6
	c0-0.9-0.6-1.5-1.5-1.5h-5.9c0-0.6-0.6-1.3-1.3-1.3c-0.4,0-0.6,0.1-0.9,0.4l-1.7,1.7h9.8c0.4,0,0.6,0.3,0.6,0.6
	c0,0.4-0.3,0.6-0.6,0.6H32.2v-1.5l2-2h-7.7l2,2v2.9l-3.1-2.5c0.3-0.3,0.4-0.6,0.4-0.9c0-0.8-0.6-1.3-1.3-1.3c-0.4,0-0.6,0.1-0.9,0.3
	v2.4l4.8,3.8l-2.3,0.6c-0.1-0.5-0.6-0.9-1.3-0.9c-0.8,0-1.3,0.6-1.3,1.3c0,0.4,0.1,0.6,0.3,0.9h2.8l12.1-3.8v2l-1.5,0.5
	c-0.1-0.5-0.6-0.9-1.3-0.9c-0.8,0-1.3,0.6-1.3,1.3c0,0.4,0.1,0.6,0.3,0.9h2.7l3-0.9l1.4-0.4l-1.1-1l-0.8-0.8H45v1.4
	c-0.3-0.3-0.6-0.5-1-0.5c-0.8,0-1.3,0.6-1.3,1.3c0,0.4,0.1,0.6,0.3,0.9h3.4v-5L45,69.2L45,69.2z M30.2,69.4l-1.3-1.3h2.6L30.2,69.4z
	 M86,93.1c0.9-0.3,1.3-1.1,1-2c-0.1-0.4-0.4-0.8-0.8-0.9c-0.4-0.3-0.8-0.3-1.1-0.1c-0.4,0.1-0.8,0.4-0.9,0.8
	c-0.3,0.4-0.3,0.8-0.1,1.1C84.3,92.9,85.2,93.3,86,93.1 M81.5,96.7l0.3,1.4l5.3-0.8c0.1,0,5.3,2.6,5.3,2.6l-0.4-1.8l-3.6-1.9
	c0.3-0.3,3-2.8,3-2.8L91,91.7l-0.1,0.2c0,0-4,3.8-4.2,3.9C86.6,95.9,81.5,96.7,81.5,96.7 M85.5,101.8c0,0.4,0.1,0.8,0.5,1.1
	c0.3,0.3,0.6,0.5,1.1,0.4c0.4,0,0.8-0.1,1.1-0.5c0.3-0.3,0.4-0.6,0.4-1.1c0-0.4-0.1-0.8-0.5-1.1c-0.3-0.3-0.6-0.5-1.1-0.5
	C86.1,100.1,85.5,100.9,85.5,101.8 M81.9,104.4l-0.1,1.4c0,0,4,0.5,4.3,0.6c0,0.1-0.1,1.1-0.1,1.1v0.6c0,0.6,0.1,1.3,0.5,1.9
	c0.4,0.5,1,0.9,2,1c1.9,0.3,3.1-0.6,3.4-2.5l0.4-2.9C92.2,105.8,81.9,104.4,81.9,104.4z M90.2,107.1c0,0.1-0.1,1.4-0.1,1.4
	c-0.1,1.3-1.1,1.3-1.5,1.1c-0.8-0.1-1.3-0.6-1.3-1.3V108c0,0,0.1-1,0.1-1.3C87.6,106.6,90,107,90.2,107.1z M80.9,110.3l-1.7,5
	l1.4,0.5c0,0,1.1-3.5,1.1-3.6c0.1,0.1,2.5,0.8,2.8,0.9c-0.1,0.3-1.1,3.4-1.1,3.4L85,117c0,0,1-3.3,1.1-3.4c0.1,0.1,2.5,0.8,2.6,0.9
	c-0.1,0.3-1.1,3.5-1.1,3.5l1.4,0.5l1.7-5C90.5,113.6,80.9,110.3,80.9,110.3z M79,116.1l-0.6,1c0,0,5.8,3.6,6.3,4
	c-0.6,0-9.3,0.8-9.3,0.8l-0.6,1l8.7,5.5l0.8-1.1c0,0-5.8-3.6-6.3-4c0.6,0,9.4-0.9,9.4-0.9l0.6-1C87.9,121.4,79,116.1,79,116.1z
	 M75.6,128.5c-1,0.1-2,0.4-2.6-0.3c-0.3-0.3-0.5-1,0.1-1.7s1.5-0.8,2.6-0.6h0.4l-1.5-1.5c-1,0.1-1.9,0.4-2.5,1.1
	c-0.5,0.5-0.8,1.1-0.8,1.9c0,0.8,0.3,1.4,0.9,2.1c1.3,1.3,2.8,1,4,0.8c0.9-0.3,1.7-0.4,2.4,0.1c0.1,0.3,0.3,0.4,0.3,0.6
	c0,0.4-0.1,0.6-0.5,1c-0.5,0.5-1.1,0.8-2.1,0.6H76l1.4,1.4c0.8-0.1,1.4-0.4,2-0.9c0.6-0.6,0.9-1.3,0.9-2s-0.3-1.4-0.9-2
	C78.1,128,76.7,128.2,75.6,128.5 M69.3,128l-4.3,2.9l0.8,1.3c0,0,3-2.1,3.3-2.3c0.1,0.1,1.4,2.3,1.5,2.4c-0.1,0.1-3,2.1-3,2.1
	l0.8,1.3c0,0,2.9-2,3-2c0.1,0.1,1.4,2.1,1.5,2.4c-0.1,0.1-3.1,2.1-3.1,2.1l0.8,1.3l4.3-2.9L69.3,128L69.3,128z M31.4,134.7
	c-0.1-0.1-3.9-2.5-4-2.6c0.1-0.1,2.4-3.6,2.4-3.6l-1.3-0.8v0.1l-5.4,8.5l1.3,0.8c0,0,2.3-3.5,2.4-3.6c0.1,0.1,3.9,2.5,4,2.6
	c-0.1,0.1-2.4,3.6-2.4,3.6l1.3,0.8l5.5-8.7l-1.3-0.8C33.8,131.1,31.5,134.5,31.4,134.7 M26.2,127.2c0.1-1.3-0.4-2.5-1.1-3.4
	c-2.3-2.5-5.3-2-7.2-0.3c-1.1,1-1.9,2.4-1.9,3.6c-0.1,1.3,0.4,2.5,1.3,3.5c1.9,2.1,5,2.3,7.2,0.3C25.3,130,26.1,128.6,26.2,127.2
	 M24.6,127.2c0,0.9-0.5,2-1.3,2.6c-1.5,1.4-3.6,1.4-5-0.1c-0.6-0.6-0.9-1.5-0.8-2.4c0-0.9,0.5-1.9,1.3-2.6c0.8-0.6,1.9-1,2.8-1
	c0.9,0,1.7,0.4,2.3,1C24.3,125.4,24.6,126.3,24.6,127.2 M20.8,118.7c0,0-6.3,2.9-6.8,3.1c0.3-0.5,4.3-8.5,4.3-8.5l-0.5-1.1h-0.1
	l-9.2,4.3l0.6,1.3c0,0,6.3-2.9,6.8-3.1c-0.3,0.5-4.3,8.5-4.3,8.5l0.5,1l9.2-4.3L20.8,118.7z M17.4,109.4l-0.1,0.1l-9.8,2.4l0.4,1.5
	l9.8-2.5L17.4,109.4z M12.7,106.1c-0.4-0.3-0.8-0.4-1.1-0.3c-0.4,0-0.8,0.3-1,0.6c-0.3,0.4-0.4,0.8-0.3,1.1c0,0.4,0.3,0.8,0.6,1
	c0.4,0.3,0.8,0.4,1.1,0.3c0.9-0.1,1.4-0.9,1.3-1.9C13.3,106.6,12.9,106.3,12.7,106.1 M12,102.2c0.6-0.9,1.1-1.7,2.1-1.7
	c0.3,0,0.5,0.1,0.8,0.4c0.3,0.3,0.4,0.6,0.4,1c0,0.8-0.5,1.5-1.4,2.3l-0.3,0.3h2.3c0.6-0.8,0.9-1.5,0.9-2.6c0-0.6-0.3-1.3-0.6-1.9
	c-0.5-0.5-1.3-0.8-2.1-0.8c-1.9,0-2.6,1.1-3.4,2.4c-0.5,0.8-0.9,1.5-1.7,1.5c-0.3,0-0.5-0.1-0.6-0.3c-0.3-0.3-0.4-0.6-0.4-1
	c0-0.6,0.4-1.4,1-2l0.3-0.1H7.2c-0.5,0.6-0.8,1.3-0.8,2.1c0,0.9,0.3,1.5,0.8,2.1s1.1,0.8,2,0.8C10.5,104.4,11.3,103.2,12,102.2
	 M11.4,97.9c1.4,0.4,2.9,0.1,4-0.5c1-0.6,1.9-1.7,2.1-3c0.3-1.3,0.1-2.6-0.5-3.6c-0.6-1.1-2-2.1-3.4-2.4c-2.9-0.8-5.6,0.8-6.3,3.5
	c-0.1,0.4-0.1,0.7-0.1,1.1c0,0.9,0.3,1.7,0.6,2.4C8.8,96.7,10,97.7,11.4,97.9 M9,92.3c0.3-0.9,0.8-1.5,1.4-2.1
	c0.8-0.5,1.9-0.6,2.9-0.4c1,0.3,2,0.9,2.4,1.7c0.4,0.8,0.5,1.5,0.4,2.5c-0.5,1.9-2.4,2.9-4.4,2.4C9.6,95.9,8.5,94.2,9,92.3"/>
<path d="M96.2,102.2c0-12.6-4.9-24.4-13.7-33.3c-1-1-2.1-2-3.3-3v-1.9c1.9-0.1,3.4-1.7,3.4-3.5c0-2-1.5-3.5-3.5-3.5h-0.3l3.4-1.5
	l-1.3-2.9l5.1-11.9l-2.3-0.9L78.4,52l-2.8,1.3l1.9,3.9H20.6l1.9-3.9L19.6,52l-5.3-12.2l-2,0.8l5.1,11.9L16,55.4l3.4,1.5h-0.1
	c-2,0-3.5,1.5-3.5,3.5c0,1.9,1.4,3.4,3.3,3.5v1.9c-1,0.9-2.3,2-3.3,3C7,77.7,2.1,89.5,2.1,102.1c0,9.7,2.9,19,8.5,27
	c5.5,7.7,12.9,13.6,21.9,16.8c0,0,0.5,0.1,1.3,0.5c0.1,1.3,0.9,2.5,2.1,2.9c1.3,0.5,2.8,0,3.5-0.9h0.1v13.3c0,5,4.2,8.9,9.4,8.9
	s9.4-4,9.4-8.9v-8.9l23-11c0.8-0.3,1.4-0.6,2.1-1.1c1.9-1.7,2.1-4.3,0.9-7.7c2.1-2.4,3.9-4.9,5.4-7.5
	C94,118.4,96.2,110.5,96.2,102.2L96.2,102.2z M71.7,59.2l6.8,1.4l-6.8,1.4C71.7,62.1,71.7,59.2,71.7,59.2z M49.8,130.7V95.4h27v6.7
	c0,6.5-1.1,11-2.9,14.3c-1.4,2.4-3.1,4.5-5.3,6.5l-0.4,0.4C63.4,128,56.7,130.6,49.8,130.7z M58,132c-0.5,1.1-0.9,2.5-1.1,3.9
	c-2.6-0.9-5.1-1.9-7.5-2.8C52.2,133.2,55.2,132.7,58,132z M49.8,94.2v-30h27v30H49.8z M59.3,59.2l6.8,1.4l-6.8,1.4
	C59.3,62.1,59.3,59.2,59.3,59.2z M46.7,59.2l6.8,1.4l-6.8,1.4C46.7,62.1,46.7,59.2,46.7,59.2z M34,59.2l6.8,1.4L34,62.1V59.2z
	 M21.7,59.2l6.8,1.4l-6.8,1.4C21.7,62.1,21.7,59.2,21.7,59.2z M21.7,87.8V64.2h27v30h-27C21.7,94.2,21.7,87.8,21.7,87.8z M21.7,95.4
	h27v35.3c-5.5-0.1-10.8-1.9-15.5-5c-0.1-0.1-0.4-0.3-0.5-0.4l-0.1-0.1c-0.1-0.1-0.3-0.1-0.4-0.3c-0.1-0.1-0.3-0.3-0.4-0.3l-0.1-0.1
	c-2.9-2.3-5.4-5.1-7.2-8.4c-1.7-3.3-2.8-7.7-2.8-14.2C21.7,102.1,21.7,95.4,21.7,95.4z M34.5,144.4c-0.4-0.1-0.8-0.3-1-0.4
	c-8.4-3.1-15.6-8.8-20.7-16.1c-5.3-7.4-8.2-16.3-8.2-25.6c0-11.9,4.5-23,13.1-31.5c0.5-0.5,1-1,1.5-1.4v12.2c-1.9-1.3-3.9-2.6-4-2.8
	c0.1-0.1,1.7-2.6,1.7-2.6l-1.3-0.8v0.1l-4.1,6.3l1.3,0.8c0,0,1.5-2.4,1.7-2.6c0.1,0.1,2.9,1.9,4.9,3.3v4.3l-8.7-3.9v0.1L10.1,85
	l9.3,4.3v5.3c-0.6,2.5-1,5.1-1,7.9c0,5.6,1.5,10.8,4.2,15.5c1.7,3.3,3.9,5.5,6,7.4c0.9,0.8,1.9,1.5,2.9,2.4c0.1,0,0.1,0.1,0.3,0.1
	c0.1,0.1,0.3,0.1,0.4,0.3c0.1,0.1,0.3,0.1,0.4,0.3l0.1,0.1c0.8,0.5,1.5,1,2.5,1.4c1.1,0.5,2.8,1.3,4.5,2.1l-2,4.9l-0.9-0.4
	c-0.5-0.3-1.1,0-1.4,0.5c-0.3,0.5,0,1.1,0.5,1.4l0.9,0.4C36.8,138.7,34.5,144.4,34.5,144.4z M56.2,162c0,0.9-0.3,1.9-0.6,2.6
	c-0.4,0.6-1,1-1.7,1c-0.9,0-1.7-0.5-2-1.4c0-0.1-0.1-0.5-0.3-1.1c0.3,0.1,0.5,0.1,0.8,0.1c1.1,0,2.1-0.9,2.1-2c0-1.1-0.9-2-2.1-2
	c-0.6,0-1.1,0.3-1.5,0.6c-0.6-2.6-1.3-5.5-1.3-5.5h-0.9c0,0-0.6,2.9-1.3,5.5c-0.4-0.4-0.9-0.6-1.4-0.6c-1.1,0-2,0.9-2,2
	c0,1.1,0.9,2,2,2c0.3,0,0.5,0,0.8-0.1c-0.1,0.5-0.3,1-0.3,1.1c-0.3,0.8-1,1.4-2,1.4c-0.8,0-1.4-0.4-1.9-1c-0.4-0.8-0.5-1.7-0.5-2.6
	v-12.6c4.2,1.3,9.4,2.9,14.3,3.9C56.4,153.3,56.2,162,56.2,162z M57.4,151.1c-7.3-1.5-15.8-4.3-20.8-6c0.5-1.1,1.3-3.3,2.3-5.5
	l1.3,0.5v0.3c0,1.9,1.5,3.4,3.4,3.4c1.9,0,3.4-1.5,3.4-3.4c0-1.9-1.5-3.4-3.4-3.4c-1,0-1.9,0.4-2.5,1.1l-1.4-0.6
	c0.8-2,1.4-3.8,2-4.9c5,2.1,11.4,4.5,17.6,6.5c6.5,2,11.8,3.1,15.7,3.5C67.8,146,57.9,150.8,57.4,151.1z M82.1,139
	c-0.6,0.6-2.3,1.3-5.5,1.3c2.3-1.5,4.2-3.3,6-5.3C83.1,136.9,83,138.2,82.1,139z M72.8,140c-3.1-0.4-7.4-1.4-13.1-3.1
	c-0.3-0.1-0.5-0.1-0.8-0.3c0.5-3.3,1.5-5.4,3.4-6.4c2.9-1.3,5.5-3.1,7.9-5.4c2.1-1.9,4.2-4,5.8-7.2c2.6-4.5,4.2-9.9,4.2-15.6
	c0-2.6-0.4-5.4-1-7.9v-5l1.4,3.6l1.4-0.5c0,0-1.4-3.5-1.4-3.6c0.3-0.1,8.2-3.3,8.2-3.3l-0.5-1.4h-0.1l-8.8,3.5v-0.6l5.9-8.4
	l-0.5-0.9h-0.1l-5.3,1.1v-9.8c0.5,0.5,1,0.9,1.5,1.4C89.2,78.6,94,89.9,94,101.8c0,7.7-2,15.5-5.9,22.1
	C84.3,130.7,79.1,136.1,72.8,140z M79.7,83.9l-0.5,0.8v-1.5C79.2,83.1,79.7,83.9,79.7,83.9z M79.3,80.5c0.3,0,2.9-0.6,3.3-0.8
	c-0.3,0.4-1.9,2.6-2,2.8C80.5,82.3,79.5,80.7,79.3,80.5z"/>
<path d="M84.3,26.8c-1.9-2.8-4.9-3.9-7-3.9c-3.1,0-6.4,1.3-9.5,2.6c-3.5,1.4-7.2,2.9-10.8,2.6c0.4-1.3,0.9-2.6,1.5-3.6l-2.3-1
	c0.4-0.8,0.8-1.7,0.9-2.8c-0.3-0.1-3.3-1.1-8.2-1.1s-7.5,1-7.9,1.1c0.1,1,0.4,2,0.9,2.8l-2.3,1c0.6,1,1.1,2.4,1.5,3.6
	c-3.6,0.4-7.3-1.1-10.8-2.6c-3.1-1.3-6.4-2.6-9.5-2.6c-2.3,0-5.3,1.1-7,3.9c-1.4,2.3-2.6,6.4,0.5,13.1v-0.1l4.5-2l0.3,0.8
	c-1.4,0.6-2.9,2.4-1.1,6.3c3.9-1.7,4-3.9,3.4-5.4l0.8-0.3l2,4.4l2,4.4l-0.8,0.3c-0.6-1.4-2.4-2.9-6.3-1.1c1.7,3.9,4.8,5.5,7,5.5
	c4,0,6.9-2.5,6.5-5c-0.3-1.9-2-2.5-2.6-2.4c-0.8,0.1-1.3,1-1.1,1.5c0,0.1,0.1,0.3,0.1,0.4l-0.1,0.1c-1-0.1-2-0.9-2.3-2
	c-0.3-1.3,0.6-2.6,2-2.9c0.8-0.1,1.5,0.1,2.3,0.6l0.3-0.4c-0.8-0.4-1.3-1-1.4-2c-0.4-2.1,2-4.2,2.1-4.2c0,0,3,1,3.4,3.1
	c0.1,0.9-0.1,1.7-0.6,2.4l0.4,0.3c0.3-0.6,0.9-1.3,1.9-1.4c1.3-0.3,2.6,0.6,2.9,2c0.3,1-0.4,2.3-1.3,2.6l-0.3-0.1v-0.4
	c-0.1-0.6-0.9-1.1-1.7-1c-0.6,0.1-2,1.3-1.5,3.1c0.6,3.1,3.3,5.4,6.4,5.4S48,49.9,48,46c-4.5,0-5.6,2.1-5.6,3.9h-0.9V39.5h0.8
	c0,1.7,1.1,3.9,5.6,3.9c0-4.5-2.1-5.6-3.9-5.6v-0.9h10.3v0.9c-1.7,0-3.9,1.1-3.9,5.6c4.5,0,5.6-2.1,5.6-3.9h0.9v10.4h-0.6
	c0-1.7-1.1-3.9-5.6-3.9c0,3.9,3.3,6.5,6.5,6.5c3.1,0,5.9-2.3,6.4-5.4C64,45.3,62.6,44,62,44c-0.8-0.1-1.5,0.4-1.7,1v0.4l-0.1,0.1
	c-0.9-0.5-1.5-1.5-1.3-2.6c0.3-1.3,1.5-2.3,2.9-2c0.8,0.1,1.4,0.6,1.9,1.4l0.4-0.3c-0.5-0.6-0.8-1.4-0.6-2.4
	c0.4-2.1,3.4-3.1,3.4-3.1s2.5,2.1,2.1,4.2c-0.1,0.9-0.8,1.5-1.4,2l0.3,0.4c0.5-0.5,1.3-0.8,2.3-0.6c1.3,0.3,2.3,1.5,2,2.9
	c-0.3,1.1-1.1,2-2.3,2l-0.1-0.1c0.1-0.1,0.1-0.3,0.1-0.4c0.1-0.6-0.4-1.4-1.1-1.5c-0.6-0.1-2.4,0.5-2.6,2.4c-0.4,2.5,2.6,5,6.5,5
	c2.4,0,5.4-1.5,7-5.5c-3.9-1.7-5.6-0.3-6.3,1.1l-0.8-0.3l2-4.4l2-4.4l0.8,0.3c-0.6,1.4-0.5,3.6,3.4,5.4c1.7-3.9,0.3-5.6-1.1-6.3
	l0.3-0.8l4.5,2v0.1C86.9,33.1,85.8,29,84.3,26.8 M42.3,32.6c-2.3,0-4,1.1-5.1,3c-1.1-2.1-3.8-3.4-6.3-2.9c-1.9,0.4-3.4,1.7-4,3.3
	c-1-1.7-2.9-2.8-5-2.8c-2.6,0-4.9,1.7-5.6,4c-1.4-3.8-1.4-6.9,0-9.2s3.9-2.9,5-2.9c2.8,0,5.6,1.1,8.7,2.4c3.9,1.5,8,3.3,12.4,2.6
	c0.1,0.8,0.3,1.4,0.4,2.3C42.5,32.6,42.4,32.6,42.3,32.6 M49.2,20.4c1.1,0,2.3,0.9,2.4,2.1c-0.6-0.5-1.4-0.9-2.4-0.9
	s-1.7,0.4-2.4,0.9C46.9,21.3,48.1,20.4,49.2,20.4 M49.2,22.6c1.1,0,2.3,0.9,2.4,2.1c-0.6-0.5-1.4-0.9-2.4-0.9s-1.7,0.4-2.4,0.9
	C46.9,23.5,48.1,22.6,49.2,22.6 M49.2,35.9c-1.3,0-2.4-1-2.4-2.4s1-2.4,2.4-2.4s2.4,1,2.4,2.4C51.6,34.7,50.6,35.9,49.2,35.9
	 M51.5,30.7c-0.6-0.5-1.4-0.8-2.3-0.8c-0.9,0-1.5,0.3-2.3,0.8c-0.1-0.3-0.1-0.5-0.1-0.8c0-1.3,1-2.4,2.4-2.4s2.4,1,2.4,2.4
	C51.6,30.2,51.6,30.5,51.5,30.7 M51.6,27.4c-0.6-0.5-1.4-0.9-2.4-0.9c-0.9,0-1.7,0.4-2.4,0.9v-0.1c0-1.3,1-2.4,2.4-2.4
	s2.4,1,2.4,2.4V27.4 M82.2,37.2c-0.8-2.4-3-4-5.6-4c-2.1,0-3.9,1-5,2.8c-0.8-1.5-2.3-2.9-4-3.3c-2.6-0.5-5.1,0.6-6.3,2.9
	c-1-1.7-2.9-3-5.1-3h-0.5c0.1-0.6,0.3-1.4,0.4-2.3c4.4,0.6,8.5-1,12.4-2.6c3-1.1,5.9-2.4,8.7-2.4c1,0,3.5,0.6,5,2.9
	C83.6,30.3,83.6,33.5,82.2,37.2 M63.3,65.9h-0.9l0.5,1h0.5l-0.1,0.4l0.1-0.3h0.1l0.1-0.1l0.5-1H63.3z M52.3,66.9L52.2,67v0.4
	l-0.9-0.1v-0.6l-0.6-1.1l0.1-0.1l1.1,0.6h0.7V67L52.3,66.9"/>
<path d="M53,66.6c-0.1,0-0.3-0.1-0.3-0.3c0-0.1,0.1-0.3,0.3-0.3c0.2,0,0.1,0,0.3,0.1h0.1v-0.3c0-0.4-0.3-0.6-0.6-0.6
	c-0.4,0-0.6,0.3-0.6,0.6c0,0.4,0.3,0.6,0.6,0.6L53,66.6 M52,67.6c0-0.1-0.1-0.3-0.3-0.3c-0.2,0-0.3,0.1-0.3,0.3c0,0.2,0,0.1,0.1,0.3
	V68h-0.3c-0.4,0-0.6-0.3-0.6-0.6c0-0.4,0.3-0.6,0.6-0.6c0.4,0,0.6,0.3,0.6,0.6L52,67.6 M52.3,91.9l-0.1-0.1v-0.4l-0.9,0.1V92
	l-0.6,1.1l0.1,0.3l1.1-0.8h0.7v-0.9L52.3,91.9"/>
<path d="M53,92c-0.1,0-0.3,0.1-0.3,0.3c0,0.1,0.1,0.3,0.3,0.3c0.2,0,0.1,0,0.3-0.1h0.1v0.3c0,0.4-0.3,0.6-0.6,0.6
	c-0.4,0-0.6-0.3-0.6-0.6c0-0.3,0.3-0.6,0.6-0.6L53,92 M52,91c0,0.1-0.1,0.3-0.3,0.3c-0.2,0-0.3-0.1-0.3-0.3c0-0.1,0-0.1,0.1-0.3
	v-0.1h-0.3c-0.4,0-0.6,0.3-0.6,0.6c0,0.4,0.3,0.6,0.6,0.6c0.4,0,0.6-0.3,0.6-0.6L52,91 M74.1,91.9l0.1-0.1v-0.4l0.9,0.1V92l0.6,1.1
	l-0.1,0.3l-1.1-0.8h-0.6v-0.9L74.1,91.9"/>
<path d="M73.4,92c0.1,0,0.3,0.1,0.3,0.3c0,0.1-0.1,0.3-0.3,0.3c-0.1,0-0.1,0-0.3-0.1H73v0.3c0,0.4,0.3,0.6,0.6,0.6s0.7-0.4,0.7-0.8
	c0-0.4-0.2-0.6-0.6-0.6H73.4 M74.5,91c0,0.1,0.1,0.3,0.3,0.3c0.1,0,0.3-0.1,0.3-0.3c0-0.1,0-0.1-0.1-0.3v-0.1h0.3
	c0.4,0,0.6,0.3,0.6,0.6c0,0.4-0.3,0.6-0.6,0.6c-0.3,0-0.6-0.3-0.6-0.6L74.5,91 M74.1,66.9l0.1,0.1v0.4l0.9-0.1v-0.6l0.6-1.1
	l-0.1-0.1L74.5,66h-0.6V67l0.3-0.1"/>
<path d="M73.4,66.6c0.1,0,0.3-0.1,0.3-0.3c0-0.1-0.1-0.3-0.3-0.3c-0.1,0-0.1,0-0.3,0.1H73v-0.3c0-0.4,0.3-0.6,0.6-0.6
	s0.6,0.3,0.6,0.6c0,0.4-0.3,0.6-0.6,0.6L73.4,66.6 M74.5,67.6c0-0.1,0.1-0.3,0.3-0.3c0.1,0,0.3,0.1,0.3,0.3c0,0.2,0,0.1-0.1,0.3V68
	h0.3c0.4,0,0.6-0.3,0.6-0.6c0-0.4-0.3-0.6-0.6-0.6c-0.3,0-0.6,0.3-0.6,0.6C74.5,67.4,74.5,67.6,74.5,67.6z M62.1,68.4h2v1.3h-2
	C62.1,69.8,62.1,68.4,62.1,68.4z"/>
<path d="M63.4,70.1h-0.3l-0.4-0.8h1L63.4,70.1z M64.7,69.2l-0.1,0.1c-0.1,0-0.3-0.1-0.3-0.3s0.1-0.3,0.3-0.3h-0.3
	c-0.3,0-0.5,0.3-0.5,0.5s0.3,0.5,0.5,0.5c0.2,0,0.5-0.3,0.5-0.5C64.7,69.3,64.7,69.3,64.7,69.2z M61.8,69.2l0.1,0.1
	c0.1,0,0.3-0.1,0.3-0.3s-0.1-0.3-0.3-0.3h0.3c0.3,0,0.5,0.3,0.5,0.5s-0.3,0.5-0.5,0.5c-0.3,0-0.5-0.3-0.5-0.5
	C61.8,69.3,61.8,69.3,61.8,69.2z M63.3,92.8h0.9l-0.5-1l-0.4-0.1h-0.1l0.3-0.3l-0.3,0.3H63l-0.1,0.1l-0.5,1H63.3z M62.3,89.2h2v1.3
	h-2V89.2z"/>
<path d="M63.1,88.5h0.3l0.4,0.9h-1L63.1,88.5z M61.8,89.5l0.1-0.1c0.1,0,0.3,0.1,0.3,0.3c0,0.2-0.2,0.2-0.3,0.2h0.3
	c0.3,0,0.5-0.3,0.5-0.5c0-0.3-0.3-0.5-0.5-0.5c-0.3,0-0.5,0.3-0.5,0.5C61.8,89.4,61.8,89.4,61.8,89.5z M64.7,89.5l-0.1-0.1
	c-0.1,0-0.3,0.1-0.3,0.3c0,0.2,0.1,0.3,0.3,0.3h-0.3c-0.3,0-0.5-0.3-0.5-0.5c0-0.3,0.3-0.5,0.5-0.5c0.2,0,0.5,0.3,0.5,0.5
	C64.7,89.4,64.7,89.4,64.7,89.5z M75.2,79.3v-0.9l-1,0.5v0.5l-0.3-0.1l0.3,0.3H74l0.1,0.1l1,0.5V79.3z M71.7,78.3h1.3v2h-1.3V78.3z
	 M70.9,79.4v-0.3l0.8-0.4v1L70.9,79.4z M72.3,80.6v-0.1V80.6"/>
<path d="M72.1,80.7l-0.2-0.1c0-0.1,0.1-0.3,0.3-0.3c0.1,0,0.3,0.1,0.3,0.3v-0.3c0-0.3-0.3-0.5-0.5-0.5c-0.3,0-0.5,0.3-0.5,0.5
	c0,0.3,0.3,0.5,0.5,0.5C71.8,80.8,72.1,80.7,72.1,80.7z M72.1,78l-0.1,0.1c0,0.1,0.1,0.3,0.3,0.3c0.1,0,0.3-0.1,0.3-0.3v0.3
	c0,0.3-0.3,0.5-0.5,0.5c-0.3,0-0.5-0.3-0.5-0.5c0-0.3,0.3-0.5,0.5-0.5C71.8,77.8,72.1,78,72.1,78z M51.3,79.3v-0.9l1,0.5v0.5
	l0.3-0.1l-0.3,0.3h0.1l-0.1,0.1l-1,0.5V79.3z M53.8,78.3h1.3v2h-1.3V78.3z"/>
<path d="M55.5,79.4v-0.3l-0.8-0.3v1L55.5,79.4z M54.2,80.6v-0.1V80.6"/>
<path d="M54.6,80.7l0.1-0.1c0-0.1-0.1-0.3-0.3-0.3c-0.2,0-0.3,0.1-0.3,0.3v-0.3c0-0.3,0.3-0.5,0.5-0.5c0.3,0,0.5,0.3,0.5,0.5
	c0,0.3-0.3,0.5-0.5,0.5C54.7,80.8,54.6,80.8,54.6,80.7z M54.6,78l0.1,0.1c0,0.1-0.1,0.3-0.3,0.3c-0.2,0-0.3-0.1-0.3-0.3v0.3
	c0,0.3,0.3,0.5,0.5,0.5c0.3,0,0.5-0.3,0.5-0.5c0-0.3-0.3-0.5-0.5-0.5C54.7,77.8,54.6,77.8,54.6,78z"/>
</svg>
