<?xml version="1.0" encoding="utf-8"?>
<!-- Generator: Adobe Illustrator 26.2.1, SVG Export Plug-In . SVG Version: 6.00 Build 0)  -->
<svg version="1.1" id="Layer_1" xmlns="http://www.w3.org/2000/svg" xmlns:xlink="http://www.w3.org/1999/xlink" x="0px" y="0px"
	 viewBox="0 0 196.2 170.6" style="enable-background:new 0 0 196.2 170.6;" xml:space="preserve">
<path d="M69.2,37.5L69.2,37.5L69.2,37.5"/>
<path d="M82.8,53.1l2.3-11.4c-0.5-0.1-0.9-0.3-1.3-0.7c-1,1.2-3.2,3.1-5.2,3.1c-0.1,0-0.1,0-0.2,0c-0.6,0-1.2-0.2-1.5-0.6
	c0.5-0.6,0.5-1.4,0-1.8l-0.1-0.1c0,0,0,0,0,0.1c0,0.2-0.1,0.6-0.3,0.7c-0.1,0-0.1,0-0.2,0c-0.2,0-0.5-0.1-0.6-0.3
	c-0.1-0.2-0.2-0.5-0.2-0.7c0-0.2,0-0.3,0-0.5l0.5,0.1H76c0.2,0,0.3-0.2,0.5-0.5c0-0.3-0.1-0.6-0.3-0.7l-0.5-0.1
	c0-0.1,0.1-0.3,0.2-0.6c0.2-0.3,0.5-0.7,0.9-0.7c0,0,0,0,0.1,0c0.2,0,0.5,0.1,0.6,0.3c0.1,0.2,0.2,0.5,0.2,0.8c0,0.1,0,0.2-0.1,0.3
	c0,0.1,0.1,0.1,0.2,0.1c0.2,0,0.5-0.1,0.7-0.2c0.3-0.2,0.6-0.6,0.7-0.9c0-0.1,0.1-0.2,0.1-0.3c0.2-0.9-0.1-2-0.7-2.5
	c-0.3-0.3-0.7-0.5-1.2-0.5l0,0c-0.5,0-0.8,0.2-1.2,0.5c-0.6,0.5-0.8,1.2-1.2,1.8V38c-0.1,0.3-0.2,0.7-0.3,1c0,0.2-0.1,0.3-0.1,0.6
	h-0.2c0-0.2,0.1-0.3,0.1-0.6c0.1-0.3,0.2-0.7,0.3-1c0.3-0.8,0.7-1.5,1-2.3c0.2-0.5,0.5-1,0.5-1.6c0-0.5,0-1-0.2-1.5
	c-0.2-0.7-1.2-3.5-1.2-3.5s-1.6,2.2-2,2.6c-0.2,0.3-0.5,0.8-0.5,1.3c-0.1,0.6,0,1.2,0.1,1.7c0.1,0.9,0.3,1.7,0.5,2.6
	c0,0.3,0,0.7,0,1.2c0,0.2,0,0.3,0,0.6H73c0-0.1,0-0.3,0-0.6c0-0.3,0-0.8,0-1.2v-0.1c-0.1-0.8-0.2-1.6-0.7-2.2c-0.2-0.5-0.6-0.8-1-1
	c-0.2-0.1-0.5-0.1-0.7-0.1s-0.3,0-0.6,0.1c-0.7,0.2-1.3,1-1.3,2.1c0,0.1,0,0.2,0,0.3c0,0.5,0.2,0.9,0.5,1.2c0.2,0.3,0.7,0.6,0.9,0.6
	c0,0,0,0,0.1,0c0-0.1,0-0.2,0-0.3c0-0.2,0.1-0.5,0.3-0.7c0.1-0.1,0.2-0.1,0.3-0.1c0.1,0,0.2,0,0.3,0.1c0.5,0.2,0.7,0.7,0.8,1.2
	c0.1,0.2,0.1,0.5,0.1,0.6l-0.5-0.1c0,0,0,0-0.1,0c-0.2,0-0.3,0.2-0.5,0.5c0,0.3,0.1,0.6,0.3,0.7l0.5,0.1c0,0.1-0.1,0.2-0.1,0.5
	c-0.1,0.2-0.2,0.5-0.3,0.6c-0.1,0.1-0.2,0.1-0.3,0.1c-0.2,0-0.3-0.1-0.5-0.2c-0.2-0.2-0.2-0.5-0.1-0.8c0,0,0,0,0-0.1l0,0h-0.1
	c-0.6,0.2-0.8,0.9-0.3,1.7c-0.5,0.1-0.9,0.1-1.4,0.1c-0.2,0-0.6,0-0.8,0c-2.9-0.3-4.6-3-5.2-4.5c-0.1,0.1-0.3,0.1-0.5,0.1
	s-0.3,0-0.5,0c-0.3,0-0.7-0.1-0.9-0.2c-0.6,1.4-2.2,4.1-5.2,4.5c-0.2,0-0.6,0-0.8,0c-0.6,0-1-0.1-1.4-0.1c0.5-0.8,0.2-1.5-0.3-1.7
	h-0.1l0,0c0,0,0,0,0,0.1c0,0.2,0,0.6-0.1,0.8c-0.1,0.1-0.3,0.2-0.5,0.2s-0.2,0-0.3-0.1c-0.1-0.1-0.2-0.3-0.3-0.6
	c-0.1-0.2-0.1-0.3-0.1-0.5l0.3-0.1c0.2-0.1,0.5-0.3,0.3-0.7c0-0.2-0.2-0.5-0.5-0.5c0,0,0,0-0.1,0l-0.5,0.1c0-0.1,0-0.3,0.1-0.6
	c0.1-0.5,0.3-0.9,0.8-1.2c0.1,0,0.2-0.1,0.2-0.1c0.1,0,0.2,0,0.3,0.1c0.2,0.1,0.3,0.3,0.3,0.7c0,0.1,0,0.2,0,0.3l0,0
	c0.2,0,0.8-0.5,0.9-0.6c0.1-0.2,0.3-0.8,0.5-1.2c0-0.1,0-0.2,0-0.3c0-0.9-0.5-1.8-1.3-2.1c-0.2-0.1-0.3-0.1-0.6-0.1
	c-0.2,0-0.5,0-0.7,0.1c-0.5,0.2-0.7,0.6-1,1c-0.3,0.7-0.6,1.5-0.7,2.2v0.1c0,0.3-0.1,0.8-0.1,1.2c0,0.2,0,0.5,0,0.6h-0.2
	c0-0.2,0-0.3-0.1-0.6c0-0.3,0-0.7,0-1.2c0.1-0.9,0.3-1.7,0.5-2.6c0.1-0.6,0.1-1.2,0.1-1.7c-0.1-0.5-0.2-0.9-0.5-1.3
	c-0.3-0.6-2-2.6-2-2.6s-1,2.8-1.2,3.5c-0.1,0.5-0.2,1-0.2,1.5c0.1,0.6,0.2,1,0.5,1.6c0.3,0.7,0.8,1.5,1,2.3c0.1,0.3,0.2,0.7,0.3,1
	c0,0.2,0.1,0.3,0.1,0.6h-0.2c0-0.1-0.1-0.3-0.1-0.6c-0.1-0.3-0.2-0.7-0.3-1c0,0,0,0,0-0.1c-0.3-0.7-0.6-1.4-1.2-1.8
	c-0.3-0.3-0.7-0.5-1.2-0.5l0,0c-0.5,0-0.8,0.2-1.2,0.5c-0.6,0.6-0.9,1.6-0.7,2.5c0,0.1,0.1,0.2,0.1,0.3c0.1,0.3,0.5,0.7,0.7,0.9
	c0.2,0.1,0.5,0.2,0.7,0.2c0.1,0,0.2,0,0.2-0.1s-0.1-0.2-0.1-0.3c0-0.3,0-0.6,0.2-0.8c0.1-0.2,0.3-0.3,0.6-0.3c0,0,0,0,0.1,0
	c0.5,0,0.8,0.3,0.9,0.7c0.1,0.2,0.2,0.5,0.2,0.6L47,39.7c-0.2,0.1-0.5,0.3-0.3,0.7c0,0.2,0.2,0.5,0.5,0.5h0.1l0.5-0.1
	c0,0.1,0,0.2,0,0.5c0,0.2-0.1,0.6-0.2,0.7c-0.1,0.2-0.3,0.3-0.6,0.3c-0.1,0-0.1,0-0.2,0c-0.2-0.1-0.2-0.3-0.3-0.7c0,0,0,0,0-0.1
	c-0.1,0-0.1,0-0.1,0.1c-0.5,0.5-0.5,1.3,0,1.8c-0.5,0.2-0.9,0.5-1.5,0.5c-0.1,0-0.1,0-0.2,0c-1.8,0-4.1-2-5.2-3.1
	c-0.3,0.3-0.8,0.7-1.3,0.7l0,0l2.3,11.4c6.8-2.6,13.8-4,21.2-4C69,49,76.1,50.4,82.8,53.1"/>
<path d="M61.6,50.5c-7.3,0-14.2,1.4-20.8,4c-0.1,0-0.2,0.1-0.3,0.1l0,0c-0.1,0-0.2,0.1-0.3,0.1c-0.9,0.6-1.4,1.7-0.9,2.9
	c0.3,0.9,1.3,1.4,2.1,1.4c0.3,0,0.6,0,0.9-0.1c6.2-2.5,12.8-3.8,19.5-3.8c6.8,0,13.4,1.3,19.5,3.8C81.3,59,81.6,59,82,59
	c0.9,0,1.7-0.6,2.2-1.4c0.5-1,0-2.3-0.9-2.9c-0.1-0.1-0.2-0.1-0.3-0.1l0,0c-0.1,0-0.2-0.1-0.3-0.1C75.9,51.8,68.8,50.5,61.6,50.5"/>
<path d="M61.6,58c26.7,0,48.5,21.7,48.5,48.5c0,26.7-21.7,48.5-48.5,48.5c-26.7,0-48.5-21.7-48.5-48.5c0-3.6,0.3-7.1,1.2-10.5
	c0-0.1,0.1-0.2,0.1-0.3v-0.1c0-0.1,0.1-0.3,0.1-0.5C19.5,73.8,38.8,58,61.6,58 M15.6,87.1c-2.6,6.1-3.9,12.7-3.9,19.5
	c0,6.7,1.3,13.2,3.9,19.5c2.5,6,6.1,11.3,10.7,15.9c4.6,4.6,9.9,8.2,15.9,10.7c6.1,2.6,12.7,3.9,19.5,3.9s13.2-1.3,19.5-3.9
	c6-2.5,11.3-6.1,15.9-10.7c4.6-4.6,8.2-9.9,10.7-15.9c2.6-6.1,3.9-12.7,3.9-19.5c0-6.7-1.3-13.2-3.9-19.5c-2.5-6-6.1-11.3-10.7-15.9
	c-4.6-4.6-9.9-8.2-15.9-10.7c-6.1-2.6-12.7-3.9-19.5-3.9s-13.4,1.3-19.6,3.9c-6,2.5-11.3,6.1-15.9,10.7C21.7,75.9,18,81.2,15.6,87.1
	"/>
<path d="M59.2,164.1c0,3.2,2.5,6,2.5,6s2.5-2.6,2.5-6c0-3.2-2.5-6-2.5-6S59.2,160.8,59.2,164.1"/>
<path d="M53.3,158.8c-2.9,1.6-4,5.1-4,5.1s3.6,0.9,6.5-0.7c2.9-1.6,4-5.1,4-5.1S56.2,157.2,53.3,158.8"/>
<path d="M52.2,157.3c0,0-3.3-1.4-6.5-0.2c-3.1,1.2-4.7,4.4-4.7,4.4s3.3,1.4,6.5,0.2C50.5,160.5,52.2,157.3,52.2,157.3"/>
<path d="M45,155.3c0,0-3.1-1.8-6.3-1.2c-3.2,0.7-5.3,3.7-5.3,3.7s3.1,1.8,6.3,1.2C42.8,158.3,45,155.3,45,155.3"/>
<path d="M38.1,152.5c0,0-2.8-2.3-6.1-2.1c-3.2,0.2-5.8,2.9-5.8,2.9s2.8,2.3,6.1,2.1C35.5,155.1,38.1,152.5,38.1,152.5"/>
<path d="M25.9,145.5c-3.2-0.2-6.1,2-6.1,2s2.4,2.6,5.8,3c3.2,0.2,6.1-2,6.1-2S29.2,145.9,25.9,145.5"/>
<path d="M25.9,143.7c0,0-2.1-3-5.2-3.8c-3.2-0.7-6.3,1-6.3,1s2.1,3,5.2,3.8C22.6,145.5,25.9,143.7,25.9,143.7"/>
<path d="M20.8,138.2c0,0-1.6-3.2-4.6-4.5c-3-1.2-6.5,0.1-6.5,0.1s1.6,3.2,4.6,4.5C17.5,139.6,20.8,138.2,20.8,138.2"/>
<path d="M16.7,132c0,0-1-3.5-3.9-5.1c-2.9-1.6-6.3-0.8-6.3-0.8s1,3.5,3.9,5.1C13.1,132.8,16.7,132,16.7,132"/>
<path d="M7.2,123.4c2.5,2.1,6.2,1.7,6.2,1.7s-0.6-3.6-3.1-5.6c-2.5-2.1-6.2-1.7-6.2-1.7S4.7,121.5,7.2,123.4"/>
<path d="M11.2,118c0,0,0-3.7-2.3-6c-2.3-2.4-5.9-2.6-5.9-2.6s0,3.7,2.3,6C7.7,117.8,11.2,118,11.2,118"/>
<path d="M10.1,110.5c0,0,0.5-3.6-1.4-6.3c-1.8-2.6-5.4-3.5-5.4-3.5s-0.5,3.6,1.4,6.3C6.5,109.8,10.1,110.5,10.1,110.5"/>
<path d="M10.1,103c0,0,1-3.5-0.5-6.5c-1.5-2.9-5-4.1-5-4.1s-1,3.5,0.5,6.5C6.6,101.8,10.1,103,10.1,103"/>
<path d="M11.1,95.7c0,0,1.5-3.3,0.5-6.5c-1-3.1-4.3-4.8-4.3-4.8s-1.5,3.3-0.5,6.5C7.9,93.9,11.1,95.7,11.1,95.7"/>
<path d="M13.2,88.4c0,0,2-3.1,1.4-6.3c-0.6-3.2-3.5-5.4-3.5-5.4s-2,3-1.4,6.3C10.3,86.2,13.2,88.4,13.2,88.4"/>
<path d="M16.4,81.6c0,0,2.4-2.8,2.3-6c-0.1-3.2-2.6-5.9-2.6-5.9s-2.4,2.8-2.3,6C13.8,79.1,16.4,81.6,16.4,81.6"/>
<path d="M23.6,69.8c0.3-3.2-1.8-6.2-1.8-6.2S19,66,18.6,69.2c-0.3,3.2,1.7,6.2,1.7,6.2S23.2,73,23.6,69.8"/>
<path d="M29.3,64.6c0.8-3.2-0.9-6.3-0.9-6.3s-3.1,2-3.9,5.1c-0.8,3.2,0.9,6.3,0.9,6.3S28.5,67.8,29.3,64.6"/>
<path d="M35.8,60.4c1.3-3,0-6.5,0-6.5s-3.3,1.5-4.6,4.5c-1.3,3-0.1,6.5-0.1,6.5S34.5,63.4,35.8,60.4"/>
<path d="M69.9,158.8c-2.9-1.6-6.5-0.7-6.5-0.7s1.2,3.5,4,5.1c2.9,1.6,6.5,0.7,6.5,0.7S72.8,160.3,69.9,158.8"/>
<path d="M77.4,157c-3.1-1.2-6.5,0.2-6.5,0.2s1.6,3.2,4.7,4.4s6.5-0.2,6.5-0.2S80.4,158.1,77.4,157"/>
<path d="M84.5,154.2c-3.2-0.7-6.3,1.2-6.3,1.2s2.1,3,5.3,3.7c3.2,0.7,6.3-1.2,6.3-1.2S87.7,154.9,84.5,154.2"/>
<path d="M91.2,150.4c-3.2-0.2-6.1,2.1-6.1,2.1s2.5,2.6,5.8,2.9c3.2,0.2,6.1-2.1,6.1-2.1S94.4,150.5,91.2,150.4"/>
<path d="M97.2,145.5c-3.2,0.2-5.8,3-5.8,3s2.9,2.2,6.1,2c3.2-0.2,5.8-3,5.8-3S100.5,145.3,97.2,145.5"/>
<path d="M102.5,140c-3.2,0.7-5.2,3.8-5.2,3.8s3.1,1.8,6.3,1c3.2-0.7,5.2-3.8,5.2-3.8S105.7,139.2,102.5,140"/>
<path d="M106.8,133.7c-3.1,1.2-4.6,4.5-4.6,4.5s3.3,1.4,6.5,0.1c3.1-1.2,4.6-4.5,4.6-4.5S110,132.5,106.8,133.7"/>
<path d="M110.4,126.9c-2.9,1.6-3.9,5.1-3.9,5.1s3.6,0.8,6.3-0.8c2.9-1.6,3.9-5.1,3.9-5.1S113.2,125.2,110.4,126.9"/>
<path d="M112.8,119.5c-2.5,2.1-3.1,5.6-3.1,5.6s3.6,0.3,6.2-1.7c2.5-2.1,3.1-5.6,3.1-5.6S115.4,117.6,112.8,119.5"/>
<path d="M114.1,112c-2.3,2.4-2.3,6-2.3,6s3.6-0.2,5.9-2.6c2.3-2.4,2.3-6,2.3-6S116.4,109.6,114.1,112"/>
<path d="M114.3,104.3c-1.8,2.6-1.4,6.3-1.4,6.3s3.6-0.7,5.4-3.5c1.8-2.6,1.4-6.3,1.4-6.3S116.3,101.7,114.3,104.3"/>
<path d="M113.5,96.6c-1.5,2.9-0.5,6.5-0.5,6.5s3.5-1.3,5-4.1c1.5-2.9,0.5-6.5,0.5-6.5S115,93.7,113.5,96.6"/>
<path d="M111.9,95.7c0,0,3.2-1.7,4.3-4.8c1-3.1-0.5-6.5-0.5-6.5s-3.2,1.7-4.3,4.8C110.4,92.3,111.9,95.7,111.9,95.7"/>
<path d="M109.8,88.4c0,0,2.9-2.2,3.5-5.4c0.6-3.2-1.4-6.3-1.4-6.3s-2.9,2.2-3.5,5.4C107.9,85.4,109.8,88.4,109.8,88.4"/>
<path d="M106.7,81.6c0,0,2.5-2.5,2.6-5.9c0.1-3.2-2.3-6-2.3-6s-2.5,2.5-2.6,5.9C104.3,78.9,106.7,81.6,106.7,81.6"/>
<path d="M102.6,75.3c0,0,2.2-2.9,1.7-6.2c-0.3-3.2-3.1-5.6-3.1-5.6s-2.2,2.9-1.8,6.2C99.8,73,102.6,75.3,102.6,75.3"/>
<path d="M97.6,69.8c0,0,1.7-3.2,0.9-6.3c-0.8-3.2-3.9-5.1-3.9-5.1s-1.7,3.2-0.9,6.3C94.6,67.8,97.6,69.8,97.6,69.8"/>
<path d="M87.3,54c0,0-1.3,3.5,0.1,6.5c1.3,3,4.6,4.5,4.6,4.5s1.3-3.5-0.1-6.5C90.6,55.4,87.3,54,87.3,54"/>
<path d="M80.9,131.7L80.9,131.7L80.9,131.7C80.9,131.7,81,131.7,80.9,131.7L80.9,131.7 M80.7,131.6L80.7,131.6
	C80.8,131.6,80.8,131.6,80.7,131.6c0.1,0,0.1,0,0.1,0H80.7 M78.1,130.8L78.1,130.8L78.1,130.8C78.2,130.8,78.2,130.8,78.1,130.8
	L78.1,130.8 M45,130.8L45,130.8L45,130.8L45,130.8L45,130.8 M42.3,131.6L42.3,131.6L42.3,131.6L42.3,131.6 M42.1,131.7L42.1,131.7
	L42.1,131.7C42.2,131.7,42.2,131.7,42.1,131.7C42.2,131.7,42.1,131.7,42.1,131.7 M84.2,123.7c-0.6-1.5-1.2-3-1.2-3s-2.3,1.5-3.5,2.2
	c-1.2,0.7-3,1.8-4.4,3.5c-1.4,1.6-2.4,4-2.4,4s0.5,0,1.2,0c0.7,0,1.6,0,2.8,0.2h0.1l0,0c0.1,0,0.3,0.1,0.5,0.1h0.1l0,0h0.1l0,0l0,0
	l0,0c0,0-0.3,3.8-3.7,7.4c-0.7,0.8-2.2,2-3.1,2.5c-0.6,0.5-1.2,0.7-1.8,1c-0.2,0-0.5,0-0.7,0c-2.6,0-4.8-2-4.8-4.4v-16.1
	c-0.7,0-1.4,0.1-2.1,0.1c-0.7,0-1.4,0-2.1-0.1v16.1c0,2.4-2.2,4.4-4.8,4.4c-0.2,0-0.5,0-0.7,0c-0.6-0.3-1.3-0.6-1.8-1
	c-0.7-0.5-1.7-1.3-2.4-2c-0.2-0.2-0.5-0.5-0.7-0.7c-3.2-3.7-3.7-7.4-3.7-7.4l0,0l0,0c0.1,0,0.1,0,0.1,0l0,0h0.1
	c0.1,0,0.3-0.1,0.5-0.1l0,0h0.1c1.2-0.2,2.1-0.2,2.8-0.2c0.8,0,1.2,0,1.2,0s-1-2.4-2.4-4c-1.4-1.6-3.2-2.8-4.4-3.5
	c-1.2-0.7-3.5-2.2-3.5-2.2s-0.6,1.5-1.2,3c-0.6,1.5-1.5,2.9-1.8,5.6c-0.3,2.8,0.2,5,0.2,5s1.5-1,3.8-2.1c0,0,0.1,0,0.1-0.1l0,0
	c0,0,0.1,0,0.1-0.1l0,0h0.1l0,0H41l0,0h0.1l0,0h0.1l0,0c0,0,0,0,0.1,0c0.1,0.6,1.2,6.1,3.8,9.3l0,0l0.1,0.1c0.2,0.2,0.5,0.6,0.8,0.8
	c0.9,0.8,2.4,2.1,4.3,3.3c2.1,1.5,4.6,3,6.5,4.4c2.6,2,4,3.5,4,3.5s1.4-1.5,4-3.5c1.8-1.4,4.4-3,6.6-4.4c1.8-1.3,3.3-2.5,4.3-3.3
	c0.1-0.1,0.2-0.2,0.3-0.2l0,0c0.2-0.2,0.3-0.3,0.6-0.6l0,0c0.1-0.1,0.1-0.2,0.2-0.3c0.2-0.2,0.3-0.6,0.6-0.9
	c0.1-0.2,0.2-0.3,0.3-0.6c0.3-0.6,0.7-1.3,0.9-2c0,0,0,0,0-0.1c0.3-0.8,0.6-1.6,0.8-2.3l0,0c0.2-0.7,0.3-1.3,0.5-1.8
	c0.1-0.7,0.2-1.2,0.2-1.3l0,0l0,0h0.1l0,0h0.1l0,0h0.1l0,0h0.1l0,0c0,0,0.1,0,0.1,0.1l0,0h0.1c2.3,1,3.8,2.1,3.8,2.1s0.7-2.2,0.2-5
	C85.7,126.5,84.7,125.2,84.2,123.7"/>
<path d="M58.5,70.6c-0.8-0.8-1.3-1.8-1.3-3s0.5-2.2,1.3-3c0.8-0.8,1.8-1.3,3-1.3s2.2,0.5,3,1.3c0.8,0.8,1.3,1.8,1.3,3
	s-0.5,2.2-1.3,3c-0.2,0.2-0.6,0.6-0.9,0.7l0,0c0-1.2-0.9-2.1-2.1-2.1c-1.2,0-2.1,0.9-2.1,2.1v0.1C59.2,71.1,58.8,70.9,58.5,70.6
	 M59.5,81.4v9.1c0.7,0.3,1.4,0.7,2.1,1c0.7-0.3,1.4-0.7,2.1-1v-9.1h5.8L84.7,79v-3.6H63.7v-1.2c2.9-0.9,5-3.6,5-6.8c0-3.9-3.2-7-7-7
	c-3.9,0-7,3.1-7,7c0,3.2,2.1,5.9,5,6.8v1.2H38.4V79l15.3,2.4H59.5z"/>
<path d="M63.2,92.3c0.1,0.1,0.3,0.1,0.5,0.2c1.7,0.9,3.5,1.7,5.1,2.6c1.4-0.7,3-1.5,4.8-2.1c7.7-4.3,13.8-7.6,14.3-7.8
	c1.5-0.8,3.6-2.2,5-3.3c0.7-0.6,1.5-1.4,2.2-2.1c0.7-0.7,1.3-1.4,1.3-1.4l0.8-0.9l-1.2,0.1c0,0-0.9,0.1-1.8,0.2
	c-0.9,0.1-2.2,0.5-2.9,0.7c-1.6,0.6-4,1.5-5.5,2.3c-0.7,0.3-10.6,5.4-21.9,11.2C63.5,92.2,63.3,92.3,63.2,92.3"/>
<path d="M39,118.6c0.3,0,0.8-0.1,1.2-0.2c0.6-0.3,0.9-0.8,1.2-1.4c0.2-0.6,0.1-1.3-0.1-1.8c-0.5-0.8-1.2-1.3-2.1-1.3
	c-0.2,0-0.5,0-0.6,0.1l-0.5-0.9l-0.1-0.2c1.3-0.7,5-2.8,9.7-5.3c-1.6-0.2-3.1-0.5-4.6-1c-1.5-0.5-2.8-1-3.9-1.7l-3.8,2
	c-0.2,0.1-0.3,0.2-0.5,0.2l-0.6-1c0.3-0.2,0.6-0.7,0.7-1c0.2-0.6,0.1-1.3-0.2-1.8c-0.5-0.8-1.3-1.3-2.1-1.3c-0.3,0-0.8,0.1-1.2,0.2
	c-0.6,0.3-0.9,0.8-1.2,1.4s-0.1,1.3,0.1,1.8l1.8,3.3l0,0c-0.1,0-0.1,0-0.2,0c-0.2,0-0.5,0.1-0.7,0.2c-0.2,0.1-0.3,0.2-0.6,0.5
	c0,0-0.1,0.1-0.1,0.2c-0.1,0-0.2,0-0.2,0c-0.2,0-0.5,0.1-0.6,0.2c-0.2,0.1-0.3,0.2-0.6,0.5c0,0.1-0.1,0.1-0.1,0.2
	c-0.1,0-0.2,0-0.2,0c-0.2,0-0.5,0.1-0.7,0.2c-0.2,0.1-0.3,0.2-0.6,0.5c0,0.1-0.1,0.1-0.1,0.2c-0.1,0-0.2,0-0.2,0
	c-0.2,0-0.5,0.1-0.6,0.2c-0.2,0.1-0.5,0.2-0.6,0.5l-0.1,0.1c-0.1,0-0.2,0-0.3,0c-0.2,0-0.5,0.1-0.6,0.2c-0.2,0.1-0.3,0.2-0.6,0.5
	c0,0.1-0.1,0.1-0.1,0.1c-0.1,0-0.2,0-0.3,0c-0.2,0-0.5,0.1-0.6,0.2c-0.2,0.1-0.3,0.2-0.6,0.5c0,0.1-0.1,0.1-0.1,0.1
	c-0.1,0-0.2,0-0.3,0c-0.2,0-0.5,0.1-0.6,0.2c-0.2,0.1-0.3,0.2-0.6,0.5l-0.1,0.1c-0.1,0-0.2,0-0.3,0c-0.2,0.1-0.5,0.1-0.6,0.2
	c-0.1,0.1-0.3,0.2-0.5,0.3c0,0-0.1,0-0.2,0h-0.1c-0.8,0-1.6,0.5-2.2,1c-0.6,0.6-0.8,1.4-0.8,2.3c0.1,1.7,1.5,3,3.1,3
	c0.1,0,0.1,0,0.2,0c1,0,2-0.6,2.5-1.5l0,0c0.2-0.1,0.3-0.2,0.5-0.5H23c0.1,0,0.1,0,0.2,0c0.1,0,0.3-0.1,0.5-0.1
	c0.1,0,0.2-0.1,0.3-0.1c0.2-0.1,0.3-0.2,0.5-0.5h0.1c0.1,0,0.1,0,0.2,0c0.1,0,0.3-0.1,0.5-0.1c0.1,0,0.2-0.1,0.3-0.2
	c0.2-0.1,0.3-0.2,0.5-0.5h0.1c0.1,0,0.1,0,0.2,0c0.1,0,0.3-0.1,0.5-0.1c0.1,0,0.2-0.1,0.3-0.2c0.2-0.1,0.3-0.2,0.5-0.5h0.1
	c0.1,0,0.1,0,0.2,0c0.1,0,0.3-0.1,0.5-0.1c0.1,0,0.2-0.1,0.3-0.1c0.2-0.1,0.3-0.2,0.5-0.5h0.1c0.1,0,0.1,0,0.2,0
	c0.1,0,0.3-0.1,0.5-0.1c0.1,0,0.2-0.1,0.3-0.2c0.2-0.1,0.3-0.2,0.5-0.5c0,0,0,0,0.1,0c0.1,0,0.1,0,0.2,0c0.1,0,0.3-0.1,0.5-0.1
	c0.1,0,0.2-0.1,0.3-0.1c0.2-0.1,0.3-0.3,0.5-0.5h0.1c0.1,0,0.1,0,0.2,0c0.1,0,0.3-0.1,0.5-0.1c0.1,0,0.2-0.1,0.3-0.1
	c0.2-0.1,0.3-0.2,0.5-0.5h0.1c0.1,0,0.1,0,0.2,0c0.1,0,0.3-0.1,0.5-0.1c0.1,0,0.1,0,0.1-0.1l0.8,1.5l0.9,1.7
	C37.3,118.1,38.1,118.6,39,118.6"/>
<path d="M28.1,79.9c0.7,0.7,1.6,1.5,2.2,2.1c1.4,1,3.5,2.5,5,3.3c0.5,0.2,5.4,3,12.1,6.7c3.2,0.6,6.1,1.5,8.4,2.6
	c0.2,0.1,0.6,0.2,0.8,0.5c0.2,0.1,0.5,0.2,0.8,0.5l0,0c0.8,0.5,1.5,0.9,2.1,1.4c0.6,0.5,1,0.9,1.4,1.4c0.3-0.1,0.8-0.1,1.2-0.1
	c0.6,0,1.2,0.1,1.5,0.2l0,0c0.7-0.5,2-1.3,3.6-2.1c-1.2-0.6-2.3-1.3-3.6-1.8c-0.7-0.3-1.4-0.7-2.1-1c-0.2-0.1-0.6-0.2-0.8-0.5
	c-0.2-0.1-0.6-0.2-0.8-0.5c-0.1-0.1-0.3-0.2-0.5-0.2C48.1,86.6,38.1,81.5,37.4,81c-1.5-0.8-3.8-1.7-5.5-2.3c-0.8-0.2-2-0.6-2.9-0.7
	c-1-0.1-1.8-0.2-1.8-0.2L26,77.7l0.7,0.9C26.9,78.5,27.4,79.2,28.1,79.9"/>
<path d="M103.6,115.7h-0.1c-0.1,0-0.1,0-0.2,0c-0.1-0.1-0.3-0.2-0.5-0.3c-0.1-0.1-0.3-0.2-0.6-0.2c-0.1,0-0.2,0-0.3,0
	c0-0.1-0.1-0.1-0.1-0.1c-0.1-0.2-0.3-0.3-0.6-0.5c-0.2-0.1-0.5-0.2-0.6-0.2c-0.1,0-0.2,0-0.3,0l-0.1-0.1c-0.1-0.2-0.3-0.3-0.6-0.5
	c-0.2-0.1-0.5-0.2-0.6-0.2c-0.1,0-0.2,0-0.3,0c0-0.1-0.1-0.1-0.1-0.1c-0.1-0.2-0.3-0.3-0.6-0.5c-0.2-0.1-0.5-0.2-0.7-0.2
	c-0.1,0-0.2,0-0.2,0c0-0.1-0.1-0.1-0.1-0.1c-0.1-0.2-0.3-0.3-0.6-0.5c-0.2-0.1-0.5-0.2-0.7-0.2c-0.1,0-0.2,0-0.2,0l-0.1-0.1
	c-0.1-0.2-0.3-0.3-0.6-0.5c-0.2-0.1-0.5-0.2-0.7-0.2c-0.1,0-0.2,0-0.2,0c0-0.1-0.1-0.1-0.1-0.2c-0.1-0.2-0.3-0.3-0.6-0.5
	c-0.2-0.1-0.5-0.2-0.6-0.2c-0.1,0-0.2,0-0.2,0c0-0.1-0.1-0.1-0.1-0.2c-0.1-0.2-0.3-0.3-0.6-0.5c-0.2-0.1-0.5-0.2-0.7-0.2
	c-0.1,0-0.1,0-0.2,0l0,0l1.8-3.3c0.3-0.6,0.3-1.2,0.1-1.8c-0.2-0.6-0.6-1-1.2-1.4c-0.3-0.2-0.7-0.2-1.2-0.2c-0.9,0-1.7,0.5-2.1,1.3
	c-0.3,0.6-0.3,1.2-0.1,1.8c0.1,0.5,0.3,0.8,0.7,1l-0.6,1c-0.1-0.1-0.3-0.1-0.5-0.2l-5.1-2.6c-1.2,0.8-2.4,1.5-4.5,2.1
	c0,0.1,0.1,0.3,0.1,0.5c0,0.6-0.1,1.3-0.7,2c3.7,2.1,6.6,3.6,7.6,4.1l-0.2,0.3l-0.5,0.7c-0.2,0-0.3-0.1-0.6-0.1
	c-0.9,0-1.7,0.5-2.1,1.3c-0.3,0.6-0.3,1.2-0.2,1.8c0.2,0.6,0.6,1,1.2,1.4c0.3,0.2,0.7,0.2,1.2,0.2c0.9,0,1.7-0.5,2.1-1.3l0.8-1.6
	l0.8-1.5l0.1,0.1c0.2,0.1,0.3,0.1,0.5,0.1c0.1,0,0.1,0,0.2,0h0.1c0.1,0.2,0.3,0.3,0.5,0.5c0.1,0.1,0.2,0.1,0.3,0.1
	c0.2,0.1,0.3,0.1,0.5,0.1s0.1,0,0.2,0h0.1c0.1,0.2,0.3,0.3,0.5,0.5c0.1,0,0.2,0.1,0.3,0.1c0.1,0.1,0.3,0.1,0.5,0.1
	c0.1,0,0.1,0,0.2,0c0,0,0,0,0.1,0c0.1,0.2,0.3,0.3,0.5,0.5c0.1,0.1,0.2,0.1,0.3,0.1c0.1,0.1,0.3,0.1,0.5,0.1c0.1,0,0.1,0,0.2,0h0.1
	c0.1,0.2,0.3,0.3,0.5,0.5c0.1,0.1,0.2,0.1,0.3,0.1c0.1,0.1,0.3,0.1,0.5,0.1c0.1,0,0.1,0,0.2,0h0.1c0.1,0.2,0.2,0.3,0.5,0.5
	c0.1,0.1,0.2,0.1,0.3,0.2c0.1,0.1,0.3,0.1,0.5,0.1c0.1,0,0.1,0,0.2,0h0.1c0.1,0.2,0.2,0.3,0.5,0.5c0.1,0.1,0.2,0.1,0.3,0.2
	c0.1,0.1,0.3,0.1,0.5,0.1c0.1,0,0.1,0,0.2,0h0.1c0.1,0.2,0.2,0.3,0.5,0.5c0.1,0.1,0.2,0.1,0.3,0.1c0.1,0.1,0.3,0.1,0.5,0.1
	c0.1,0,0.2,0,0.2,0h0.1c0.1,0.2,0.3,0.3,0.5,0.5l0,0c0.6,0.8,1.5,1.4,2.5,1.5h0.1c1.6,0,3-1.3,3.1-3c0-0.8-0.2-1.6-0.8-2.3
	C105.2,116.1,104.4,115.7,103.6,115.7"/>
<path d="M39,103.2c0.2,0.1,0.5,0.2,0.8,0.5c0.2,0.1,0.6,0.2,0.8,0.5c0.8,0.5,1.7,0.8,2.8,1.2c2.3,0.8,4.6,1,6.5,1c0.2,0,0.5,0,0.6,0
	c0.3,0,0.6,0,0.9,0c0.7,0,1.3-0.1,1.7-0.1C53.6,106,54,106,54,106l0.7,3.2l-4.8,6.6c0,0,2,3.5,9.7,4c0.7,0,1.4,0.1,2.1,0.1
	c0.7,0,1.5,0,2.1-0.1c7.7-0.6,9.3-4,9.3-4l-6.1-5.4l1.2-2.9l0,0c-0.2,0-0.5-0.1-0.7-0.1c-0.7,0-1.3,0.1-1.6,0.2c-0.1,0-0.2,0-0.3,0
	h-0.1h-0.1l-0.5-0.1c0.1,0,0.2-0.1,0.5-0.2c0.2-0.1,0.5-0.2,0.8-0.5c0.7-0.3,1.6-0.7,2.2-0.6c0.1,0,0.2,0.1,0.5,0.1
	c0.3,0.1,0.7,0.2,1,0.3c0.5,0.1,0.8,0.3,1.5,0.5c0.1,0,0.1,0,0.2,0c0.5,0.1,0.8,0.1,0.9,0.1c0.3,0,0.5-0.1,1.4-0.1
	c0.1,0,0.2,0,0.5,0c2,0.1,1.8,1,1.8,1c0.1-0.1,0.3-0.2,0.5-0.3c0.6-0.6,0.7-1,0.6-1.5c-0.1-0.2-0.2-0.5-0.5-0.7
	c-0.2-0.2-0.5-0.5-0.7-0.6c-0.2-0.2-0.5-0.2-0.5-0.2c0.5-1.3-3.3-1.8-5-2.3c-1-0.2-3.3-1.3-5.1-2.1c-0.6-0.2-1-0.5-1.4-0.7h-0.1
	c-0.2-0.1-0.3-0.1-0.3-0.2l0,0l0,0c-0.1,0-0.2-0.1-0.3-0.1c-0.3-0.1-0.7-0.2-1.2-0.2l0,0c-0.3,0-0.6,0-0.9,0.1
	c-0.5,0.1-0.9,0.2-0.9,0.2s-0.2-0.5-0.8-1c-0.1-0.1-0.2-0.2-0.3-0.3c-0.7-0.7-1.7-1.4-3.3-2.2c-0.2-0.1-0.6-0.2-0.8-0.3
	c-0.2-0.1-0.6-0.2-0.8-0.3c-0.5-0.2-1-0.5-1.6-0.6c-0.9-0.3-2.1-0.7-3.2-0.9c-0.8-0.2-1.6-0.3-2.5-0.6c-1.8-0.3-4-0.7-6.5-0.8
	c-2.2-0.1-4.3-0.2-6.2-0.2c-12.7,0-19,3.2-19,3.2s6.2,0.9,12.9,2.6C33.4,99.4,36,101.4,39,103.2"/>
<path d="M83.9,92.2c-3.5,0.2-6.8,1.2-9.8,2.3c-1.4,0.5-2.6,1-3.8,1.6c-0.2,0.1-0.6,0.2-0.8,0.3c-0.2,0.1-0.6,0.2-0.8,0.5
	c-2.1,1.2-3.7,2.1-4.4,2.5l0.3,0.1c0,0,0,0,0.1,0c0.6,0.2,4.6,1.5,6.1,1.8c0.2,0,0.5,0.1,0.7,0.1c2.4,0.5,4.4,1,5.1,2.2
	c0.1,0.1,0.1,0.2,0.1,0.5c0.2,0.2,0.6,0.5,0.8,0.7c1.6-0.3,2.9-0.9,3.8-1.5c0.2-0.1,0.5-0.3,0.7-0.5c0.2-0.1,0.5-0.3,0.7-0.5
	c1.4-1,2.6-2.3,5.2-3.2c7.5-3,19.9-4.5,19.9-4.5s-11.2-2.5-21-2.5C85.9,92.1,85,92.1,83.9,92.2"/>
<path d="M64,5.6c0,0.5-0.1,0.8-0.3,1.2c0.9,0.5,1.8,1,2.5,1.6V2.7c-0.7,0.6-1.6,1.3-2.5,1.6C63.9,4.8,64,5.1,64,5.6"/>
<path d="M61.6,3.3c0.5,0,0.8,0.1,1.2,0.3c0.5-1,1.2-2,1.7-2.6h-5.6c0.6,0.7,1.3,1.6,1.6,2.5C60.8,3.4,61.2,3.3,61.6,3.3"/>
<path d="M59.3,5.6c0-0.5,0.1-0.8,0.3-1.2c-0.9-0.3-1.8-1-2.5-1.6v5.6c0.7-0.7,1.6-1.3,2.5-1.7C59.4,6.4,59.3,6.1,59.3,5.6"/>
<path d="M64.5,10.2c-0.6-0.7-1.3-1.6-1.6-2.5C62.5,7.9,62,8,61.7,8c-0.5,0-0.8-0.1-1.2-0.3c-0.5,0.9-1,1.8-1.6,2.5H64.5z"/>
<path d="M60.7,7.1c0.2,0.2,0.6,0.3,1,0.3c0.3,0,0.7-0.1,1-0.3C63,7,63.1,6.7,63.2,6.6c0.1-0.3,0.2-0.7,0.2-1s-0.1-0.7-0.3-1
	c-0.1-0.2-0.3-0.3-0.5-0.5c-0.2-0.2-0.6-0.3-1-0.3c-0.3,0-0.7,0.1-1,0.3c-0.2,0.1-0.3,0.3-0.5,0.5c-0.1,0.3-0.2,0.7-0.2,1
	s0.1,0.7,0.3,1C60.3,6.7,60.4,7,60.7,7.1"/>
<path d="M60.7,21.3c0.2,0.2,0.6,0.3,1,0.3c0.3,0,0.7-0.1,1-0.3c0.2-0.1,0.3-0.3,0.5-0.5c0.2-0.2,0.3-0.6,0.3-1c0-0.3-0.1-0.7-0.3-1
	c-0.1-0.2-0.3-0.3-0.5-0.5c-0.2-0.2-0.6-0.3-1-0.3c-0.3,0-0.7,0.1-1,0.3c-0.2,0.1-0.3,0.3-0.5,0.5c-0.2,0.3-0.3,0.7-0.3,1.2
	c0,0.3,0.1,0.7,0.3,1C60.3,21,60.4,21.1,60.7,21.3"/>
<path d="M60.7,25.1c0.2,0.2,0.6,0.3,1,0.3c0.3,0,0.7-0.1,1-0.3c0.2-0.1,0.3-0.3,0.5-0.5c0.2-0.2,0.3-0.6,0.3-1c0-0.3-0.1-0.7-0.3-1
	c-0.1-0.2-0.3-0.3-0.5-0.5c-0.2-0.2-0.6-0.3-1-0.3c-0.3,0-0.7,0.1-1,0.3c-0.2,0.1-0.3,0.3-0.5,0.5c-0.2,0.3-0.3,0.7-0.3,1
	c0,0.3,0.1,0.7,0.3,1C60.3,24.7,60.4,24.9,60.7,25.1"/>
<path d="M60.7,28.7c0.2,0.2,0.6,0.3,1,0.3c0.3,0,0.7-0.1,1-0.3c0.2-0.1,0.3-0.2,0.5-0.5c0.2-0.2,0.3-0.6,0.3-1
	c0-0.3-0.1-0.7-0.3-0.9c-0.1-0.2-0.3-0.3-0.5-0.5c-0.2-0.2-0.6-0.3-1-0.3c-0.3,0-0.7,0.1-1,0.3c-0.2,0.1-0.3,0.2-0.5,0.5
	c-0.2,0.2-0.3,0.6-0.3,0.9s0.1,0.7,0.3,1C60.3,28.5,60.4,28.6,60.7,28.7"/>
<path d="M36.7,40.6c0.2,0.2,0.6,0.3,1,0.3c0.3,0,0.7-0.1,1-0.3c0.2-0.1,0.3-0.3,0.5-0.5c0.2-0.2,0.3-0.6,0.3-1c0-0.3-0.1-0.7-0.3-1
	c-0.1-0.2-0.3-0.3-0.5-0.5c-0.2-0.2-0.6-0.3-1-0.3c-0.3,0-0.7,0.1-1,0.3c-0.2,0.1-0.3,0.3-0.5,0.5c-0.2,0.2-0.3,0.6-0.3,1
	c0,0.3,0.1,0.7,0.3,1C36.4,40.4,36.5,40.5,36.7,40.6"/>
<path d="M60.7,36.6c0.2,0.2,0.6,0.3,1,0.3c0.3,0,0.7-0.1,1-0.3c0.2-0.1,0.3-0.3,0.5-0.5c0.2-0.2,0.3-0.6,0.3-1c0-0.3-0.1-0.7-0.3-1
	c-0.1-0.2-0.3-0.3-0.5-0.5c-0.3-0.2-0.6-0.3-1-0.3c-0.3,0-0.7,0.1-1,0.3c-0.2,0.1-0.3,0.3-0.5,0.5c-0.2,0.3-0.3,0.7-0.3,1
	s0.1,0.7,0.3,1C60.3,36.2,60.4,36.4,60.7,36.6"/>
<path d="M61.6,17.9c2.1,0,3.8-1.7,3.8-3.8s-1.7-3.8-3.8-3.8s-3.8,1.7-3.8,3.8S59.5,17.9,61.6,17.9"/>
<path d="M36.7,32.7c-0.9-2.9-4.5-9.4,0.7-14.1c1.7-1.5,4.3-2.4,6.3-2.4c1.5,0,3.6,0.5,5.5,1.2c3.5,1.2,5.6,1.8,9.7,1.8V21
	c-4.4,0-6.7-0.7-10.3-2c-1.6-0.6-3.5-1-4.7-1c-2.1,0-3.9,0.7-5.3,2c-3.3,2.9-2.2,6.8-0.7,10.7c0.2,0.5,0.3,0.9,0.5,1.4L36.7,32.7z"
	/>
<path d="M55.8,38.7c0.9-0.8,2.6-1.8,3.7-2.3c-0.1-0.2-0.2-0.5-0.3-0.7c-0.1-0.7,0-1.3,0.3-1.7c-1-0.5-2.8-1.6-3.7-2.4V38.7z"/>
<path d="M67.5,38.7v-7.1c-0.9,0.8-2.6,2-3.7,2.4c0.1,0.2,0.2,0.5,0.3,0.8c0.1,0.6,0,1.3-0.3,1.7C64.8,36.8,66.5,37.8,67.5,38.7"/>
<path d="M60.3,33c0.2-0.1,0.5-0.2,0.8-0.3c0.1,0,0.3,0,0.5,0c0.5,0,0.9,0.1,1.3,0.3c0.5-1,1.5-2.8,2.3-3.7H58
	C58.8,30.1,60,32,60.3,33"/>
<path d="M37.2,36.8c0.1,0,0.3,0,0.5,0c0.3,0,0.6,0.1,0.9,0.1c0.3-1.3,1.4-3.7,2-4.8l-4.6,1.6L37.2,36.8z"/>
<path d="M43.5,41.5l-1.5-7c-0.3,0.9-1.7,2.4-2.6,3.1c0.2,0.3,0.5,0.7,0.6,1.2c0.1,0.5,0.1,0.9-0.1,1.3C41,40.2,42.8,41,43.5,41.5"/>
<path d="M54.8,15c-0.2,0.2-0.5,0.5-0.7,0.8c-0.1,0.3-0.1,0.7-0.1,1c0,0.2,0.1,0.5,0.2,0.6c0.2,0.2,0.5,0.5,0.8,0.7
	c0.3,0.1,0.7,0.1,1,0.1c0.2,0,0.5-0.1,0.7-0.2c0.2-0.2,0.5-0.5,0.7-0.8c0.1-0.3,0.1-0.7,0.1-1c0-0.2-0.1-0.5-0.2-0.6
	c-0.2-0.2-0.5-0.5-0.8-0.7c-0.3-0.1-0.7-0.1-1-0.1C55.2,14.8,55,14.8,54.8,15"/>
<path d="M51.3,13.8c-0.3,0.1-0.7,0.2-0.9,0.5c-0.2,0.2-0.3,0.6-0.5,0.9c0,0.2,0,0.5,0,0.7c0.1,0.3,0.2,0.7,0.5,0.9
	c0.2,0.2,0.6,0.5,0.9,0.5c0.2,0,0.5,0,0.7,0c0.3-0.1,0.7-0.2,0.9-0.5c0.2-0.2,0.5-0.6,0.5-0.9c0-0.2,0-0.5,0-0.7
	c-0.1-0.3-0.2-0.7-0.5-0.9c-0.2-0.2-0.6-0.5-0.9-0.5C51.8,13.8,51.6,13.8,51.3,13.8"/>
<path d="M47.2,12.3c-0.3,0.1-0.6,0.3-0.8,0.7c-0.2,0.3-0.3,0.7-0.3,1c0,0.2,0,0.5,0.1,0.7c0.1,0.3,0.3,0.6,0.7,0.8
	c0.3,0.2,0.7,0.2,1,0.2c0.2,0,0.5,0,0.7-0.1c0.3-0.1,0.6-0.3,0.8-0.7s0.3-0.7,0.2-1c0-0.2-0.1-0.5-0.1-0.7c-0.1-0.3-0.3-0.6-0.7-0.8
	c-0.3-0.2-0.7-0.2-1-0.2C47.5,12.2,47.3,12.2,47.2,12.3"/>
<path d="M42.3,12.2c-0.2,0.2-0.5,0.6-0.6,0.9c-0.1,0.3-0.1,0.7,0,1c0.1,0.2,0.2,0.5,0.3,0.6c0.2,0.2,0.6,0.5,0.9,0.6
	c0.3,0.1,0.7,0.1,1,0c0.2-0.1,0.5-0.2,0.6-0.3c0.2-0.2,0.5-0.5,0.6-0.9c0.1-0.3,0.1-0.7,0-1c-0.1-0.2-0.2-0.5-0.3-0.6
	c-0.2-0.2-0.5-0.5-0.9-0.6c-0.3-0.1-0.7-0.1-1,0C42.8,11.9,42.6,12,42.3,12.2"/>
<path d="M38,13.5c-0.2,0.2-0.3,0.6-0.2,1c0,0.3,0.1,0.7,0.3,1c0.1,0.2,0.3,0.3,0.5,0.5c0.2,0.2,0.6,0.2,1,0.2c0.3,0,0.7-0.1,1-0.3
	c0.2-0.1,0.3-0.3,0.5-0.5c0.2-0.2,0.2-0.6,0.2-1c0-0.3-0.1-0.7-0.3-0.9c-0.1-0.2-0.3-0.3-0.5-0.5c-0.2-0.2-0.6-0.3-1-0.3
	c-0.3,0-0.7,0.1-0.9,0.3C38.3,13.1,38.1,13.3,38,13.5"/>
<path d="M33.8,16.4c-0.1,0.3,0,0.7,0.1,1c0.1,0.3,0.3,0.6,0.7,0.8c0.2,0.1,0.5,0.2,0.7,0.2c0.3,0.1,0.7,0,1-0.1
	c0.3-0.1,0.6-0.3,0.8-0.7c0.1-0.2,0.2-0.5,0.2-0.7c0.1-0.3,0-0.7-0.1-1c-0.1-0.3-0.3-0.6-0.7-0.8c-0.2-0.1-0.5-0.2-0.7-0.2
	c-0.3-0.1-0.7,0-1,0.1c-0.3,0.1-0.6,0.3-0.8,0.7C33.9,16,33.8,16.2,33.8,16.4"/>
<path d="M31.2,20.5c0,0.3,0.2,0.7,0.5,0.9c0.2,0.2,0.6,0.5,0.9,0.5c0.2,0,0.5,0,0.7,0c0.3-0.1,0.7-0.2,0.9-0.5
	c0.2-0.2,0.5-0.6,0.5-0.9c0-0.2,0-0.5,0-0.7c-0.1-0.3-0.2-0.7-0.5-0.9c-0.2-0.2-0.6-0.5-0.9-0.5c-0.2,0-0.5,0-0.7,0
	c-0.3,0-0.7,0.2-0.9,0.5s-0.5,0.6-0.5,0.9C31.2,20,31.2,20.2,31.2,20.5"/>
<path d="M30.2,25.1c0.2,0.2,0.5,0.6,0.8,0.7c0.3,0.1,0.7,0.2,1,0.1c0.2,0,0.5-0.1,0.7-0.2c0.2-0.2,0.6-0.5,0.7-0.8
	c0.1-0.3,0.2-0.7,0.1-1c0-0.2-0.1-0.5-0.2-0.7c-0.2-0.3-0.5-0.6-0.8-0.7c-0.3-0.1-0.7-0.2-1-0.1c-0.2,0-0.5,0.1-0.7,0.2
	c-0.3,0.2-0.6,0.5-0.7,0.8c-0.1,0.3-0.2,0.7-0.1,1C30.1,24.7,30.1,24.9,30.2,25.1"/>
<path d="M31.3,29.8c0.2,0.2,0.6,0.3,0.9,0.3c0.3,0,0.7-0.1,1-0.2c0.2-0.1,0.3-0.2,0.5-0.5c0.2-0.2,0.3-0.6,0.3-0.9s-0.1-0.7-0.2-1
	c-0.1-0.2-0.2-0.3-0.5-0.5c-0.2-0.2-0.6-0.3-0.9-0.3c-0.3,0-0.7,0.1-1,0.2c-0.2,0.1-0.3,0.2-0.5,0.5c-0.2,0.2-0.3,0.6-0.3,0.9
	s0.1,0.7,0.2,1C30.9,29.6,31.1,29.7,31.3,29.8"/>
<path d="M32.7,33.8c0.2,0.2,0.6,0.3,1,0.3c0.3,0,0.7-0.1,1-0.3c0.2-0.1,0.3-0.3,0.5-0.5c0.2-0.2,0.3-0.6,0.3-1c0-0.3-0.1-0.7-0.3-1
	c-0.1-0.2-0.3-0.3-0.5-0.5c-0.2-0.2-0.6-0.3-1-0.3c-0.3,0-0.7,0.1-1,0.3c-0.2,0.1-0.3,0.3-0.5,0.5c-0.2,0.2-0.3,0.6-0.3,1
	c0,0.3,0.1,0.7,0.3,1C32.3,33.5,32.4,33.7,32.7,33.8"/>
<path d="M86.6,40.6c-0.2,0.2-0.6,0.3-1,0.3c-0.3,0-0.7-0.1-1-0.3c-0.2-0.1-0.3-0.3-0.5-0.5c-0.2-0.2-0.3-0.6-0.3-1
	c0-0.3,0.1-0.7,0.3-1c0.1-0.2,0.3-0.3,0.5-0.5c0.2-0.2,0.6-0.3,1-0.3c0.3,0,0.7,0.1,1,0.3c0.2,0.1,0.3,0.3,0.5,0.5
	c0.2,0.2,0.3,0.6,0.3,1c0,0.3-0.1,0.7-0.3,1C86.9,40.4,86.8,40.5,86.6,40.6"/>
<path d="M86.5,32.7c0.9-2.9,4.5-9.4-0.8-14.1c-1.7-1.5-4.3-2.4-6.3-2.4c-1.5,0-3.6,0.5-5.5,1.2c-3.5,1.2-5.6,1.8-9.7,1.8V21
	c4.4,0,6.7-0.7,10.3-2c1.6-0.6,3.6-1,5-1c1.6,0,3.8,0.7,5.2,2c3.3,2.9,2.2,6.8,0.7,10.7c-0.2,0.5-0.3,0.9-0.5,1.4L86.5,32.7z"/>
<path d="M86.1,36.8c-0.1,0-0.3,0-0.5,0c-0.3,0-0.6,0.1-0.9,0.1c-0.3-1.3-1.4-3.7-2-4.8l4.6,1.6L86.1,36.8z"/>
<path d="M79.7,41.5l1.5-7c0.3,0.9,1.7,2.4,2.6,3.1c-0.2,0.3-0.5,0.7-0.6,1.2c-0.1,0.5-0.1,0.9,0.1,1.3C82.2,40.2,80.5,41,79.7,41.5"
	/>
<path d="M68.5,15c0.2,0.2,0.5,0.5,0.7,0.8c0.1,0.3,0.1,0.7,0.1,1c0,0.2-0.1,0.5-0.2,0.6c-0.2,0.2-0.5,0.5-0.8,0.7
	c-0.3,0.1-0.7,0.1-1,0.1c-0.2,0-0.5-0.1-0.6-0.2c-0.2-0.2-0.5-0.5-0.7-0.8c-0.1-0.3-0.1-0.7-0.1-1c0-0.2,0.1-0.5,0.2-0.6
	c0.2-0.2,0.5-0.5,0.8-0.7c0.3-0.1,0.7-0.1,1-0.1C68,14.8,68.3,14.8,68.5,15"/>
<path d="M71.8,13.8c0.3,0.1,0.7,0.2,0.9,0.5c0.2,0.2,0.5,0.6,0.5,0.9c0,0.2,0,0.5,0,0.7c-0.1,0.3-0.2,0.7-0.5,0.9
	c-0.2,0.2-0.6,0.5-0.9,0.5c-0.2,0-0.5,0-0.7,0c-0.3-0.1-0.7-0.2-0.9-0.5c-0.2-0.2-0.5-0.6-0.5-0.9c0-0.2,0-0.5,0-0.7
	c0.1-0.3,0.2-0.7,0.5-0.9c0.2-0.2,0.6-0.5,0.9-0.5C71.4,13.8,71.6,13.8,71.8,13.8"/>
<path d="M76.1,12.3c0.3,0.1,0.6,0.3,0.8,0.7s0.2,0.7,0.2,1c0,0.2,0,0.5-0.1,0.7c-0.1,0.3-0.3,0.6-0.7,0.8c-0.3,0.2-0.7,0.2-1,0.2
	c-0.2,0-0.5,0-0.7-0.1c-0.3-0.1-0.6-0.3-0.8-0.7c-0.1-0.3-0.1-0.7-0.1-1c0-0.2,0-0.5,0.1-0.7c0.1-0.3,0.3-0.6,0.7-0.8
	c0.3-0.2,0.7-0.2,1-0.2C75.6,12.2,75.9,12.2,76.1,12.3"/>
<path d="M80.8,12.2c0.2,0.2,0.5,0.6,0.6,0.9c0.1,0.3,0.1,0.7,0,1c-0.1,0.2-0.2,0.5-0.3,0.6c-0.2,0.2-0.5,0.5-0.9,0.6
	c-0.3,0.1-0.7,0.1-1,0c-0.2-0.1-0.5-0.2-0.6-0.3c-0.2-0.2-0.5-0.5-0.6-0.9c-0.1-0.3-0.1-0.7,0-1c0.1-0.2,0.2-0.5,0.3-0.6
	c0.2-0.2,0.6-0.5,0.9-0.6c0.3-0.1,0.7-0.1,1,0C80.5,11.9,80.7,12,80.8,12.2"/>
<path d="M85.3,13.5c0.2,0.2,0.2,0.6,0.2,1c0,0.3-0.1,0.7-0.3,1c-0.1,0.2-0.3,0.3-0.5,0.5c-0.2,0.2-0.6,0.2-1,0.2
	c-0.3,0-0.7-0.1-0.9-0.3c-0.2-0.1-0.3-0.3-0.5-0.5c-0.2-0.2-0.3-0.6-0.2-1c0-0.3,0.1-0.7,0.3-0.9c0.1-0.2,0.3-0.3,0.5-0.5
	c0.2-0.2,0.6-0.3,1-0.3c0.3,0,0.7,0.1,1,0.3C85,13.1,85.2,13.3,85.3,13.5"/>
<path d="M89.5,16.4c0.1,0.3,0,0.7-0.1,1c-0.1,0.3-0.3,0.6-0.7,0.8c-0.2,0.1-0.3,0.2-0.6,0.2c-0.3,0.1-0.7,0-1-0.1s-0.6-0.3-0.8-0.7
	C86.1,17.5,86,17.2,86,17c-0.1-0.3,0-0.7,0.1-1c0.1-0.3,0.3-0.6,0.7-0.8c0.2-0.1,0.5-0.2,0.6-0.2c0.3-0.1,0.7,0,1,0.1
	c0.3,0.1,0.6,0.3,0.8,0.7C89.3,16,89.3,16.2,89.5,16.4"/>
<path d="M92.1,20.5c-0.1,0.3-0.2,0.7-0.5,0.9c-0.2,0.2-0.6,0.5-0.9,0.5c-0.2,0-0.5,0-0.7,0c-0.3-0.1-0.7-0.2-0.9-0.5
	c-0.2-0.2-0.5-0.6-0.5-0.9c0-0.2-0.1-0.5,0-0.7c0.1-0.3,0.2-0.7,0.5-0.9s0.6-0.5,0.9-0.5c0.2,0,0.5,0,0.7,0c0.3,0,0.7,0.2,0.9,0.5
	c0.2,0.2,0.5,0.6,0.5,0.9C92.1,20,92.1,20.2,92.1,20.5"/>
<path d="M92.9,25.1c-0.2,0.2-0.5,0.6-0.8,0.7c-0.3,0.1-0.7,0.2-1,0.1c-0.2,0-0.5-0.1-0.7-0.2c-0.2-0.2-0.6-0.5-0.7-0.8
	c-0.1-0.3-0.2-0.7-0.1-1c0-0.2,0.1-0.5,0.2-0.7c0.2-0.3,0.5-0.6,0.8-0.7c0.3-0.1,0.7-0.2,1-0.1c0.2,0,0.5,0.1,0.7,0.2
	c0.2,0.2,0.6,0.5,0.7,0.8c0.1,0.3,0.2,0.7,0.1,1C93.1,24.7,93,24.9,92.9,25.1"/>
<path d="M92,29.8c-0.2,0.2-0.6,0.3-0.9,0.3c-0.3,0-0.7-0.1-1-0.2c-0.2-0.1-0.3-0.2-0.5-0.5c-0.2-0.2-0.3-0.6-0.3-0.9s0.1-0.7,0.2-1
	c0.1-0.2,0.2-0.3,0.5-0.5c0.2-0.2,0.6-0.3,0.9-0.3s0.7,0.1,1,0.2c0.2,0.1,0.3,0.2,0.5,0.5c0.2,0.2,0.3,0.6,0.3,0.9s-0.1,0.7-0.2,1
	C92.3,29.6,92.2,29.7,92,29.8"/>
<path d="M90.6,33.8c-0.2,0.2-0.6,0.3-1,0.3c-0.3,0-0.7-0.1-1-0.3c-0.2-0.1-0.3-0.3-0.5-0.5c-0.2-0.2-0.3-0.6-0.3-1
	c0-0.3,0.1-0.7,0.3-1c0.1-0.2,0.3-0.3,0.5-0.5c0.2-0.2,0.6-0.3,1-0.3c0.3,0,0.7,0.1,1,0.3c0.2,0.1,0.3,0.3,0.5,0.5
	c0.2,0.2,0.3,0.6,0.3,1c0,0.3-0.1,0.7-0.3,1C91,33.5,90.7,33.7,90.6,33.8"/>
</svg>
