<?xml version="1.0" encoding="utf-8"?>
<!-- Generator: Adobe Illustrator 27.8.1, SVG Export Plug-In . SVG Version: 6.00 Build 0)  -->
<svg version="1.1" id="Layer_1" xmlns="http://www.w3.org/2000/svg" xmlns:xlink="http://www.w3.org/1999/xlink" x="0px" y="0px"
	 viewBox="0 0 492 290.6" style="enable-background:new 0 0 492 290.6;" xml:space="preserve">
<style type="text/css">
	.st0{fill:#FFFFFF;}
</style>
<g>
	<g>
		<path class="st0" d="M484.1,24.3L468,8.1c-5.1-5.1-11.8-7.9-19-7.9c-7.2,0-14,2.8-19,7.9L246.1,191.9L62.1,7.9C57,2.8,50.2,0,43,0
			s-14,2.8-19,7.9L7.9,24C-2.6,34.5-2.6,51.6,7.9,62L227,282c5.1,5.1,11.8,8.6,19.1,8.6h0.1c7.2,0,14-3.6,19-8.6L484.1,62.6
			c5.1-5.1,7.9-12,7.9-19.2C492,36.2,489.2,29.3,484.1,24.3z"/>
	</g>
</g>
</svg>
