<?xml version="1.0" encoding="utf-8"?>
<!-- Generator: Adobe Illustrator 27.8.1, SVG Export Plug-In . SVG Version: 6.00 Build 0)  -->
<svg version="1.1" id="Layer_1" xmlns="http://www.w3.org/2000/svg" xmlns:xlink="http://www.w3.org/1999/xlink" x="0px" y="0px"
	 viewBox="0 0 492 290.6" style="enable-background:new 0 0 492 290.6;" xml:space="preserve">
<style type="text/css">
	.st0{fill:#1A65A6;}
</style>
<g>
	<g>
		<path class="st0" d="M484.1,24.3L468,8.1c-5.1-5.1-11.8-7.9-19-7.9S435,3,430,8.1L246.1,191.9l-184-184C57,2.8,50.2,0,43,0
			S29,2.8,24,7.9L7.9,24c-10.5,10.5-10.5,27.6,0,38L227,282c5.1,5.1,11.8,8.6,19.1,8.6h0.1c7.2,0,14-3.6,19-8.6L484.1,62.6
			c5.1-5.1,7.9-12,7.9-19.2S489.2,29.3,484.1,24.3z"/>
	</g>
</g>
</svg>
