<?xml version="1.0" encoding="utf-8"?>
<!-- Generator: Adobe Illustrator 27.8.1, SVG Export Plug-In . SVG Version: 6.00 Build 0)  -->
<svg version="1.1" id="Layer_1" xmlns="http://www.w3.org/2000/svg" xmlns:xlink="http://www.w3.org/1999/xlink" x="0px" y="0px"
	 viewBox="0 0 492 290.6" style="enable-background:new 0 0 492 290.6;" xml:space="preserve">
<style type="text/css">
	.st0{fill:#1A65A6;}
</style>
<g>
	<g>
		<path class="st0" d="M7.9,266.3L24,282.5c5.1,5.1,11.8,7.9,19,7.9s14-2.8,19-7.9L245.9,98.7l184,184c5.1,5.1,11.9,7.9,19.1,7.9
			s14-2.8,19-7.9l16.1-16.1c10.5-10.5,10.5-27.6,0-38L265,8.6C259.9,3.5,253.2,0,245.9,0h-0.1c-7.2,0-14,3.6-19,8.6L7.9,228
			C2.8,233.1,0,240,0,247.2S2.8,261.3,7.9,266.3z"/>
	</g>
</g>
</svg>
