<?xml version="1.0" encoding="utf-8"?>
<!-- Generator: Adobe Illustrator 27.8.1, SVG Export Plug-In . SVG Version: 6.00 Build 0)  -->
<svg version="1.1" id="Capa_1" xmlns="http://www.w3.org/2000/svg" xmlns:xlink="http://www.w3.org/1999/xlink" x="0px" y="0px"
	 viewBox="0 0 45 58" style="enable-background:new 0 0 45 58;" xml:space="preserve">
<style type="text/css">
	.st0{fill:#FFFFFF;}
</style>
<g>
	<path class="st0" d="M44.4,12.2l-1.4-1.4l-9.5-9.5c0,0,0,0,0,0l-0.8-0.8C32.5,0.2,32,0,31.5,0h-29C1.3,0,0,0.9,0,2.9V39v16.5V56
		c0,0.8,0.8,1.7,1.8,1.9c0.1,0,0.1,0,0.2,0c0.2,0,0.3,0,0.5,0h40.1c0.2,0,0.3,0,0.5,0c0.1,0,0.1,0,0.2,0c1-0.3,1.8-1.1,1.8-1.9v-0.5
		V39V14C45,13.2,44.9,12.6,44.4,12.2z M33,3.6l8.4,8.4H33V3.6z M2.5,56c-0.1,0-0.1,0-0.2,0C2.1,55.9,2,55.7,2,55.5V41h41v14.5
		c0,0.2-0.1,0.3-0.3,0.4c-0.1,0-0.1,0-0.2,0H2.5z M2,39V2.9C2,2.7,2,2,2.5,2h28.6C31,2.1,31,2.3,31,2.4v11.4c-0.5-0.5-1.2-0.8-2-0.8
		c-0.6,0-1,0.4-1,1s0.4,1,1,1c0.6,0,1,0.4,1,1v4c0,1.2,0.5,2.3,1.4,3c-0.8,0.7-1.4,1.8-1.4,3v4c0,0.6-0.4,1-1,1c-0.6,0-1,0.4-1,1
		c0,0.6,0.4,1,1,1c1.7,0,3-1.3,3-3v-4c0-1.1,0.9-2,2-2c0.6,0,1-0.4,1-1s-0.4-1-1-1c-1.1,0-2-0.9-2-2v-4c0-0.8-0.3-1.5-0.8-2h11.4
		c0.1,0,0.3,0,0.4-0.1c0,0,0,0,0,0v25H2z"/>
	<path class="st0" d="M9.9,51.4c0,0.4-0.2,0.8-0.5,1s-0.7,0.3-1.2,0.3c-0.2,0-0.4,0-0.6-0.1S7.2,52.5,7,52.4s-0.4-0.1-0.6-0.2
		S6.1,52.1,6.1,52l-0.7,1.1c0.2,0.1,0.4,0.3,0.7,0.4s0.5,0.2,0.8,0.3S7.4,54,7.7,54s0.5,0.1,0.7,0.1c0.4,0,0.8,0,1.2-0.1
		s0.7-0.2,1-0.4s0.5-0.5,0.7-0.8s0.3-0.7,0.3-1.2v-7.8H9.9C9.9,43.7,9.9,51.4,9.9,51.4z"/>
	<path class="st0" d="M18.6,49.1c-0.3-0.2-0.7-0.4-1-0.6s-0.7-0.3-1-0.5s-0.6-0.4-0.8-0.6s-0.3-0.5-0.3-0.9c0-0.1,0-0.3,0.1-0.5
		s0.2-0.3,0.3-0.4s0.3-0.2,0.4-0.3s0.3-0.1,0.5-0.2c0.3,0,0.6,0,0.8,0s0.4,0,0.5,0.1s0.2,0.1,0.3,0.1s0.1,0.1,0.2,0.1
		c0,0,0-0.1,0.1-0.1s0.1-0.2,0.2-0.3s0.1-0.3,0.2-0.4s0.1-0.3,0.2-0.4c-0.3-0.2-0.6-0.3-1-0.4s-0.9-0.1-1.3-0.1
		c-0.4,0-0.8,0.1-1.2,0.2s-0.7,0.3-1,0.6s-0.5,0.5-0.7,0.9s-0.2,0.7-0.2,1.2c0,0.5,0.1,0.9,0.3,1.2s0.5,0.6,0.8,0.9s0.7,0.5,1,0.6
		s0.7,0.4,1,0.5s0.6,0.4,0.8,0.6s0.3,0.5,0.3,0.8c0,0.5-0.1,0.9-0.4,1.2s-0.7,0.4-1.3,0.4c-0.2,0-0.4,0-0.6-0.1s-0.4-0.1-0.6-0.1
		s-0.4-0.1-0.6-0.2s-0.4-0.1-0.5-0.2l-0.3,1.2c0.2,0.1,0.3,0.3,0.6,0.3s0.4,0.2,0.7,0.2c0.2,0.1,0.5,0.1,0.7,0.1s0.5,0,0.7,0
		c0.5,0,1-0.1,1.4-0.2s0.7-0.4,1-0.6s0.5-0.6,0.6-0.9s0.2-0.7,0.2-1.1c0-0.5-0.1-1-0.3-1.3S18.9,49.3,18.6,49.1z"/>
	<path class="st0" d="M28.4,45.1c-0.4-0.4-0.8-0.8-1.3-1s-1.1-0.3-1.7-0.3s-1.2,0.1-1.7,0.3s-0.9,0.5-1.3,1s-0.7,1-0.9,1.6
		s-0.3,1.4-0.3,2.2s0.1,1.6,0.3,2.2s0.5,1.2,0.9,1.6s0.8,0.8,1.3,1s1.1,0.3,1.7,0.3c0.6,0,1.2-0.1,1.7-0.3s0.9-0.5,1.3-1
		s0.7-1,0.9-1.6s0.3-1.4,0.3-2.2s-0.1-1.6-0.3-2.2S28.8,45.5,28.4,45.1z M27.7,50.7c-0.1,0.5-0.3,0.9-0.6,1.2s-0.5,0.5-0.8,0.6
		s-0.6,0.2-1,0.2c-0.3,0-0.6-0.1-0.9-0.2s-0.6-0.4-0.8-0.7s-0.4-0.7-0.5-1.2s-0.2-1.1-0.2-1.8c0-0.7,0.1-1.3,0.2-1.8
		s0.3-0.9,0.6-1.2s0.5-0.5,0.8-0.6s0.6-0.2,1-0.2c0.3,0,0.6,0.1,0.9,0.2s0.6,0.4,0.8,0.7s0.4,0.7,0.5,1.2s0.2,1.1,0.2,1.7
		C27.9,49.6,27.8,50.2,27.7,50.7z"/>
	<polygon class="st0" points="37.5,50.9 33.6,43.9 31.9,43.9 31.9,54 33.6,54 33.6,47.1 37.5,54 39.2,54 39.2,43.9 37.5,43.9 	"/>
	<path class="st0" d="M14,20v-4c0-0.6,0.4-1,1-1c0.6,0,1-0.4,1-1s-0.4-1-1-1c-1.7,0-3,1.3-3,3v4c0,1.1-0.9,2-2,2c-0.6,0-1,0.4-1,1
		s0.4,1,1,1c1.1,0,2,0.9,2,2v4c0,1.7,1.3,3,3,3c0.6,0,1-0.4,1-1s-0.4-1-1-1c-0.6,0-1-0.4-1-1v-4c0-1.2-0.5-2.3-1.4-3
		C13.5,22.3,14,21.2,14,20z"/>
	<circle class="st0" cx="22" cy="19.5" r="1.5"/>
	<path class="st0" d="M22,25c-0.6,0-1,0.4-1,1v3c0,0.6,0.4,1,1,1s1-0.4,1-1v-3C23,25.4,22.6,25,22,25z"/>
</g>
</svg>
