<?xml version="1.0" encoding="utf-8"?>
<!-- Generator: Adobe Illustrator 27.8.1, SVG Export Plug-In . SVG Version: 6.00 Build 0)  -->
<svg version="1.1" id="Layer_1" xmlns="http://www.w3.org/2000/svg" xmlns:xlink="http://www.w3.org/1999/xlink" x="0px" y="0px"
	 viewBox="0 0 512 512" style="enable-background:new 0 0 512 512;" xml:space="preserve">
<style type="text/css">
	.st0{fill:#FFFFFF;}
</style>
<g>
	<g>
		<path class="st0" d="M256,0C114.5,0,0,114.5,0,256c0,141.5,114.5,256,256,256c141.5,0,256-114.5,256-256C512,114.5,397.5,0,256,0z
			 M248.4,375.8c-14.5,0-25.6-12.1-25.6-25.9c0-14.2,11.5-25.9,25.6-25.9c14.2,0,25.9,11.8,25.9,25.9
			C274.4,363.7,262.9,375.8,248.4,375.8z M286.8,244.7c-18.5,14.5-18.9,24.6-18.9,42.1c0,6.4-3.4,13.8-19.9,13.8
			c-13.8,0-18.5-5.1-18.5-22.6c0-29,12.8-42.8,22.6-51.2c11.1-9.4,30-19.9,30-38.1c0-15.5-13.5-22.9-30.3-22.9
			c-34.4,0-27,25.9-45.2,25.9c-9.1,0-20.2-6.1-20.2-19.2c0-18.2,20.9-45.2,66.4-45.2c43.1,0,71.8,23.9,71.8,55.6
			S295.9,237.7,286.8,244.7z"/>
	</g>
</g>
</svg>
