<?xml version="1.0" encoding="utf-8"?>
<!-- Generator: Adobe Illustrator 27.8.1, SVG Export Plug-In . SVG Version: 6.00 Build 0)  -->
<svg version="1.1" id="Layer_1" xmlns="http://www.w3.org/2000/svg" xmlns:xlink="http://www.w3.org/1999/xlink" x="0px" y="0px"
	 viewBox="0 0 254.1 254.1" style="enable-background:new 0 0 254.1 254.1;" xml:space="preserve">
<style type="text/css">
	.st0{opacity:0.2;fill:#1966A7;}
	.st1{fill:#1966A7;}
	.st2{opacity:0.5;}
</style>
<g>
	<g>
		<path class="st0" d="M127,254.1c-70.1,0-127-57-127-127C0,57,57,0,127,0c70.1,0,127.1,57,127.1,127.1
			C254.1,197.1,197.1,254.1,127,254.1z M127,6.6C60.6,6.6,6.6,60.6,6.6,127.1c0,66.4,54,120.4,120.4,120.4s120.5-54,120.5-120.4
			C247.5,60.6,193.5,6.6,127,6.6z"/>
	</g>
	<g>
		<ellipse transform="matrix(0.1963 -0.9805 0.9805 0.1963 -22.4684 226.689)" class="st1" cx="127.1" cy="127.1" rx="66" ry="66"/>
	</g>
	<g class="st2">
		<path class="st1" d="M127,224.4c-53.7,0-97.3-43.7-97.3-97.3c0-53.7,43.7-97.4,97.3-97.4c53.7,0,97.4,43.7,97.4,97.4
			C224.4,180.7,180.7,224.4,127,224.4z M127,36.3c-50,0-90.7,40.7-90.7,90.8c0,50,40.7,90.7,90.7,90.7s90.8-40.7,90.8-90.7
			C217.8,77,177.1,36.3,127,36.3z"/>
	</g>
</g>
</svg>
