<?xml version="1.0" encoding="utf-8"?>
<!-- Generator: Adobe Illustrator 27.8.1, SVG Export Plug-In . SVG Version: 6.00 Build 0)  -->
<svg version="1.1" id="Capa_1" xmlns="http://www.w3.org/2000/svg" xmlns:xlink="http://www.w3.org/1999/xlink" x="0px" y="0px"
	 viewBox="0 0 118.8 118.8" style="enable-background:new 0 0 118.8 118.8;" xml:space="preserve">
<style type="text/css">
	.st0{fill:#FFFFFF;}
</style>
<g>
	<path class="st0" d="M116,101.6L88.7,74.3c4.6-7.4,7.3-16.1,7.3-25.5c0-26.5-21.5-48-48-48S0,22.3,0,48.8s21.5,48,48,48
		c10.2,0,19.6-3.2,27.4-8.6l27,27c1.9,1.9,4.3,2.8,6.8,2.8s4.9-0.9,6.8-2.8C119.7,111.4,119.7,105.3,116,101.6z M48,81.2
		c-17.9,0-32.4-14.5-32.4-32.4S30.1,16.4,48,16.4s32.4,14.5,32.4,32.4S65.9,81.2,48,81.2z"/>
</g>
</svg>
